<?xml version="1.0" encoding="UTF-8" standalone="no"?>
<!-- Generator: Adobe Illustrator 22.0.1, SVG Export Plug-In . SVG Version: 6.00 Build 0)  -->

<svg
   xmlns:dc="http://purl.org/dc/elements/1.1/"
   xmlns:cc="http://creativecommons.org/ns#"
   xmlns:rdf="http://www.w3.org/1999/02/22-rdf-syntax-ns#"
   xmlns:svg="http://www.w3.org/2000/svg"
   xmlns="http://www.w3.org/2000/svg"
   xmlns:sodipodi="http://sodipodi.sourceforge.net/DTD/sodipodi-0.dtd"
   xmlns:inkscape="http://www.inkscape.org/namespaces/inkscape"
   version="1.1"
   id="Layer_1"
   x="0px"
   y="0px"
   viewBox="0 0 660 200"
   style="enable-background:new 0 0 660 200;"
   xml:space="preserve"
   inkscape:version="0.48.4 r9939"
   width="100%"
   height="100%"
   sodipodi:docname="logo.svg"><metadata
     id="metadata46"><rdf:RDF><cc:Work
         rdf:about=""><dc:format>image/svg+xml</dc:format><dc:type
           rdf:resource="http://purl.org/dc/dcmitype/StillImage" /></cc:Work></rdf:RDF></metadata><defs
     id="defs44" /><sodipodi:namedview
     pagecolor="#ffffff"
     bordercolor="#666666"
     borderopacity="1"
     objecttolerance="10"
     gridtolerance="10"
     guidetolerance="10"
     inkscape:pageopacity="0"
     inkscape:pageshadow="2"
     inkscape:window-width="960"
     inkscape:window-height="1028"
     id="namedview42"
     showgrid="false"
     inkscape:zoom="0.44242424"
     inkscape:cx="494.30371"
     inkscape:cy="100"
     inkscape:window-x="960"
     inkscape:window-y="24"
     inkscape:window-maximized="0"
     inkscape:current-layer="Layer_1" /><style
     type="text/css"
     id="style3">
	.st0{fill:#3D4A4C;}
	.st1{font-family:'Montserrat-Bold';}
	.st2{font-size:72px;}
	.st3{letter-spacing:-2;}
	.st4{fill:#E6E6E6;}
	.st5{opacity:0.9;fill:none;stroke:#EC117E;stroke-width:16;stroke-linejoin:bevel;enable-background:new    ;}
	.st6{opacity:0.9;fill:none;stroke:#0E723B;stroke-width:16;stroke-linejoin:bevel;enable-background:new    ;}
	.st7{opacity:0.75;fill:none;stroke:#3B5D8C;stroke-width:16;stroke-linejoin:bevel;enable-background:new    ;}
</style><title
     id="title5">wimsb logo</title><g
     id="g7"><g
       id="Layer_1_1_"><g
         transform="matrix(1 0 0 1 216.09 92.65)"
         style="font-size:72px;letter-spacing:-2;fill:#3d4a4c;font-family:Montserrat-Bold"
         id="text10"><path
           d="m 2.390625,-52.488281 7.171875,0 11.039062,44.3671872 11.003907,-44.3671872 7.980468,0 11.039063,44.3671872 11.003906,-44.3671872 7.207031,0 L 55.652344,0 46.722656,0 35.648437,-45.5625 24.46875,0 15.539063,0 2.390625,-52.488281"
           style="font-size:72px;letter-spacing:-2;fill:#3d4a4c;font-family:Montserrat-Bold"
           id="path3064" /></g><g
         transform="matrix(1 0 0 1 286.29 92.65)"
         style="font-size:72px;fill:#3d4a4c;font-family:Montserrat-Bold"
         id="text12"><path
           d="m 24.679687,-19.792969 c -5.226581,2e-5 -8.847672,0.597676 -10.863281,1.792969 -2.015637,1.195329 -3.023448,3.23439 -3.023437,6.117187 -1.1e-5,2.2968851 0.749988,4.1250083 2.25,5.4843755 1.523423,1.3359426 3.585921,2.0039106 6.1875,2.0039063 3.585914,4.3e-6 6.457005,-1.2656194 8.613281,-3.7968751 2.179657,-2.5546767 3.2695,-5.9413917 3.269531,-10.1601557 l 0,-1.441407 -6.433594,0 m 12.902344,-2.671875 0,22.464844 -6.46875,0 0,-5.9765625 c -1.476592,2.3906286 -3.316434,4.1601581 -5.519531,5.30859375 -2.203148,1.12499954 -4.898458,1.68749895 -8.085938,1.68749995 -4.031263,-1e-6 -7.242197,-1.12499984 -9.632812,-3.375 -2.367193,-2.2734328 -3.5507856,-5.308586 -3.5507813,-9.1054692 -4.3e-6,-4.429671 1.4765567,-7.769512 4.4296876,-10.019531 2.9765507,-2.249976 7.4062337,-3.374975 13.2890627,-3.375 l 9.070312,0 0,-0.632812 c -3.1e-5,-2.976534 -0.984405,-5.273407 -2.953125,-6.890625 -1.945338,-1.640591 -4.687523,-2.460903 -8.226562,-2.460938 -2.250018,3.5e-5 -4.441422,0.269566 -6.574219,0.808594 -2.132824,0.539096 -4.1836029,1.347689 -6.1523438,2.425781 l 0,-5.976562 c 2.367178,-0.914024 4.6640508,-1.593711 6.8906248,-2.039063 2.226546,-0.46871 4.394513,-0.703084 6.503906,-0.703125 5.695287,4.1e-5 9.949189,1.476602 12.761719,4.429688 2.812464,2.953158 4.218713,7.429716 4.21875,13.429687"
           style="font-size:72px;fill:#3d4a4c;font-family:Montserrat-Bold"
           id="path3067" /><path
           d="m 68.835937,-19.792969 c -5.226581,2e-5 -8.847672,0.597676 -10.863281,1.792969 -2.015637,1.195329 -3.023448,3.23439 -3.023437,6.117187 -1.1e-5,2.2968851 0.749988,4.1250083 2.25,5.4843755 1.523423,1.3359426 3.585921,2.0039106 6.1875,2.0039063 3.585914,4.3e-6 6.457005,-1.2656194 8.613281,-3.7968751 2.179657,-2.5546767 3.2695,-5.9413917 3.269531,-10.1601557 l 0,-1.441407 -6.433594,0 m 12.902344,-2.671875 0,22.464844 -6.46875,0 0,-5.9765625 C 73.792939,-3.5859339 71.953097,-1.8164044 69.75,-0.66796875 67.546852,0.45703079 64.851542,1.0195302 61.664062,1.0195312 c -4.031263,-1e-6 -7.242197,-1.12499984 -9.632812,-3.375 -2.367193,-2.2734328 -3.550786,-5.308586 -3.550781,-9.1054692 -5e-6,-4.429671 1.476556,-7.769512 4.429687,-10.019531 2.976551,-2.249976 7.406234,-3.374975 13.289063,-3.375 l 9.070312,0 0,-0.632812 c -3.1e-5,-2.976534 -0.984405,-5.273407 -2.953125,-6.890625 -1.945338,-1.640591 -4.687523,-2.460903 -8.226562,-2.460938 -2.250018,3.5e-5 -4.441422,0.269566 -6.574219,0.808594 -2.132824,0.539096 -4.183603,1.347689 -6.152344,2.425781 l 0,-5.976562 c 2.367178,-0.914024 4.664051,-1.593711 6.890625,-2.039063 2.226546,-0.46871 4.394513,-0.703084 6.503906,-0.703125 5.695287,4.1e-5 9.949189,1.476602 12.761719,4.429688 2.812464,2.953158 4.218713,7.429716 4.21875,13.429687"
           style="font-size:72px;fill:#3d4a4c;font-family:Montserrat-Bold"
           id="path3069" /><path
           d="m 117.91406,-33.328125 c -0.72659,-0.421841 -1.52346,-0.726528 -2.39062,-0.914062 -0.84378,-0.210904 -1.78128,-0.316372 -2.8125,-0.316407 -3.65627,3.5e-5 -6.46877,1.195346 -8.4375,3.585938 -1.94533,2.367216 -2.91798,5.777369 -2.91797,10.230469 l 0,20.742187 -6.503908,0 0,-39.375 6.503908,0 0,6.117188 c 1.35936,-2.39059 3.12889,-4.160119 5.30859,-5.308594 2.17967,-1.171836 4.8281,-1.757772 7.94532,-1.757813 0.44528,4.1e-5 0.93747,0.0352 1.47656,0.105469 0.53903,0.04691 1.13669,0.128946 1.79297,0.246094 l 0.0352,6.644531"
           style="font-size:72px;fill:#3d4a4c;font-family:Montserrat-Bold"
           id="path3071" /><path
           d="m 147.69141,-39.375 6.46875,0 0,39.375 -6.46875,0 0,-39.375 m 0,-15.328125 6.46875,0 0,8.191406 -6.46875,0 0,-8.191406"
           style="font-size:72px;fill:#3d4a4c;font-family:Montserrat-Bold"
           id="path3073" /><path
           d="m 192.76172,-38.214844 0,6.117188 c -1.82816,-0.937467 -3.72659,-1.640592 -5.69531,-2.109375 -1.96878,-0.468716 -4.00784,-0.70309 -6.11719,-0.703125 -3.21096,3.5e-5 -5.62502,0.492222 -7.24219,1.476562 -1.59376,0.984408 -2.39063,2.460969 -2.39062,4.429688 -1e-5,1.500027 0.5742,2.68362 1.72265,3.550781 1.14843,0.843775 3.45702,1.652368 6.92578,2.425781 l 2.21485,0.492188 c 4.59372,0.984396 7.85153,2.378926 9.77343,4.183594 1.94528,1.781266 2.91794,4.277357 2.91797,7.488281 -3e-5,3.656257 -1.45315,6.5507853 -4.35937,8.6835935 -2.88284,2.13281255 -6.85549,3.1992177 -11.91797,3.1992187 -2.10939,-1e-6 -4.31251,-0.21093826 -6.60938,-0.63281245 -2.27344,-0.39843749 -4.67578,-1.00781188 -7.20703,-1.82812495 l 0,-6.6796876 c 2.39062,1.2421944 4.74609,2.1796935 7.06641,2.8125001 2.3203,0.6093796 4.61717,0.9140668 6.89062,0.9140625 3.04686,4.3e-6 5.39061,-0.5156201 7.03125,-1.546875 1.6406,-1.0546806 2.46092,-2.5312416 2.46094,-4.4296878 -2e-5,-1.7578 -0.59768,-3.105455 -1.79297,-4.042969 -1.1719,-0.937484 -3.76174,-1.839827 -7.76953,-2.707031 l -2.25,-0.527343 c -4.00782,-0.843732 -6.90235,-2.132793 -8.68359,-3.867188 -1.78126,-1.757789 -2.67188,-4.160131 -2.67188,-7.207031 0,-3.703093 1.3125,-6.562465 3.9375,-8.578125 2.62499,-2.015586 6.35155,-3.023397 11.17969,-3.023438 2.3906,4.1e-5 4.6406,0.175822 6.75,0.527344 2.10935,0.351602 4.05466,0.878945 5.83594,1.582031"
           style="font-size:72px;fill:#3d4a4c;font-family:Montserrat-Bold"
           id="path3075" /><path
           d="m 258.78516,-31.816406 c 1.61714,-2.906216 3.55074,-5.050745 5.80078,-6.433594 2.24995,-1.382773 4.89839,-2.074178 7.94531,-2.074219 4.10151,4.1e-5 7.26557,1.441445 9.49219,4.324219 2.2265,2.859408 3.33978,6.937529 3.33984,12.234375 l 0,23.765625 -6.50391,0 0,-23.554687 c -5e-5,-3.773411 -0.66802,-6.574189 -2.0039,-8.402344 -1.33599,-1.828091 -3.37505,-2.742153 -6.11719,-2.742188 -3.35161,3.5e-5 -6.00004,1.113315 -7.94531,3.339844 -1.94535,2.226592 -2.91801,5.261745 -2.91797,9.105469 l 0,22.253906 -6.50391,0 0,-23.554687 c -3e-5,-3.796848 -0.668,-6.597627 -2.0039,-8.402344 -1.33597,-1.828091 -3.39847,-2.742153 -6.1875,-2.742188 -3.30471,3.5e-5 -5.92971,1.125034 -7.875,3.375 -1.94533,2.226592 -2.91798,5.250026 -2.91797,9.070313 l 0,22.253906 -6.50391,0 0,-39.375 6.50391,0 0,6.117188 c 1.47655,-2.414027 3.24608,-4.195276 5.30859,-5.34375 2.06248,-1.148398 4.5117,-1.722616 7.34766,-1.722657 2.85935,4.1e-5 5.28512,0.726602 7.27734,2.179688 2.01559,1.453161 3.50387,3.562534 4.46485,6.328125"
           style="font-size:72px;fill:#3d4a4c;font-family:Montserrat-Bold"
           id="path3077" /><path
           d="m 298.30078,-39.375 6.46875,0 0,39.375 -6.46875,0 0,-39.375 m 0,-15.328125 6.46875,0 0,8.191406 -6.46875,0 0,-8.191406"
           style="font-size:72px;fill:#3d4a4c;font-family:Montserrat-Bold"
           id="path3079" /><path
           d="m 318.26953,-39.375 6.46875,0 0,40.078125 c -10e-6,5.0156193 -0.96095,8.6484281 -2.88281,10.898438 -1.89845,2.249986 -4.96876,3.374985 -9.21094,3.375 l -2.46094,0 0,-5.4843755 1.72266,0 c 2.46093,-9.5e-6 4.13671,-0.5742277 5.02734,-1.7226563 0.89062,-1.1250066 1.33593,-3.480473 1.33594,-7.0664062 l 0,-40.078125 m 0,-15.328125 6.46875,0 0,8.191406 -6.46875,0 0,-8.191406"
           style="font-size:72px;fill:#3d4a4c;font-family:Montserrat-Bold"
           id="path3081" /><path
           d="M 370.96875,-23.765625 370.96875,0 364.5,0 l 0,-23.554687 c -3e-5,-3.726536 -0.72659,-6.515595 -2.17969,-8.367188 -1.45315,-1.851529 -3.63284,-2.777309 -6.53906,-2.777344 -3.49221,3.5e-5 -6.24611,1.113315 -8.26172,3.339844 -2.01564,2.226592 -3.02345,5.261745 -3.02344,9.105469 l 0,22.253906 -6.5039,0 0,-39.375 6.5039,0 0,6.117188 c 1.54686,-2.367152 3.36327,-4.136682 5.44922,-5.308594 2.10936,-1.171836 4.53514,-1.757772 7.27735,-1.757813 4.5234,4.1e-5 7.94528,1.406289 10.26562,4.21875 2.32028,2.789096 3.48043,6.902373 3.48047,12.339844"
           style="font-size:72px;fill:#3d4a4c;font-family:Montserrat-Bold"
           id="path3083" /></g><g
         transform="matrix(1 0 0 1 216.09 164.65)"
         style="font-size:72px;fill:#3d4a4c;font-family:Montserrat-Bold"
         id="text14"><path
           d="m 31.886719,-38.214844 0,6.117188 c -1.828155,-0.937467 -3.726591,-1.640592 -5.695313,-2.109375 -1.968774,-0.468716 -4.007834,-0.70309 -6.117187,-0.703125 -3.210955,3.5e-5 -5.625015,0.492222 -7.242188,1.476562 -1.593761,0.984408 -2.390635,2.460969 -2.390625,4.429688 -1e-5,1.500027 0.574208,2.68362 1.722657,3.550781 1.148424,0.843775 3.457015,1.652368 6.925781,2.425781 l 2.214843,0.492188 c 4.593725,0.984396 7.851534,2.378926 9.773438,4.183594 1.945279,1.781266 2.917935,4.277357 2.917969,7.488281 -3.4e-5,3.656257 -1.453158,6.5507853 -4.359375,8.6835935 -2.88284,2.13281255 -6.855492,3.1992177 -11.917969,3.1992187 -2.109391,-1e-6 -4.312513,-0.21093826 -6.609375,-0.63281245 C 8.8359287,-0.01171874 6.4335873,-0.62109313 3.9023438,-1.4414062 l 0,-6.6796876 c 2.3906187,1.2421944 4.7460851,2.1796935 7.0664062,2.8125001 2.320299,0.6093796 4.617172,0.9140668 6.890625,0.9140625 3.046854,4.3e-6 5.390602,-0.5156201 7.03125,-1.546875 1.640598,-1.0546806 2.46091,-2.5312416 2.460937,-4.4296878 -2.7e-5,-1.7578 -0.597683,-3.105455 -1.792968,-4.042969 -1.1719,-0.937484 -3.761741,-1.839827 -7.769532,-2.707031 l -2.249999,-0.527343 c -4.007825,-0.843732 -6.9023529,-2.132793 -8.6835943,-3.867188 -1.781255,-1.757789 -2.6718791,-4.160131 -2.671875,-7.207031 -4.1e-6,-3.703093 1.3124946,-6.562465 3.9375001,-8.578125 2.6249892,-2.015586 6.3515482,-3.023397 11.1796872,-3.023438 2.390604,4.1e-5 4.640601,0.175822 6.75,0.527344 2.109347,0.351602 4.054658,0.878945 5.835938,1.582031"
           style="font-size:72px;fill:#3d4a4c;font-family:Montserrat-Bold"
           id="path3086" /></g><g
         transform="matrix(1 0 0 1 252.52 164.65)"
         style="font-size:72px;fill:#3d4a4c;font-family:Montserrat-Bold"
         id="text16"><path
           d="m 13.183594,-50.554687 0,11.179687 13.324218,0 0,5.027344 -13.324218,0 0,21.375 c -1.3e-5,3.210947 0.43358,5.2734449 1.300781,6.1874998 0.89061,0.9140683 2.683577,1.3710991 5.378906,1.3710937 l 6.644531,0 0,5.4140625 -6.644531,0 C 14.871079,0 11.42577,-0.92578032 9.5273438,-2.7773438 7.6288986,-4.6523391 6.6796808,-8.0507732 6.6796875,-12.972656 l 0,-21.375 -4.7460938,0 0,-5.027344 4.7460938,0 0,-11.179687 6.5039065,0"
           style="font-size:72px;fill:#3d4a4c;font-family:Montserrat-Bold"
           id="path3089" /><path
           d="m 68.730469,-21.304687 0,3.164062 -29.742188,0 c 0.281239,4.453139 1.617175,7.851573 4.007813,10.1953125 2.414045,2.3203181 5.765604,3.4804732 10.054687,3.4804688 2.484348,4.4e-6 4.886689,-0.3046828 7.207031,-0.9140625 2.343716,-0.6093691 4.664026,-1.5234306 6.960938,-2.7421876 l 0,6.1171875 c -2.320349,0.9843761 -4.699253,1.73437532 -7.136719,2.25000005 -2.437529,0.51562424 -4.910183,0.77343645 -7.417969,0.77343745 -6.281268,-1e-6 -11.261731,-1.82812414 -14.941406,-5.4843749 -3.656256,-3.6562419 -5.484379,-8.6015493 -5.484375,-14.8359373 -4e-6,-6.445287 1.73437,-11.554657 5.203125,-15.328125 3.492175,-3.796837 8.191389,-5.695272 14.097656,-5.695313 5.296847,4.1e-5 9.480436,1.710976 12.550782,5.132813 3.093711,3.398469 4.640584,8.027371 4.640625,13.886719 m -6.46875,-1.898438 c -0.04691,-3.539036 -1.043002,-6.363252 -2.988282,-8.472656 -1.921904,-2.109341 -4.476589,-3.164028 -7.664062,-3.164063 -3.609395,3.5e-5 -6.503923,1.019565 -8.683594,3.058594 -2.156262,2.039092 -3.398449,4.910183 -3.726562,8.613281 l 23.0625,-0.03516"
           style="font-size:72px;fill:#3d4a4c;font-family:Montserrat-Bold"
           id="path3091" /><path
           d="m 110.00391,-31.816406 c 1.61714,-2.906216 3.55074,-5.050745 5.80078,-6.433594 2.24995,-1.382773 4.89839,-2.074178 7.94531,-2.074219 4.10151,4.1e-5 7.26557,1.441445 9.49219,4.324219 2.2265,2.859408 3.33978,6.937529 3.33984,12.234375 l 0,23.765625 -6.50391,0 0,-23.554687 c -5e-5,-3.773411 -0.66802,-6.574189 -2.0039,-8.402344 -1.33599,-1.828091 -3.37505,-2.742153 -6.11719,-2.742188 -3.35161,3.5e-5 -6.00004,1.113315 -7.94531,3.339844 -1.94535,2.226592 -2.91801,5.261745 -2.91797,9.105469 l 0,22.253906 -6.50391,0 0,-23.554687 c -3e-5,-3.796848 -0.668,-6.597627 -2.0039,-8.402344 -1.33597,-1.828091 -3.398467,-2.742153 -6.187503,-2.742188 -3.304708,3.5e-5 -5.929705,1.125034 -7.875,3.375 -1.945326,2.226592 -2.917981,5.250026 -2.917968,9.070313 l 0,22.253906 -6.503907,0 0,-39.375 6.503907,0 0,6.117188 c 1.476548,-2.414027 3.246077,-4.195276 5.308593,-5.34375 2.06248,-1.148398 4.511696,-1.722616 7.347657,-1.722657 2.859351,4.1e-5 5.285121,0.726602 7.277341,2.179688 2.01559,1.453161 3.50387,3.562534 4.46485,6.328125"
           style="font-size:72px;fill:#3d4a4c;font-family:Montserrat-Bold"
           id="path3093" /><path
           d="m 149.51953,-54.703125 6.46875,0 0,54.703125 -6.46875,0 0,-54.703125"
           style="font-size:72px;fill:#3d4a4c;font-family:Montserrat-Bold"
           id="path3095" /><path
           d="m 184.74609,-34.839844 c -3.46876,3.5e-5 -6.21095,1.359409 -8.22656,4.078125 -2.01564,2.695341 -3.02345,6.398462 -3.02344,11.109375 -1e-5,4.710953 0.99609,8.425793 2.98828,11.1445315 2.01561,2.6953183 4.76952,4.0429732 8.26172,4.0429688 3.44529,4.4e-6 6.17576,-1.3593692 8.19141,-4.0781251 2.01559,-2.7187382 3.0234,-6.4218602 3.02344,-11.1093752 -4e-5,-4.664038 -1.00785,-8.35544 -3.02344,-11.074218 -2.01565,-2.742155 -4.74612,-4.113247 -8.19141,-4.113282 m 0,-5.484375 c 5.62498,4.1e-5 10.04294,1.828164 13.25391,5.484375 3.2109,3.656281 4.81637,8.718776 4.81641,15.1875 -4e-5,6.445326 -1.60551,11.5078209 -4.81641,15.1875003 -3.21097,3.65625076 -7.62893,5.4843739 -13.25391,5.4843749 -5.64845,-1e-6 -10.07813,-1.82812414 -13.28906,-5.4843749 -3.1875,-3.6796794 -4.78125,-8.7421743 -4.78125,-15.1875003 0,-6.468724 1.59375,-11.531219 4.78125,-15.1875 3.21093,-3.656211 7.64061,-5.484334 13.28906,-5.484375"
           style="font-size:72px;fill:#3d4a4c;font-family:Montserrat-Bold"
           id="path3097" /><path
           d="m 213.25781,-54.703125 6.50391,0 0,32.308594 19.30078,-16.980469 8.26172,0 -20.88281,18.421875 L 248.20312,0 l -8.4375,0 -20.0039,-19.230469 0,19.230469 -6.50391,0 0,-54.703125"
           style="font-size:72px;fill:#3d4a4c;font-family:Montserrat-Bold"
           id="path3099" /><path
           d="m 271.89844,-19.792969 c -5.22658,2e-5 -8.84767,0.597676 -10.86328,1.792969 -2.01564,1.195329 -3.02345,3.23439 -3.02344,6.117187 -1e-5,2.2968851 0.74999,4.1250083 2.25,5.4843755 1.52342,1.3359426 3.58592,2.0039106 6.1875,2.0039063 3.58591,4.3e-6 6.457,-1.2656194 8.61328,-3.7968751 2.17966,-2.5546767 3.2695,-5.9413917 3.26953,-10.1601557 l 0,-1.441407 -6.43359,0 m 12.90234,-2.671875 0,22.464844 -6.46875,0 0,-5.9765625 c -1.47659,2.3906286 -3.31643,4.1601581 -5.51953,5.30859375 -2.20315,1.12499954 -4.89846,1.68749895 -8.08594,1.68749995 -4.03126,-1e-6 -7.2422,-1.12499984 -9.63281,-3.375 -2.36719,-2.2734328 -3.55079,-5.308586 -3.55078,-9.1054692 -1e-5,-4.429671 1.47656,-7.769512 4.42969,-10.019531 2.97655,-2.249976 7.40623,-3.374975 13.28906,-3.375 l 9.07031,0 0,-0.632812 c -3e-5,-2.976534 -0.9844,-5.273407 -2.95312,-6.890625 -1.94534,-1.640591 -4.68753,-2.460903 -8.22657,-2.460938 -2.25001,3.5e-5 -4.44142,0.269566 -6.57422,0.808594 -2.13282,0.539096 -4.1836,1.347689 -6.15234,2.425781 l 0,-5.976562 c 2.36718,-0.914024 4.66405,-1.593711 6.89063,-2.039063 2.22654,-0.46871 4.39451,-0.703084 6.5039,-0.703125 5.69529,4.1e-5 9.94919,1.476602 12.76172,4.429688 2.81247,2.953158 4.21871,7.429716 4.21875,13.429687"
           style="font-size:72px;fill:#3d4a4c;font-family:Montserrat-Bold"
           id="path3101" /><path
           d="m 316.05469,-19.792969 c -5.22658,2e-5 -8.84767,0.597676 -10.86328,1.792969 -2.01564,1.195329 -3.02345,3.23439 -3.02344,6.117187 -1e-5,2.2968851 0.74999,4.1250083 2.25,5.4843755 1.52342,1.3359426 3.58592,2.0039106 6.1875,2.0039063 3.58591,4.3e-6 6.457,-1.2656194 8.61328,-3.7968751 2.17966,-2.5546767 3.2695,-5.9413917 3.26953,-10.1601557 l 0,-1.441407 -6.43359,0 m 12.90234,-2.671875 0,22.464844 -6.46875,0 0,-5.9765625 c -1.47659,2.3906286 -3.31643,4.1601581 -5.51953,5.30859375 -2.20315,1.12499954 -4.89846,1.68749895 -8.08594,1.68749995 -4.03126,-1e-6 -7.2422,-1.12499984 -9.63281,-3.375 -2.36719,-2.2734328 -3.55079,-5.308586 -3.55078,-9.1054692 -1e-5,-4.429671 1.47656,-7.769512 4.42969,-10.019531 2.97655,-2.249976 7.40623,-3.374975 13.28906,-3.375 l 9.07031,0 0,-0.632812 c -3e-5,-2.976534 -0.9844,-5.273407 -2.95312,-6.890625 -1.94534,-1.640591 -4.68753,-2.460903 -8.22657,-2.460938 -2.25001,3.5e-5 -4.44142,0.269566 -6.57422,0.808594 -2.13282,0.539096 -4.1836,1.347689 -6.15234,2.425781 l 0,-5.976562 c 2.36718,-0.914024 4.66405,-1.593711 6.89063,-2.039063 2.22654,-0.46871 4.39451,-0.703084 6.5039,-0.703125 5.69529,4.1e-5 9.94919,1.476602 12.76172,4.429688 2.81247,2.953158 4.21871,7.429716 4.21875,13.429687"
           style="font-size:72px;fill:#3d4a4c;font-family:Montserrat-Bold"
           id="path3103" /><path
           d="m 342.31641,-54.703125 6.46875,0 0,54.703125 -6.46875,0 0,-54.703125"
           style="font-size:72px;fill:#3d4a4c;font-family:Montserrat-Bold"
           id="path3105" /><path
           d="m 369.24609,-8.9296875 7.13672,0 0,8.9296875 -7.13672,0 0,-8.9296875 m 6.92578,-5.1679685 -6.71484,0 0,-5.414063 c -10e-6,-2.367165 0.32811,-4.312476 0.98438,-5.835937 0.65623,-1.523411 2.03904,-3.29294 4.14843,-5.308594 l 3.16407,-3.128906 c 1.33591,-1.242153 2.29685,-2.414027 2.88281,-3.515625 0.60935,-1.101524 0.91404,-2.226523 0.91406,-3.375 -2e-5,-2.085895 -0.77346,-3.773393 -2.32031,-5.0625 -1.52346,-1.289016 -3.5508,-1.933546 -6.08203,-1.933594 -1.85158,4.8e-5 -3.83205,0.410204 -5.94141,1.230469 -2.08595,0.820358 -4.26563,2.015669 -6.53906,3.585937 l 0,-6.609375 c 2.20312,-1.335886 4.42968,-2.331979 6.67969,-2.988281 2.27342,-0.656197 4.61717,-0.984322 7.03125,-0.984375 4.31247,5.3e-5 7.7695,1.136771 10.37109,3.410156 2.62497,2.273486 3.93747,5.273483 3.9375,9 -3e-5,1.781289 -0.42191,3.480507 -1.26563,5.097657 -0.84378,1.593784 -2.32034,3.39847 -4.42968,5.414062 l -3.09375,3.023438 c -1.10159,1.101588 -1.88674,1.968775 -2.35547,2.601562 -0.44534,0.609399 -0.76174,1.207055 -0.94922,1.792969 -0.14065,0.49221 -0.24611,1.089866 -0.31641,1.792969 -0.0703,0.703145 -0.10549,1.664082 -0.10547,2.882812 l 0,4.324219"
           style="font-size:72px;fill:#3d4a4c;font-family:Montserrat-Bold"
           id="path3107" /></g><path
         style="fill:#e6e6e6"
         d="m 38.700001,21.1 c 0,4.418278 -3.581722,8 -8,8 -4.418278,0 -8,-3.581722 -8,-8 0,-4.418278 3.581722,-8 8,-8 4.418278,0 8,3.581722 8,8 z"
         id="circle18" /><path
         style="fill:#e6e6e6"
         d="m 38.700001,101.1 c 0,4.41828 -3.581722,8 -8,8 -4.418278,0 -8,-3.58172 -8,-8 0,-4.41828 3.581722,-8.000002 8,-8.000002 4.418278,0 8,3.581722 8,8.000002 z"
         id="circle20" /><path
         style="fill:#e6e6e6"
         d="m 38.700001,181.10001 c 0,4.41827 -3.581722,8 -8,8 -4.418278,0 -8,-3.58173 -8,-8 0,-4.41828 3.581722,-8 8,-8 4.418278,0 8,3.58172 8,8 z"
         id="circle22" /><path
         style="fill:#e6e6e6"
         d="m 118.7,21.1 c 0,4.418278 -3.58173,8 -8,8 -4.41828,0 -8,-3.581722 -8,-8 0,-4.418278 3.58172,-8 8,-8 4.41827,0 8,3.581722 8,8 z"
         id="circle24" /><path
         style="fill:#e6e6e6"
         d="m 118.7,101.1 c 0,4.41828 -3.58173,8 -8,8 -4.41828,0 -8,-3.58172 -8,-8 0,-4.41828 3.58172,-8.000002 8,-8.000002 4.41827,0 8,3.581722 8,8.000002 z"
         id="circle26" /><path
         style="fill:#e6e6e6"
         d="m 118.7,181.10001 c 0,4.41827 -3.58173,8 -8,8 -4.41828,0 -8,-3.58173 -8,-8 0,-4.41828 3.58172,-8 8,-8 4.41827,0 8,3.58172 8,8 z"
         id="circle28" /><path
         style="fill:#e6e6e6"
         d="m 198.7,21.1 c 0,4.418278 -3.58173,8 -8,8 -4.41828,0 -8,-3.581722 -8,-8 0,-4.418278 3.58172,-8 8,-8 4.41827,0 8,3.581722 8,8 z"
         id="circle30" /><path
         style="fill:#e6e6e6"
         d="m 198.7,101.1 c 0,4.41828 -3.58173,8 -8,8 -4.41828,0 -8,-3.58172 -8,-8 0,-4.41828 3.58172,-8.000002 8,-8.000002 4.41827,0 8,3.581722 8,8.000002 z"
         id="circle32" /><path
         style="fill:#e6e6e6"
         d="m 198.7,181.10001 c 0,4.41827 -3.58173,8 -8,8 -4.41828,0 -8,-3.58173 -8,-8 0,-4.41828 3.58172,-8 8,-8 4.41827,0 8,3.58172 8,8 z"
         id="circle34" /><path
         style="opacity:0.9;fill:none;stroke:#ec117e;stroke-width:16;stroke-linejoin:bevel;enable-background:new"
         d="m 77.2,87.2 113.8,0 0,93.1 L 77.2,180 z"
         id="polygon36" /><path
         style="opacity:0.9;fill:none;stroke:#0e723b;stroke-width:16;stroke-linejoin:bevel;enable-background:new"
         d="m 173.2,21.1 -82.5,131 0,-131 z"
         id="polygon38" /><path
         style="opacity:0.75;fill:none;stroke:#3b5d8c;stroke-width:16;stroke-linejoin:bevel;enable-background:new"
         d="m 136.3,129.8 c 0,18.72246 -23.59459,33.9 -52.700002,33.9 -29.105406,0 -52.7,-15.17754 -52.7,-33.9 0,-18.72245 23.594594,-33.899998 52.7,-33.899998 C 112.70541,95.900002 136.3,111.07755 136.3,129.8 z"
         id="ellipse40" /></g></g></svg>