<?xml version="1.0" encoding="UTF-8" standalone="no"?>
<svg
   xmlns:dc="http://purl.org/dc/elements/1.1/"
   xmlns:cc="http://creativecommons.org/ns#"
   xmlns:rdf="http://www.w3.org/1999/02/22-rdf-syntax-ns#"
   xmlns:svg="http://www.w3.org/2000/svg"
   xmlns="http://www.w3.org/2000/svg"
   id="Layer_1"
   data-name="Layer 1"
   viewBox="0 0 475.18 106.78"
   version="1.1">
  <metadata
     id="metadata377">
    <rdf:RDF>
      <cc:Work
         rdf:about="">
        <dc:format>image/svg+xml</dc:format>
        <dc:type
           rdf:resource="http://purl.org/dc/dcmitype/StillImage" />
        <dc:title></dc:title>
      </cc:Work>
    </rdf:RDF>
  </metadata>
  <defs
     id="defs360">
    <style
       id="style358">.cls-2{fill:#035c6e}.cls-3{fill:#91d6e6}</style>
  </defs>
  <path
     class="cls-2"
     d="M122.08 40.18L84.82 77.44a26.39 26.39 0 0 0 37.26-37.26"
     id="path364" />
  <path
     class="cls-3"
     d="M128.84 29.26L91.58 66.52a26.39 26.39 0 0 1 37.26-37.26"
     id="path366" />
  <path
     class="cls-2"
     d="M69.34 40.18L32.08 77.44a26.39 26.39 0 0 0 37.26-37.26"
     id="path368" />
  <path
     class="cls-3"
     d="M67.26 38.1L30 75.36A26.39 26.39 0 0 1 67.26 38.1"
     id="path370" />
  <path
     class="cls-2"
     d="m 160.3,44.73 c 0.0167,1.171256 -0.20092,2.334032 -0.64,3.42 -0.82094,2.025833 -2.4642,3.607289 -4.52,4.35 -2.20611,0.801576 -4.62389,0.801576 -6.83,0 -1.01104,-0.379446 -1.93588,-0.957472 -2.72,-1.7 -0.77108,-0.752069 -1.38023,-1.653876 -1.79,-2.65 -0.43908,-1.085968 -0.65668,-2.248744 -0.64,-3.42 -0.0186,-1.168178 0.19909,-2.328065 0.64,-3.41 0.4083,-0.979384 1.01819,-1.861851 1.79,-2.59 0.78916,-0.723757 1.71352,-1.284491 2.72,-1.65 2.2133,-0.75962 4.6167,-0.75962 6.83,0 1.01154,0.361159 1.93999,0.922312 2.73,1.65 0.77181,0.728149 1.3817,1.610616 1.79,2.59 0.44091,1.081935 0.6586,2.241822 0.64,3.41 z m -4.07,0 c 0.004,-0.651217 -0.10738,-1.297999 -0.33,-1.91 -0.19782,-0.560596 -0.50358,-1.076993 -0.9,-1.52 -0.40313,-0.42778 -0.88986,-0.768153 -1.43,-1 -0.57622,-0.253722 -1.20047,-0.379936 -1.83,-0.37 -0.62641,-0.01104 -1.24763,0.115252 -1.82,0.37 -0.53878,0.234286 -1.02505,0.574336 -1.43,1 -0.41057,0.436006 -0.72412,0.954045 -0.92,1.52 -0.21942,0.612567 -0.32778,1.259368 -0.32,1.91 -0.0112,0.681093 0.10055,1.358623 0.33,2 0.20357,0.571291 0.516,1.097677 0.92,1.55 0.39907,0.427963 0.88259,0.768473 1.42,1 1.73133,0.773177 3.76191,0.372668 5.07,-1 0.41054,-0.44927 0.72678,-0.976336 0.93,-1.55 0.22265,-0.642627 0.32767,-1.320123 0.31,-2 z m 19.4,-2.95 c 0.0262,0.80377 -0.14912,1.601322 -0.51,2.32 -0.32473,0.614744 -0.79939,1.137564 -1.38,1.52 -0.61042,0.400757 -1.28783,0.688658 -2,0.85 -0.77351,0.181336 -1.56552,0.271947 -2.36,0.27 h -1.89 v 5.93 h -3.8 V 36.93 h 5.78 c 0.81014,-0.0067 1.61849,0.07711 2.41,0.25 0.71365,0.146093 1.39261,0.427861 2,0.83 0.55486,0.378775 1.00539,0.891203 1.31,1.49 0.32836,0.713405 0.47932,1.49564 0.44,2.28 z m -3.8,0 c 0.0125,-0.319143 -0.0674,-0.635109 -0.23,-0.91 -0.14566,-0.237505 -0.35303,-0.431046 -0.6,-0.56 -0.26722,-0.134517 -0.55414,-0.225657 -0.85,-0.27 -0.33175,-0.04087 -0.66574,-0.06091 -1,-0.06 h -1.67 v 3.71 h 1.6 c 0.33537,3.85e-4 0.67009,-0.02974 1,-0.09 0.3091,-0.05148 0.60688,-0.156384 0.88,-0.31 0.2513,-0.140118 0.46159,-0.343512 0.61,-0.59 0.16827,-0.270165 0.25827,-0.581722 0.26,-0.9 z m 6.62,10.89 V 36.93 H 189 v 3.2 h -6.92 v 3 h 6.54 v 3 h -6.54 v 3.27 h 7.32 v 3.24 z m 24.55,0 -6.34,-10.29 h -0.07 l 0.09,10.29 H 193 V 36.93 h 4.34 l 6.31,10.27 h 0.07 l -0.09,-10.27 h 3.69 V 52.67 Z M 226.22,41 c -0.32553,-0.421582 -0.74273,-0.76355 -1.22,-1 -0.47777,-0.231059 -0.99945,-0.357216 -1.53,-0.37 -0.25806,0.0039 -0.51546,0.02729 -0.77,0.07 -0.24817,0.03977 -0.48605,0.128122 -0.7,0.26 -0.20291,0.124642 -0.37955,0.28769 -0.52,0.48 -0.14659,0.229378 -0.21984,0.497961 -0.21,0.77 -0.007,0.234814 0.052,0.466881 0.17,0.67 0.1247,0.192522 0.29245,0.353422 0.49,0.47 0.24154,0.14346 0.49598,0.263986 0.76,0.36 l 1,0.35 c 0.54,0.18 1.09,0.37 1.67,0.59 0.56539,0.204575 1.09772,0.490955 1.58,0.85 0.47898,0.359238 0.88036,0.81164 1.18,1.33 0.33733,0.610866 0.49994,1.302825 0.47,2 0.0182,0.808333 -0.15299,1.609712 -0.5,2.34 -0.32244,0.640256 -0.78364,1.200526 -1.35,1.64 -0.57616,0.437984 -1.2315,0.760559 -1.93,0.95 -0.73169,0.208624 -1.48915,0.312985 -2.25,0.31 -1.11697,0.0057 -2.22545,-0.194311 -3.27,-0.59 -0.98894,-0.350246 -1.88498,-0.92139 -2.62,-1.67 l 2.49,-2.54 c 0.41417,0.502411 0.93288,0.908504 1.52,1.19 0.57966,0.307025 1.22411,0.471566 1.88,0.48 0.27584,8.27e-4 0.5509,-0.02936 0.82,-0.09 0.24892,-0.05364 0.48608,-0.151887 0.7,-0.29 0.20173,-0.133827 0.36675,-0.316034 0.48,-0.53 0.12477,-0.247846 0.18659,-0.5226 0.18,-0.8 0.0102,-0.270384 -0.067,-0.53686 -0.22,-0.76 -0.1723,-0.231589 -0.39009,-0.425552 -0.64,-0.57 -0.315,-0.190405 -0.65045,-0.344712 -1,-0.46 -0.41,-0.14 -0.87,-0.3 -1.39,-0.46 -0.50442,-0.163765 -0.99862,-0.357441 -1.48,-0.58 -0.47029,-0.216861 -0.90518,-0.503417 -1.29,-0.85 -0.38386,-0.359402 -0.69309,-0.790966 -0.91,-1.27 -0.24615,-0.570935 -0.36556,-1.188458 -0.35,-1.81 -0.0235,-0.784695 0.16294,-1.561433 0.54,-2.25 0.34289,-0.613549 0.82181,-1.140365 1.4,-1.54 0.60681,-0.411773 1.28506,-0.706813 2,-0.87 0.71822,-0.187673 1.45767,-0.281785 2.2,-0.28 0.92823,0.0043 1.84863,0.170103 2.72,0.49 0.90299,0.308664 1.73332,0.7987 2.44,1.44 z m 12.84,-0.82 v 12.49 h -3.81 V 40.18 h -4.44 v -3.25 h 12.69 v 3.25 z m 16.43,12.49 -1.22,-3.09 h -6.1 L 247,52.67 h -4.14 l 6.61,-15.74 h 3.69 l 6.54,15.74 z m -4.22,-11.54 -2,5.41 h 4 z m 16.05,-0.95 v 12.49 h -3.8 V 40.18 h -4.45 v -3.25 h 12.7 v 3.25 z m 7.01,12.49 V 36.93 h 10.59 v 3.2 H 278 v 3 h 6.54 v 3 H 278 v 3.27 h 7.32 v 3.24 z m 21.01,-15.74 h 10.16 v 2.44 h -7.36 v 4.32 h 6.94 v 2.36 h -6.94 v 6.62 h -2.8 z M 308,44.76 c -0.0167,-1.170314 0.19741,-2.332444 0.63,-3.42 0.39736,-0.977839 0.99717,-1.860512 1.76,-2.59 0.75108,-0.716346 1.63872,-1.274101 2.61,-1.64 1.0786,-0.397094 2.22071,-0.593658 3.37,-0.58 1.15907,-0.01374 2.31103,0.182775 3.4,0.58 0.99864,0.358511 1.91388,0.9165 2.69,1.64 0.76903,0.726308 1.3727,1.609649 1.77,2.59 0.43259,1.087556 0.64667,2.249686 0.63,3.42 0.014,1.153863 -0.20009,2.299126 -0.63,3.37 -0.40189,0.986646 -1.00466,1.878886 -1.77,2.62 -0.77288,0.744671 -1.68771,1.326212 -2.69,1.71 -1.08452,0.41665 -2.23828,0.623647 -3.4,0.61 -1.15202,0.01424 -2.29607,-0.19284 -3.37,-0.61 -0.99654,-0.383459 -1.90488,-0.965204 -2.67,-1.71 -0.75908,-0.744271 -1.35801,-1.635855 -1.76,-2.62 -0.40943,-1.075012 -0.60311,-2.220137 -0.57,-3.37 z m 3,0 c -0.009,0.790382 0.12295,1.576044 0.39,2.32 0.24319,0.683656 0.62442,1.309972 1.12,1.84 0.4822,0.514946 1.06396,0.926599 1.71,1.21 0.69192,0.294837 1.43797,0.441322 2.19,0.43 0.75515,0.01008 1.50421,-0.136331 2.2,-0.43 0.65046,-0.280735 1.236,-0.692655 1.72,-1.21 0.49558,-0.530028 0.87681,-1.156344 1.12,-1.84 0.26705,-0.743956 0.39912,-1.529618 0.39,-2.32 0.008,-0.774025 -0.12379,-1.543145 -0.39,-2.27 -0.24636,-0.674688 -0.61976,-1.295897 -1.1,-1.83 -1.01452,-1.086763 -2.4436,-1.690399 -3.93,-1.66 -0.7598,-0.0147 -1.51377,0.135409 -2.21,0.44 -0.64449,0.290586 -1.22553,0.705123 -1.71,1.22 -0.48024,0.534103 -0.85364,1.155312 -1.1,1.83 -0.26961,0.726223 -0.40515,1.495361 -0.4,2.27 z m 30,2.13 c 0.0154,0.881268 -0.15144,1.756214 -0.49,2.57 -0.30549,0.734021 -0.75813,1.397667 -1.33,1.95 -0.57916,0.537714 -1.25883,0.955716 -2,1.23 -1.61856,0.566305 -3.38144,0.566305 -5,0 -0.74117,-0.274284 -1.42084,-0.692286 -2,-1.23 -0.57814,-0.549121 -1.03464,-1.21343 -1.34,-1.95 -0.32229,-0.817954 -0.48194,-1.690921 -0.47,-2.57 v -10 h 2.8 v 9.85 c 7e-5,0.462557 0.0606,0.923123 0.18,1.37 0.10806,0.440816 0.30924,0.853392 0.59,1.21 0.28657,0.374921 0.66088,0.67368 1.09,0.87 1.07341,0.439564 2.27659,0.439564 3.35,0 0.42912,-0.19632 0.80343,-0.495079 1.09,-0.87 0.27699,-0.358961 0.47776,-0.770706 0.59,-1.21 0.11941,-0.446877 0.17993,-0.907443 0.18,-1.37 V 36.93 H 341 Z m 4.24,-9.96 H 349 l 7.31,11.79 h 0.05 V 36.93 h 2.8 v 15.74 h -3.56 l -7.47,-12.16 v 12.16 h -2.8 z m 18.26,0 h 5.58 c 1.04291,-5.7e-5 2.08148,0.134385 3.09,0.4 1.01943,0.253952 1.98031,0.702137 2.83,1.32 0.84247,0.64769 1.52642,1.478691 2,2.43 0.55507,1.159333 0.82262,2.435345 0.78,3.72 0.0338,1.23248 -0.23397,2.454561 -0.78,3.56 -0.48125,0.951947 -1.16367,1.787912 -2,2.45 -0.84374,0.635988 -1.79581,1.113715 -2.81,1.41 -1.00336,0.296175 -2.04384,0.447701 -3.09,0.45 h -5.6 z m 5.14,13.3 c 0.73425,-0.0026 1.46574,-0.08982 2.18,-0.26 0.71622,-0.159277 1.39518,-0.454627 2,-0.87 0.60165,-0.427844 1.09201,-0.993644 1.43,-1.65 0.39992,-0.82447 0.59217,-1.734222 0.56,-2.65 0.0349,-0.951399 -0.15701,-1.897458 -0.56,-2.76 -0.33228,-0.662929 -0.82357,-1.233241 -1.43,-1.66 -0.60258,-0.411104 -1.2834,-0.693645 -2,-0.83 -0.71728,-0.14739 -1.44774,-0.221106 -2.18,-0.22 h -2.34 v 10.9 z m 16.94,-13.3 H 388 l 6.78,15.74 h -3.2 l -1.47,-3.6 h -6.83 l -1.42,3.6 h -3.13 z m 3.56,9.74 -2.42,-6.41 -2.47,6.41 z m 9.79,-7.3 h -4.83 v -2.44 h 12.46 v 2.44 h -4.83 v 13.3 h -2.8 z m 10.3,-2.44 H 412 v 15.74 h -2.8 z m 6.4,7.83 c -0.0186,-1.171418 0.19909,-2.334568 0.64,-3.42 0.38801,-0.97544 0.97752,-1.858007 1.73,-2.59 0.76871,-0.723212 1.67737,-1.281344 2.67,-1.64 1.0786,-0.397094 2.22071,-0.593658 3.37,-0.58 1.15912,-0.0144 2.3112,0.182129 3.4,0.58 0.99987,0.355946 1.9156,0.914237 2.69,1.64 0.76903,0.726308 1.3727,1.609649 1.77,2.59 0.44091,1.085432 0.65858,2.248582 0.64,3.42 0.0157,1.154961 -0.202,2.301198 -0.64,3.37 -0.40189,0.986646 -1.00466,1.878886 -1.77,2.62 -0.77082,0.747296 -1.68621,1.329199 -2.69,1.71 -1.08426,0.417593 -2.2382,0.624622 -3.4,0.61 -1.15202,0.01424 -2.29607,-0.19284 -3.37,-0.61 -0.99654,-0.383459 -1.90488,-0.965204 -2.67,-1.71 -0.75592,-0.744839 -1.35146,-1.636453 -1.75,-2.62 -0.43116,-1.070219 -0.64203,-2.216406 -0.62,-3.37 z m 3.05,0 c -0.009,0.790382 0.12295,1.576044 0.39,2.32 0.24349,0.681269 0.6209,1.306896 1.11,1.84 0.4822,0.514946 1.06396,0.926599 1.71,1.21 0.69192,0.294837 1.43797,0.441322 2.19,0.43 0.75841,0.0103 1.51078,-0.136085 2.21,-0.43 0.6455,-0.284365 1.22707,-0.695889 1.71,-1.21 0.4891,-0.533104 0.86651,-1.158731 1.11,-1.84 0.26705,-0.743956 0.39912,-1.529618 0.39,-2.32 0.008,-0.774025 -0.12379,-1.543145 -0.39,-2.27 -0.24636,-0.674688 -0.61976,-1.295897 -1.1,-1.83 -1.01151,-1.091057 -2.44262,-1.695546 -3.93,-1.66 -1.48171,-0.03628 -2.90696,0.568809 -3.91,1.66 -0.48374,0.531506 -0.85758,1.153439 -1.1,1.83 -0.26621,0.726855 -0.39835,1.495975 -0.39,2.27 z m 17.43,-7.83 h 3.72 l 7.32,11.79 V 36.93 H 450 v 15.74 h -3.56 L 439,40.51 v 12.16 h -2.81 z"
     id="path372"
     style="fill:#035c6e" />
  <g
     aria-label="open data, transparante samenleving"
     transform="scale(1.0225066,0.97798879)"
     style="font-style:normal;font-variant:normal;font-weight:200;font-stretch:normal;font-size:19.46294785px;line-height:19.46294785px;font-family:'IBM Plex Sans ExtraLight';-inkscape-font-specification:'IBM Plex Sans ExtraLight, Ultra-Light';letter-spacing:-0.41564935px;word-spacing:0px;fill:#035c6e;fill-opacity:1;stroke:none;stroke-width:0.50156164px;stroke-linecap:butt;stroke-linejoin:miter;stroke-opacity:1"
     id="text138-1">
    <path
       d="m 144.18754,81.289364 q -1.9463,0 -3.07515,-1.32348 -1.10939,-1.323481 -1.10939,-3.853664 0,-2.549646 1.10939,-3.853663 1.12885,-1.323481 3.07515,-1.323481 1.94629,0 3.05568,1.323481 1.12885,1.304017 1.12885,3.853663 0,2.530183 -1.12885,3.853664 -1.10939,1.32348 -3.05568,1.32348 z m 0,-0.603351 q 1.65435,0 2.54964,-1.070462 0.8953,-1.089925 0.8953,-2.977831 v -1.050999 q 0,-1.907369 -0.8953,-2.977831 -0.89529,-1.070462 -2.54964,-1.070462 -1.65435,0 -2.54965,1.070462 -0.89529,1.070462 -0.89529,2.977831 v 1.050999 q 0,1.887906 0.89529,2.977831 0.8953,1.070462 2.54965,1.070462 z"
       style="font-style:normal;font-variant:normal;font-weight:200;font-stretch:normal;font-size:19.46294785px;line-height:100%;font-family:'IBM Plex Sans ExtraLight';-inkscape-font-specification:'IBM Plex Sans ExtraLight, Ultra-Light';letter-spacing:-0.41564935px;word-spacing:0px;fill:#035c6e;fill-opacity:1;stroke-width:0.50156164px"
       id="path4224" />
    <path
       d="m 151.03005,71.168632 h 0.6812 v 1.537572 h 0.0584 q 0.33087,-0.720129 1.10939,-1.245628 0.77852,-0.5255 2.02414,-0.5255 1.9463,0 3.01676,1.323481 1.08993,1.304017 1.08993,3.853663 0,2.549646 -1.08993,3.873127 -1.07046,1.304017 -3.01676,1.304017 -1.24562,0 -2.02414,-0.525499 -0.77852,-0.544963 -1.10939,-1.245629 h -0.0584 v 5.430163 h -0.6812 z m 3.77581,9.497918 q 1.65435,0 2.54965,-1.070462 0.91475,-1.070462 0.91475,-2.919442 v -1.128851 q 0,-1.84898 -0.91475,-2.919442 -0.8953,-1.089925 -2.54965,-1.089925 -0.62282,0 -1.18724,0.194629 -0.56443,0.175167 -0.99261,0.506037 -0.40872,0.311407 -0.66174,0.778518 -0.25302,0.447647 -0.25302,0.99261 v 4.165071 q 0,0.564425 0.25302,1.031536 0.25302,0.447648 0.66174,0.778518 0.42818,0.33087 0.99261,0.506037 0.56442,0.175166 1.18724,0.175166 z"
       style="font-style:normal;font-variant:normal;font-weight:200;font-stretch:normal;font-size:19.46294785px;line-height:100%;font-family:'IBM Plex Sans ExtraLight';-inkscape-font-specification:'IBM Plex Sans ExtraLight, Ultra-Light';letter-spacing:-0.41564935px;word-spacing:0px;fill:#035c6e;fill-opacity:1;stroke-width:0.50156164px"
       id="path4226" />
    <path
       d="m 165.01466,81.289364 q -1.96576,0 -3.11407,-1.32348 -1.12885,-1.323481 -1.12885,-3.853664 0,-2.51072 1.10939,-3.8342 1.10938,-1.342944 3.05568,-1.342944 0.91476,0 1.65435,0.350333 0.75905,0.350333 1.28455,0.992611 0.54497,0.642277 0.83691,1.557035 0.29194,0.895296 0.29194,2.004684 v 0.311407 h -7.51269 v 0.5255 q 0,0.914758 0.23355,1.65435 0.23356,0.739592 0.68121,1.265092 0.46711,0.5255 1.10938,0.817444 0.66174,0.272481 1.49865,0.272481 2.35502,0 3.25031,-2.257702 l 0.5255,0.291944 q -0.44765,1.167777 -1.40133,1.868443 -0.95368,0.700666 -2.37448,0.700666 z m -0.0778,-9.750936 q -0.81745,0 -1.45972,0.291944 -0.62282,0.272481 -1.07046,0.797981 -0.44765,0.525499 -0.68121,1.265091 -0.23355,0.739592 -0.23355,1.634888 v 0.07785 h 6.7731 v -0.116778 q 0,-0.895296 -0.25302,-1.615425 -0.23355,-0.739592 -0.6812,-1.245628 -0.42818,-0.5255 -1.051,-0.797981 -0.60335,-0.291944 -1.34294,-0.291944 z"
       style="font-style:normal;font-variant:normal;font-weight:200;font-stretch:normal;font-size:19.46294785px;line-height:100%;font-family:'IBM Plex Sans ExtraLight';-inkscape-font-specification:'IBM Plex Sans ExtraLight, Ultra-Light';letter-spacing:-0.41564935px;word-spacing:0px;fill:#035c6e;fill-opacity:1;stroke-width:0.50156164px"
       id="path4228" />
    <path
       d="m 171.64673,81.055809 v -9.887177 h 0.6812 v 1.518109 h 0.0584 q 0.29194,-0.720129 1.01207,-1.226165 0.73959,-0.5255 2.02415,-0.5255 1.63489,0 2.49126,0.973148 0.87583,0.953684 0.87583,2.802664 v 6.344921 h -0.6812 v -6.228143 q 0,-1.71274 -0.7396,-2.491258 -0.72013,-0.79798 -2.102,-0.79798 -0.56442,0 -1.10938,0.155703 -0.5255,0.155704 -0.93422,0.467111 -0.40873,0.311407 -0.66174,0.778518 -0.23356,0.467111 -0.23356,1.089925 v 7.026124 z"
       style="font-style:normal;font-variant:normal;font-weight:200;font-stretch:normal;font-size:19.46294785px;line-height:100%;font-family:'IBM Plex Sans ExtraLight';-inkscape-font-specification:'IBM Plex Sans ExtraLight, Ultra-Light';letter-spacing:-0.41564935px;word-spacing:0px;fill:#035c6e;fill-opacity:1;stroke-width:0.50156164px"
       id="path4230" />
    <path
       d="m 192.74865,79.518236 h -0.0584 q -0.33087,0.700666 -1.10939,1.245629 -0.77852,0.525499 -2.02414,0.525499 -1.9463,0 -3.03622,-1.304017 -1.07047,-1.323481 -1.07047,-3.873127 0,-2.549646 1.07047,-3.853663 1.08992,-1.323481 3.03622,-1.323481 1.24562,0 2.02414,0.5255 0.77852,0.525499 1.10939,1.245628 h 0.0584 v -6.052976 h 0.6812 v 14.402581 h -0.6812 z m -3.09461,1.148314 q 0.62282,0 1.18724,-0.175166 0.56443,-0.175167 0.97315,-0.506037 0.42818,-0.33087 0.6812,-0.778518 0.25302,-0.467111 0.25302,-1.031536 v -4.165071 q 0,-0.544963 -0.25302,-0.99261 -0.25302,-0.467111 -0.6812,-0.778518 -0.40872,-0.33087 -0.97315,-0.506037 -0.56442,-0.194629 -1.18724,-0.194629 -1.65435,0 -2.56911,1.089925 -0.89529,1.070462 -0.89529,2.919442 v 1.128851 q 0,1.84898 0.89529,2.919442 0.91476,1.070462 2.56911,1.070462 z"
       style="font-style:normal;font-variant:normal;font-weight:200;font-stretch:normal;font-size:19.46294785px;line-height:100%;font-family:'IBM Plex Sans ExtraLight';-inkscape-font-specification:'IBM Plex Sans ExtraLight, Ultra-Light';letter-spacing:-0.41564935px;word-spacing:0px;fill:#035c6e;fill-opacity:1;stroke-width:0.50156164px"
       id="path4232" />
    <path
       d="m 203.33747,81.055809 q -0.79798,0 -0.83691,-0.817444 v -0.720129 h -0.0779 q -0.35033,0.759055 -1.10939,1.265092 -0.75905,0.506036 -2.04361,0.506036 -1.53757,0 -2.37447,-0.739592 -0.83691,-0.739592 -0.83691,-2.082535 0,-0.642277 0.19463,-1.167777 0.19463,-0.5255 0.64228,-0.895296 0.46711,-0.389258 1.18723,-0.583888 0.7396,-0.214092 1.81006,-0.214092 h 2.58857 v -1.323481 q 0,-1.401332 -0.6812,-2.063072 -0.68121,-0.681203 -2.02415,-0.681203 -2.08253,0 -2.88051,1.751665 l -0.48658,-0.33087 q 0.40872,-0.914759 1.2067,-1.459721 0.79798,-0.564426 2.17985,-0.564426 1.65435,0 2.51072,0.85637 0.85637,0.836907 0.85637,2.413405 v 6.247607 h 1.51811 v 0.603351 z m -4.00937,-0.369796 q 0.64228,0 1.20671,-0.155704 0.58388,-0.175166 1.01207,-0.486573 0.42818,-0.311407 0.6812,-0.778518 0.25302,-0.467111 0.25302,-1.089925 v -2.024147 h -2.58857 q -1.63489,0 -2.37448,0.564426 -0.73959,0.544962 -0.73959,1.459721 v 0.544962 q 0,0.973148 0.70066,1.479184 0.72013,0.486574 1.84898,0.486574 z"
       style="font-style:normal;font-variant:normal;font-weight:200;font-stretch:normal;font-size:19.46294785px;line-height:100%;font-family:'IBM Plex Sans ExtraLight';-inkscape-font-specification:'IBM Plex Sans ExtraLight, Ultra-Light';letter-spacing:-0.41564935px;word-spacing:0px;fill:#035c6e;fill-opacity:1;stroke-width:0.50156164px"
       id="path4234" />
    <path
       d="m 207.97033,81.055809 q -0.83691,0 -0.83691,-0.817444 v -8.466382 h -1.79059 v -0.603351 h 1.28455 q 0.33087,0 0.42819,-0.136241 0.11678,-0.136241 0.11678,-0.467111 v -2.199313 h 0.64227 v 2.802665 h 2.3161 v 0.603351 h -2.3161 v 8.680475 h 2.16039 v 0.603351 z"
       style="font-style:normal;font-variant:normal;font-weight:200;font-stretch:normal;font-size:19.46294785px;line-height:100%;font-family:'IBM Plex Sans ExtraLight';-inkscape-font-specification:'IBM Plex Sans ExtraLight, Ultra-Light';letter-spacing:-0.41564935px;word-spacing:0px;fill:#035c6e;fill-opacity:1;stroke-width:0.50156164px"
       id="path4236" />
    <path
       d="m 218.96605,81.055809 q -0.79798,0 -0.8369,-0.817444 v -0.720129 h -0.0779 q -0.35033,0.759055 -1.10938,1.265092 -0.75906,0.506036 -2.04361,0.506036 -1.53758,0 -2.37448,-0.739592 -0.83691,-0.739592 -0.83691,-2.082535 0,-0.642277 0.19463,-1.167777 0.19463,-0.5255 0.64228,-0.895296 0.46711,-0.389258 1.18724,-0.583888 0.73959,-0.214092 1.81005,-0.214092 h 2.58857 v -1.323481 q 0,-1.401332 -0.6812,-2.063072 -0.6812,-0.681203 -2.02415,-0.681203 -2.08253,0 -2.88051,1.751665 l -0.48658,-0.33087 q 0.40873,-0.914759 1.20671,-1.459721 0.79798,-0.564426 2.17985,-0.564426 1.65435,0 2.51072,0.85637 0.85637,0.836907 0.85637,2.413405 v 6.247607 h 1.51811 v 0.603351 z m -4.00936,-0.369796 q 0.64227,0 1.2067,-0.155704 0.58389,-0.175166 1.01207,-0.486573 0.42819,-0.311407 0.6812,-0.778518 0.25302,-0.467111 0.25302,-1.089925 v -2.024147 h -2.58857 q -1.63489,0 -2.37448,0.564426 -0.73959,0.544962 -0.73959,1.459721 v 0.544962 q 0,0.973148 0.70067,1.479184 0.72012,0.486574 1.84898,0.486574 z"
       style="font-style:normal;font-variant:normal;font-weight:200;font-stretch:normal;font-size:19.46294785px;line-height:100%;font-family:'IBM Plex Sans ExtraLight';-inkscape-font-specification:'IBM Plex Sans ExtraLight, Ultra-Light';letter-spacing:-0.41564935px;word-spacing:0px;fill:#035c6e;fill-opacity:1;stroke-width:0.50156164px"
       id="path4238" />
    <path
       d="m 222.91497,79.732329 q 0.35033,0 0.50604,0.194629 0.17516,0.175167 0.17516,0.467111 v 0.233555 q 0,0.817444 -0.44765,1.71274 -0.44764,0.895295 -1.12885,1.51811 h -0.58388 q 0.70066,-0.700667 1.01207,-1.420796 0.33087,-0.700666 0.42818,-1.265091 -0.35033,-0.01946 -0.50603,-0.19463 -0.13624,-0.175166 -0.13624,-0.389259 v -0.194629 q 0,-0.291944 0.1557,-0.467111 0.1557,-0.194629 0.5255,-0.194629 z"
       style="font-style:normal;font-variant:normal;font-weight:200;font-stretch:normal;font-size:19.46294785px;line-height:100%;font-family:'IBM Plex Sans ExtraLight';-inkscape-font-specification:'IBM Plex Sans ExtraLight, Ultra-Light';letter-spacing:-0.41564935px;word-spacing:0px;fill:#035c6e;fill-opacity:1;stroke-width:0.50156164px"
       id="path4240" />
    <path
       d="m 232.30901,81.055809 q -0.8369,0 -0.8369,-0.817444 v -8.466382 h -1.7906 v -0.603351 h 1.28456 q 0.33087,0 0.42818,-0.136241 0.11678,-0.136241 0.11678,-0.467111 v -2.199313 h 0.64228 v 2.802665 h 2.31609 v 0.603351 h -2.31609 v 8.680475 h 2.16039 v 0.603351 z"
       style="font-style:normal;font-variant:normal;font-weight:200;font-stretch:normal;font-size:19.46294785px;line-height:100%;font-family:'IBM Plex Sans ExtraLight';-inkscape-font-specification:'IBM Plex Sans ExtraLight, Ultra-Light';letter-spacing:-0.41564935px;word-spacing:0px;fill:#035c6e;fill-opacity:1;stroke-width:0.50156164px"
       id="path4242" />
    <path
       d="m 236.8625,81.055809 v -9.887177 h 0.6812 v 1.732202 h 0.0779 q 0.3114,-0.700666 1.01207,-1.206703 0.70067,-0.525499 2.02415,-0.525499 h 0.73959 v 0.642277 H 240.541 q -0.60335,0 -1.14832,0.155703 -0.54496,0.155704 -0.95368,0.467111 -0.40872,0.311407 -0.66174,0.778518 -0.23356,0.447648 -0.23356,1.050999 v 6.792569 z"
       style="font-style:normal;font-variant:normal;font-weight:200;font-stretch:normal;font-size:19.46294785px;line-height:100%;font-family:'IBM Plex Sans ExtraLight';-inkscape-font-specification:'IBM Plex Sans ExtraLight, Ultra-Light';letter-spacing:-0.41564935px;word-spacing:0px;fill:#035c6e;fill-opacity:1;stroke-width:0.50156164px"
       id="path4244" />
    <path
       d="m 249.61749,81.055809 q -0.79798,0 -0.83691,-0.817444 v -0.720129 h -0.0778 q -0.35033,0.759055 -1.10939,1.265092 -0.75905,0.506036 -2.04361,0.506036 -1.53757,0 -2.37448,-0.739592 -0.8369,-0.739592 -0.8369,-2.082535 0,-0.642277 0.19463,-1.167777 0.19463,-0.5255 0.64227,-0.895296 0.46711,-0.389258 1.18724,-0.583888 0.73959,-0.214092 1.81006,-0.214092 h 2.58857 v -1.323481 q 0,-1.401332 -0.6812,-2.063072 -0.68121,-0.681203 -2.02415,-0.681203 -2.08254,0 -2.88052,1.751665 l -0.48657,-0.33087 q 0.40872,-0.914759 1.2067,-1.459721 0.79798,-0.564426 2.17985,-0.564426 1.65435,0 2.51072,0.85637 0.85637,0.836907 0.85637,2.413405 v 6.247607 h 1.51811 v 0.603351 z m -4.00937,-0.369796 q 0.64228,0 1.2067,-0.155704 0.58389,-0.175166 1.01208,-0.486573 0.42818,-0.311407 0.6812,-0.778518 0.25302,-0.467111 0.25302,-1.089925 v -2.024147 h -2.58857 q -1.63489,0 -2.37448,0.564426 -0.73959,0.544962 -0.73959,1.459721 v 0.544962 q 0,0.973148 0.70066,1.479184 0.72013,0.486574 1.84898,0.486574 z"
       style="font-style:normal;font-variant:normal;font-weight:200;font-stretch:normal;font-size:19.46294785px;line-height:100%;font-family:'IBM Plex Sans ExtraLight';-inkscape-font-specification:'IBM Plex Sans ExtraLight, Ultra-Light';letter-spacing:-0.41564935px;word-spacing:0px;fill:#035c6e;fill-opacity:1;stroke-width:0.50156164px"
       id="path4246" />
    <path
       d="m 252.90922,81.055809 v -9.887177 h 0.68121 v 1.518109 h 0.0584 q 0.29194,-0.720129 1.01207,-1.226165 0.73959,-0.5255 2.02415,-0.5255 1.63488,0 2.49125,0.973148 0.87584,0.953684 0.87584,2.802664 v 6.344921 h -0.68121 v -6.228143 q 0,-1.71274 -0.73959,-2.491258 -0.72013,-0.79798 -2.102,-0.79798 -0.56442,0 -1.10939,0.155703 -0.5255,0.155704 -0.93422,0.467111 -0.40872,0.311407 -0.66174,0.778518 -0.23355,0.467111 -0.23355,1.089925 v 7.026124 z"
       style="font-style:normal;font-variant:normal;font-weight:200;font-stretch:normal;font-size:19.46294785px;line-height:100%;font-family:'IBM Plex Sans ExtraLight';-inkscape-font-specification:'IBM Plex Sans ExtraLight, Ultra-Light';letter-spacing:-0.41564935px;word-spacing:0px;fill:#035c6e;fill-opacity:1;stroke-width:0.50156164px"
       id="path4248" />
    <path
       d="m 266.03188,81.289364 q -1.22617,0 -2.14093,-0.447647 -0.89529,-0.447648 -1.5765,-1.401333 l 0.5255,-0.389259 q 0.66174,0.875833 1.40134,1.265092 0.75905,0.369796 1.81005,0.369796 1.32348,0 2.00468,-0.544963 0.68121,-0.544962 0.68121,-1.576498 0,-0.992611 -0.58389,-1.479184 -0.56443,-0.486574 -1.75167,-0.681204 l -0.8369,-0.13624 q -0.66174,-0.09731 -1.20671,-0.291944 -0.5255,-0.19463 -0.91475,-0.506037 -0.3698,-0.33087 -0.58389,-0.797981 -0.19463,-0.467111 -0.19463,-1.128851 0,-0.642277 0.23355,-1.128851 0.25302,-0.486574 0.68121,-0.817444 0.44764,-0.33087 1.03153,-0.486573 0.60335,-0.175167 1.28456,-0.175167 1.24563,0 2.02414,0.447648 0.77852,0.428185 1.28456,1.012073 l -0.48658,0.447648 q -0.21409,-0.253018 -0.48657,-0.486574 -0.25302,-0.233555 -0.58389,-0.408722 -0.33087,-0.194629 -0.77852,-0.291944 -0.42818,-0.116777 -0.99261,-0.116777 -1.16777,0 -1.86844,0.506036 -0.6812,0.506037 -0.6812,1.479184 0,0.992611 0.58389,1.459721 0.58388,0.447648 1.77112,0.642278 l 0.83691,0.13624 q 1.38187,0.214093 2.12146,0.85637 0.75906,0.622814 0.75906,1.887906 0,1.32348 -0.8953,2.063072 -0.89529,0.720129 -2.47179,0.720129 z"
       style="font-style:normal;font-variant:normal;font-weight:200;font-stretch:normal;font-size:19.46294785px;line-height:100%;font-family:'IBM Plex Sans ExtraLight';-inkscape-font-specification:'IBM Plex Sans ExtraLight, Ultra-Light';letter-spacing:-0.41564935px;word-spacing:0px;fill:#035c6e;fill-opacity:1;stroke-width:0.50156164px"
       id="path4250" />
    <path
       d="m 272.07306,71.168632 h 0.68121 v 1.537572 h 0.0584 q 0.33087,-0.720129 1.10938,-1.245628 0.77852,-0.5255 2.02415,-0.5255 1.9463,0 3.01676,1.323481 1.08992,1.304017 1.08992,3.853663 0,2.549646 -1.08992,3.873127 -1.07046,1.304017 -3.01676,1.304017 -1.24563,0 -2.02415,-0.525499 -0.77851,-0.544963 -1.10938,-1.245629 h -0.0584 v 5.430163 h -0.68121 z m 3.77582,9.497918 q 1.65435,0 2.54964,-1.070462 0.91476,-1.070462 0.91476,-2.919442 v -1.128851 q 0,-1.84898 -0.91476,-2.919442 -0.89529,-1.089925 -2.54964,-1.089925 -0.62282,0 -1.18724,0.194629 -0.56443,0.175167 -0.99261,0.506037 -0.40873,0.311407 -0.66174,0.778518 -0.25302,0.447647 -0.25302,0.99261 v 4.165071 q 0,0.564425 0.25302,1.031536 0.25301,0.447648 0.66174,0.778518 0.42818,0.33087 0.99261,0.506037 0.56442,0.175166 1.18724,0.175166 z"
       style="font-style:normal;font-variant:normal;font-weight:200;font-stretch:normal;font-size:19.46294785px;line-height:100%;font-family:'IBM Plex Sans ExtraLight';-inkscape-font-specification:'IBM Plex Sans ExtraLight, Ultra-Light';letter-spacing:-0.41564935px;word-spacing:0px;fill:#035c6e;fill-opacity:1;stroke-width:0.50156164px"
       id="path4252" />
    <path
       d="m 289.12359,81.055809 q -0.79798,0 -0.8369,-0.817444 v -0.720129 h -0.0779 q -0.35033,0.759055 -1.10938,1.265092 -0.75906,0.506036 -2.04361,0.506036 -1.53758,0 -2.37448,-0.739592 -0.83691,-0.739592 -0.83691,-2.082535 0,-0.642277 0.19463,-1.167777 0.19463,-0.5255 0.64228,-0.895296 0.46711,-0.389258 1.18724,-0.583888 0.73959,-0.214092 1.81005,-0.214092 h 2.58857 v -1.323481 q 0,-1.401332 -0.6812,-2.063072 -0.6812,-0.681203 -2.02415,-0.681203 -2.08253,0 -2.88051,1.751665 l -0.48658,-0.33087 q 0.40872,-0.914759 1.20671,-1.459721 0.79798,-0.564426 2.17985,-0.564426 1.65435,0 2.51072,0.85637 0.85637,0.836907 0.85637,2.413405 v 6.247607 h 1.51811 v 0.603351 z m -4.00937,-0.369796 q 0.64228,0 1.20671,-0.155704 0.58389,-0.175166 1.01207,-0.486573 0.42819,-0.311407 0.6812,-0.778518 0.25302,-0.467111 0.25302,-1.089925 v -2.024147 h -2.58857 q -1.63489,0 -2.37448,0.564426 -0.73959,0.544962 -0.73959,1.459721 v 0.544962 q 0,0.973148 0.70066,1.479184 0.72013,0.486574 1.84898,0.486574 z"
       style="font-style:normal;font-variant:normal;font-weight:200;font-stretch:normal;font-size:19.46294785px;line-height:100%;font-family:'IBM Plex Sans ExtraLight';-inkscape-font-specification:'IBM Plex Sans ExtraLight, Ultra-Light';letter-spacing:-0.41564935px;word-spacing:0px;fill:#035c6e;fill-opacity:1;stroke-width:0.50156164px"
       id="path4254" />
    <path
       d="m 292.41532,81.055809 v -9.887177 h 0.6812 v 1.732202 h 0.0779 q 0.31141,-0.700666 1.01208,-1.206703 0.70066,-0.525499 2.02414,-0.525499 h 0.7396 v 0.642277 h -0.85637 q -0.60335,0 -1.14832,0.155703 -0.54496,0.155704 -0.95368,0.467111 -0.40872,0.311407 -0.66174,0.778518 -0.23356,0.447648 -0.23356,1.050999 v 6.792569 z"
       style="font-style:normal;font-variant:normal;font-weight:200;font-stretch:normal;font-size:19.46294785px;line-height:100%;font-family:'IBM Plex Sans ExtraLight';-inkscape-font-specification:'IBM Plex Sans ExtraLight, Ultra-Light';letter-spacing:-0.41564935px;word-spacing:0px;fill:#035c6e;fill-opacity:1;stroke-width:0.50156164px"
       id="path4256" />
    <path
       d="m 305.17031,81.055809 q -0.79798,0 -0.8369,-0.817444 v -0.720129 h -0.0779 q -0.35034,0.759055 -1.10939,1.265092 -0.75906,0.506036 -2.04361,0.506036 -1.53757,0 -2.37448,-0.739592 -0.83691,-0.739592 -0.83691,-2.082535 0,-0.642277 0.19463,-1.167777 0.19463,-0.5255 0.64228,-0.895296 0.46711,-0.389258 1.18724,-0.583888 0.73959,-0.214092 1.81005,-0.214092 h 2.58857 v -1.323481 q 0,-1.401332 -0.6812,-2.063072 -0.6812,-0.681203 -2.02414,-0.681203 -2.08254,0 -2.88052,1.751665 l -0.48657,-0.33087 q 0.40872,-0.914759 1.2067,-1.459721 0.79798,-0.564426 2.17985,-0.564426 1.65435,0 2.51072,0.85637 0.85637,0.836907 0.85637,2.413405 v 6.247607 h 1.51811 v 0.603351 z m -4.00936,-0.369796 q 0.64227,0 1.2067,-0.155704 0.58389,-0.175166 1.01207,-0.486573 0.42819,-0.311407 0.68121,-0.778518 0.25301,-0.467111 0.25301,-1.089925 v -2.024147 h -2.58857 q -1.63488,0 -2.37448,0.564426 -0.73959,0.544962 -0.73959,1.459721 v 0.544962 q 0,0.973148 0.70067,1.479184 0.72013,0.486574 1.84898,0.486574 z"
       style="font-style:normal;font-variant:normal;font-weight:200;font-stretch:normal;font-size:19.46294785px;line-height:100%;font-family:'IBM Plex Sans ExtraLight';-inkscape-font-specification:'IBM Plex Sans ExtraLight, Ultra-Light';letter-spacing:-0.41564935px;word-spacing:0px;fill:#035c6e;fill-opacity:1;stroke-width:0.50156164px"
       id="path4258" />
    <path
       d="m 308.46204,81.055809 v -9.887177 h 0.68121 v 1.518109 h 0.0584 q 0.29195,-0.720129 1.01208,-1.226165 0.73959,-0.5255 2.02414,-0.5255 1.63489,0 2.49126,0.973148 0.87583,0.953684 0.87583,2.802664 v 6.344921 h -0.6812 v -6.228143 q 0,-1.71274 -0.73959,-2.491258 -0.72013,-0.79798 -2.102,-0.79798 -0.56443,0 -1.10939,0.155703 -0.5255,0.155704 -0.93422,0.467111 -0.40872,0.311407 -0.66174,0.778518 -0.23355,0.467111 -0.23355,1.089925 v 7.026124 z"
       style="font-style:normal;font-variant:normal;font-weight:200;font-stretch:normal;font-size:19.46294785px;line-height:100%;font-family:'IBM Plex Sans ExtraLight';-inkscape-font-specification:'IBM Plex Sans ExtraLight, Ultra-Light';letter-spacing:-0.41564935px;word-spacing:0px;fill:#035c6e;fill-opacity:1;stroke-width:0.50156164px"
       id="path4260" />
    <path
       d="m 320.18337,81.055809 q -0.83691,0 -0.83691,-0.817444 v -8.466382 h -1.79059 v -0.603351 h 1.28456 q 0.33087,0 0.42818,-0.136241 0.11678,-0.136241 0.11678,-0.467111 v -2.199313 h 0.64228 v 2.802665 h 2.31609 v 0.603351 h -2.31609 v 8.680475 h 2.16038 v 0.603351 z"
       style="font-style:normal;font-variant:normal;font-weight:200;font-stretch:normal;font-size:19.46294785px;line-height:100%;font-family:'IBM Plex Sans ExtraLight';-inkscape-font-specification:'IBM Plex Sans ExtraLight, Ultra-Light';letter-spacing:-0.41564935px;word-spacing:0px;fill:#035c6e;fill-opacity:1;stroke-width:0.50156164px"
       id="path4262" />
    <path
       d="m 328.02884,81.289364 q -1.96576,0 -3.11407,-1.32348 -1.12885,-1.323481 -1.12885,-3.853664 0,-2.51072 1.10938,-3.8342 1.10939,-1.342944 3.05569,-1.342944 0.91476,0 1.65435,0.350333 0.75905,0.350333 1.28455,0.992611 0.54497,0.642277 0.83691,1.557035 0.29194,0.895296 0.29194,2.004684 v 0.311407 h -7.51269 v 0.5255 q 0,0.914758 0.23355,1.65435 0.23356,0.739592 0.6812,1.265092 0.46712,0.5255 1.10939,0.817444 0.66174,0.272481 1.49865,0.272481 2.35502,0 3.25031,-2.257702 l 0.5255,0.291944 q -0.44765,1.167777 -1.40133,1.868443 -0.95369,0.700666 -2.37448,0.700666 z m -0.0779,-9.750936 q -0.81745,0 -1.45972,0.291944 -0.62282,0.272481 -1.07047,0.797981 -0.44764,0.525499 -0.6812,1.265091 -0.23355,0.739592 -0.23355,1.634888 v 0.07785 h 6.7731 v -0.116778 q 0,-0.895296 -0.25302,-1.615425 -0.23355,-0.739592 -0.6812,-1.245628 -0.42818,-0.5255 -1.051,-0.797981 -0.60335,-0.291944 -1.34294,-0.291944 z"
       style="font-style:normal;font-variant:normal;font-weight:200;font-stretch:normal;font-size:19.46294785px;line-height:100%;font-family:'IBM Plex Sans ExtraLight';-inkscape-font-specification:'IBM Plex Sans ExtraLight, Ultra-Light';letter-spacing:-0.41564935px;word-spacing:0px;fill:#035c6e;fill-opacity:1;stroke-width:0.50156164px"
       id="path4264" />
    <path
       d="m 341.51131,81.289364 q -1.22617,0 -2.14093,-0.447647 -0.89529,-0.447648 -1.57649,-1.401333 l 0.5255,-0.389259 q 0.66174,0.875833 1.40133,1.265092 0.75905,0.369796 1.81005,0.369796 1.32348,0 2.00469,-0.544963 0.6812,-0.544962 0.6812,-1.576498 0,-0.992611 -0.58389,-1.479184 -0.56443,-0.486574 -1.75167,-0.681204 l -0.8369,-0.13624 q -0.66174,-0.09731 -1.2067,-0.291944 -0.5255,-0.19463 -0.91476,-0.506037 -0.3698,-0.33087 -0.58389,-0.797981 -0.19463,-0.467111 -0.19463,-1.128851 0,-0.642277 0.23355,-1.128851 0.25302,-0.486574 0.68121,-0.817444 0.44765,-0.33087 1.03153,-0.486573 0.60335,-0.175167 1.28456,-0.175167 1.24563,0 2.02414,0.447648 0.77852,0.428185 1.28456,1.012073 l -0.48657,0.447648 q -0.2141,-0.253018 -0.48658,-0.486574 -0.25302,-0.233555 -0.58389,-0.408722 -0.33087,-0.194629 -0.77851,-0.291944 -0.42819,-0.116777 -0.99261,-0.116777 -1.16778,0 -1.86845,0.506036 -0.6812,0.506037 -0.6812,1.479184 0,0.992611 0.58389,1.459721 0.58389,0.447648 1.77113,0.642278 l 0.8369,0.13624 q 1.38187,0.214093 2.12146,0.85637 0.75906,0.622814 0.75906,1.887906 0,1.32348 -0.8953,2.063072 -0.89529,0.720129 -2.47179,0.720129 z"
       style="font-style:normal;font-variant:normal;font-weight:200;font-stretch:normal;font-size:19.46294785px;line-height:100%;font-family:'IBM Plex Sans ExtraLight';-inkscape-font-specification:'IBM Plex Sans ExtraLight, Ultra-Light';letter-spacing:-0.41564935px;word-spacing:0px;fill:#035c6e;fill-opacity:1;stroke-width:0.50156164px"
       id="path4266" />
    <path
       d="m 353.99473,81.055809 q -0.79798,0 -0.83691,-0.817444 v -0.720129 h -0.0779 q -0.35033,0.759055 -1.10938,1.265092 -0.75906,0.506036 -2.04361,0.506036 -1.53758,0 -2.37448,-0.739592 -0.83691,-0.739592 -0.83691,-2.082535 0,-0.642277 0.19463,-1.167777 0.19463,-0.5255 0.64228,-0.895296 0.46711,-0.389258 1.18724,-0.583888 0.73959,-0.214092 1.81005,-0.214092 h 2.58857 v -1.323481 q 0,-1.401332 -0.6812,-2.063072 -0.6812,-0.681203 -2.02415,-0.681203 -2.08253,0 -2.88051,1.751665 l -0.48658,-0.33087 q 0.40872,-0.914759 1.20671,-1.459721 0.79798,-0.564426 2.17985,-0.564426 1.65435,0 2.51072,0.85637 0.85637,0.836907 0.85637,2.413405 v 6.247607 h 1.51811 v 0.603351 z m -4.00937,-0.369796 q 0.64228,0 1.20671,-0.155704 0.58389,-0.175166 1.01207,-0.486573 0.42819,-0.311407 0.6812,-0.778518 0.25302,-0.467111 0.25302,-1.089925 v -2.024147 h -2.58857 q -1.63489,0 -2.37448,0.564426 -0.73959,0.544962 -0.73959,1.459721 v 0.544962 q 0,0.973148 0.70066,1.479184 0.72013,0.486574 1.84898,0.486574 z"
       style="font-style:normal;font-variant:normal;font-weight:200;font-stretch:normal;font-size:19.46294785px;line-height:100%;font-family:'IBM Plex Sans ExtraLight';-inkscape-font-specification:'IBM Plex Sans ExtraLight, Ultra-Light';letter-spacing:-0.41564935px;word-spacing:0px;fill:#035c6e;fill-opacity:1;stroke-width:0.50156164px"
       id="path4268" />
    <path
       d="m 357.28647,81.055809 v -9.887177 h 0.68121 v 1.518109 h 0.0584 q 0.13624,-0.350333 0.36979,-0.66174 0.25302,-0.311407 0.60335,-0.544962 0.35034,-0.253019 0.81745,-0.389259 0.48657,-0.155704 1.12885,-0.155704 1.16778,0 1.96576,0.544963 0.79798,0.525499 1.12885,1.595961 h 0.0584 q 0.27248,-0.934221 1.051,-1.537572 0.79798,-0.603352 2.14092,-0.603352 1.63489,0 2.49126,0.973148 0.85637,0.953684 0.85637,2.802664 v 6.344921 h -0.68121 v -6.247606 q 0,-1.673814 -0.70066,-2.471795 -0.70067,-0.79798 -2.102,-0.79798 -0.56443,0 -1.08993,0.155703 -0.50603,0.155704 -0.89529,0.467111 -0.38926,0.311407 -0.62282,0.797981 -0.23355,0.46711 -0.23355,1.089925 v 7.006661 h -0.6812 v -6.247606 q 0,-1.693277 -0.72013,-2.471795 -0.72013,-0.79798 -2.08254,-0.79798 -0.56442,0 -1.08992,0.155703 -0.50604,0.155704 -0.91476,0.467111 -0.38926,0.311407 -0.62282,0.778518 -0.23355,0.467111 -0.23355,1.089925 v 7.026124 z"
       style="font-style:normal;font-variant:normal;font-weight:200;font-stretch:normal;font-size:19.46294785px;line-height:100%;font-family:'IBM Plex Sans ExtraLight';-inkscape-font-specification:'IBM Plex Sans ExtraLight, Ultra-Light';letter-spacing:-0.41564935px;word-spacing:0px;fill:#035c6e;fill-opacity:1;stroke-width:0.50156164px"
       id="path4270" />
    <path
       d="m 377.38295,81.289364 q -1.96576,0 -3.11407,-1.32348 -1.12885,-1.323481 -1.12885,-3.853664 0,-2.51072 1.10939,-3.8342 1.10938,-1.342944 3.05568,-1.342944 0.91476,0 1.65435,0.350333 0.75905,0.350333 1.28455,0.992611 0.54497,0.642277 0.83691,1.557035 0.29194,0.895296 0.29194,2.004684 v 0.311407 h -7.51269 v 0.5255 q 0,0.914758 0.23355,1.65435 0.23356,0.739592 0.68121,1.265092 0.46711,0.5255 1.10938,0.817444 0.66174,0.272481 1.49865,0.272481 2.35502,0 3.25031,-2.257702 l 0.5255,0.291944 q -0.44765,1.167777 -1.40133,1.868443 -0.95368,0.700666 -2.37448,0.700666 z m -0.0779,-9.750936 q -0.81745,0 -1.45972,0.291944 -0.62282,0.272481 -1.07046,0.797981 -0.44765,0.525499 -0.68121,1.265091 -0.23355,0.739592 -0.23355,1.634888 v 0.07785 h 6.7731 v -0.116778 q 0,-0.895296 -0.25302,-1.615425 -0.23355,-0.739592 -0.6812,-1.245628 -0.42818,-0.5255 -1.051,-0.797981 -0.60335,-0.291944 -1.34294,-0.291944 z"
       style="font-style:normal;font-variant:normal;font-weight:200;font-stretch:normal;font-size:19.46294785px;line-height:100%;font-family:'IBM Plex Sans ExtraLight';-inkscape-font-specification:'IBM Plex Sans ExtraLight, Ultra-Light';letter-spacing:-0.41564935px;word-spacing:0px;fill:#035c6e;fill-opacity:1;stroke-width:0.50156164px"
       id="path4272" />
    <path
       d="m 384.01501,81.055809 v -9.887177 h 0.6812 v 1.518109 h 0.0584 q 0.29194,-0.720129 1.01207,-1.226165 0.73959,-0.5255 2.02415,-0.5255 1.63488,0 2.49125,0.973148 0.87584,0.953684 0.87584,2.802664 v 6.344921 h -0.68121 v -6.228143 q 0,-1.71274 -0.73959,-2.491258 -0.72013,-0.79798 -2.102,-0.79798 -0.56442,0 -1.10938,0.155703 -0.5255,0.155704 -0.93423,0.467111 -0.40872,0.311407 -0.66174,0.778518 -0.23355,0.467111 -0.23355,1.089925 v 7.026124 z"
       style="font-style:normal;font-variant:normal;font-weight:200;font-stretch:normal;font-size:19.46294785px;line-height:100%;font-family:'IBM Plex Sans ExtraLight';-inkscape-font-specification:'IBM Plex Sans ExtraLight, Ultra-Light';letter-spacing:-0.41564935px;word-spacing:0px;fill:#035c6e;fill-opacity:1;stroke-width:0.50156164px"
       id="path4274" />
    <path
       d="m 395.30815,81.055809 q -0.83691,0 -0.83691,-0.817444 V 66.653228 h 0.68121 v 13.79923 h 1.61542 v 0.603351 z"
       style="font-style:normal;font-variant:normal;font-weight:200;font-stretch:normal;font-size:19.46294785px;line-height:100%;font-family:'IBM Plex Sans ExtraLight';-inkscape-font-specification:'IBM Plex Sans ExtraLight, Ultra-Light';letter-spacing:-0.41564935px;word-spacing:0px;fill:#035c6e;fill-opacity:1;stroke-width:0.50156164px"
       id="path4276" />
    <path
       d="m 402.44139,81.289364 q -1.96576,0 -3.11407,-1.32348 -1.12885,-1.323481 -1.12885,-3.853664 0,-2.51072 1.10939,-3.8342 1.10938,-1.342944 3.05568,-1.342944 0.91476,0 1.65435,0.350333 0.75906,0.350333 1.28455,0.992611 0.54497,0.642277 0.83691,1.557035 0.29195,0.895296 0.29195,2.004684 v 0.311407 h -7.5127 v 0.5255 q 0,0.914758 0.23355,1.65435 0.23356,0.739592 0.68121,1.265092 0.46711,0.5255 1.10938,0.817444 0.66174,0.272481 1.49865,0.272481 2.35502,0 3.25031,-2.257702 l 0.5255,0.291944 q -0.44764,1.167777 -1.40133,1.868443 -0.95368,0.700666 -2.37448,0.700666 z m -0.0779,-9.750936 q -0.81744,0 -1.45972,0.291944 -0.62282,0.272481 -1.07046,0.797981 -0.44765,0.525499 -0.68121,1.265091 -0.23355,0.739592 -0.23355,1.634888 v 0.07785 h 6.7731 v -0.116778 q 0,-0.895296 -0.25301,-1.615425 -0.23356,-0.739592 -0.68121,-1.245628 -0.42818,-0.5255 -1.051,-0.797981 -0.60335,-0.291944 -1.34294,-0.291944 z"
       style="font-style:normal;font-variant:normal;font-weight:200;font-stretch:normal;font-size:19.46294785px;line-height:100%;font-family:'IBM Plex Sans ExtraLight';-inkscape-font-specification:'IBM Plex Sans ExtraLight, Ultra-Light';letter-spacing:-0.41564935px;word-spacing:0px;fill:#035c6e;fill-opacity:1;stroke-width:0.50156164px"
       id="path4278" />
    <path
       d="m 407.53679,71.168632 h 0.72013 l 3.3087,9.147585 h 0.0584 l 3.3087,-9.147585 h 0.6812 l -3.63957,9.887177 h -0.79798 z"
       style="font-style:normal;font-variant:normal;font-weight:200;font-stretch:normal;font-size:19.46294785px;line-height:100%;font-family:'IBM Plex Sans ExtraLight';-inkscape-font-specification:'IBM Plex Sans ExtraLight, Ultra-Light';letter-spacing:-0.41564935px;word-spacing:0px;fill:#035c6e;fill-opacity:1;stroke-width:0.50156164px"
       id="path4280" />
    <path
       d="m 417.94131,68.112949 q -0.31141,0 -0.44765,-0.136241 -0.13624,-0.155704 -0.13624,-0.369796 v -0.175166 q 0,-0.214093 0.11678,-0.350334 0.13624,-0.155703 0.44765,-0.155703 0.31141,0 0.44765,0.155703 0.13624,0.136241 0.13624,0.350334 v 0.175166 q 0,0.214092 -0.13624,0.369796 -0.11678,0.136241 -0.42819,0.136241 z m -0.35033,3.055683 h 0.6812 v 9.887177 h -0.6812 z"
       style="font-style:normal;font-variant:normal;font-weight:200;font-stretch:normal;font-size:19.46294785px;line-height:100%;font-family:'IBM Plex Sans ExtraLight';-inkscape-font-specification:'IBM Plex Sans ExtraLight, Ultra-Light';letter-spacing:-0.41564935px;word-spacing:0px;fill:#035c6e;fill-opacity:1;stroke-width:0.50156164px"
       id="path4282" />
    <path
       d="m 421.73697,81.055809 v -9.887177 h 0.68121 v 1.518109 h 0.0584 q 0.29194,-0.720129 1.01207,-1.226165 0.73959,-0.5255 2.02415,-0.5255 1.63488,0 2.49125,0.973148 0.87584,0.953684 0.87584,2.802664 v 6.344921 h -0.68121 v -6.228143 q 0,-1.71274 -0.73959,-2.491258 -0.72013,-0.79798 -2.102,-0.79798 -0.56442,0 -1.10939,0.155703 -0.52549,0.155704 -0.93422,0.467111 -0.40872,0.311407 -0.66174,0.778518 -0.23355,0.467111 -0.23355,1.089925 v 7.026124 z"
       style="font-style:normal;font-variant:normal;font-weight:200;font-stretch:normal;font-size:19.46294785px;line-height:100%;font-family:'IBM Plex Sans ExtraLight';-inkscape-font-specification:'IBM Plex Sans ExtraLight, Ultra-Light';letter-spacing:-0.41564935px;word-spacing:0px;fill:#035c6e;fill-opacity:1;stroke-width:0.50156164px"
       id="path4284" />
    <path
       d="m 440.09517,82.281975 q 0,1.498647 -1.22617,2.199313 -1.2067,0.700666 -3.48386,0.700666 -2.21878,0 -3.21139,-0.681203 -0.99261,-0.681203 -0.99261,-1.829517 0,-0.875833 0.48657,-1.440258 0.48658,-0.544963 1.36241,-0.817444 v -0.07785 q -0.99261,-0.33087 -0.99261,-1.342943 0,-0.681204 0.48657,-1.089926 0.50604,-0.408721 1.18724,-0.603351 v -0.05839 q -0.85637,-0.389259 -1.34294,-1.128851 -0.46711,-0.739592 -0.46711,-1.84898 0,-0.759055 0.23355,-1.362406 0.25302,-0.622814 0.70067,-1.050999 0.44765,-0.447648 1.08992,-0.681203 0.64228,-0.233556 1.44026,-0.233556 1.28456,0 2.102,0.583889 v -0.778518 q 0,-0.720129 0.6812,-0.720129 h 1.88791 v 0.603351 h -2.102 v 1.245629 q 0.44765,0.447647 0.68121,1.050999 0.25301,0.603351 0.25301,1.342943 0,0.739592 -0.25301,1.362407 -0.25302,0.603351 -0.72013,1.050999 -0.44765,0.428185 -1.08993,0.681203 -0.64228,0.233555 -1.42079,0.233555 -0.29195,0 -0.54497,-0.03893 -0.25301,-0.03892 -0.5255,-0.09731 -0.79798,0.214092 -1.22616,0.564425 -0.42819,0.350333 -0.42819,0.875833 0,0.408722 0.35034,0.720129 0.35033,0.291944 1.30401,0.291944 h 2.51072 q 1.73221,0 2.49126,0.642277 0.77852,0.622815 0.77852,1.732203 z m -0.6812,0.03893 q 0,-0.836907 -0.58389,-1.304018 -0.56443,-0.467111 -2.04361,-0.467111 h -3.09461 q -0.81744,0.214093 -1.32348,0.700666 -0.50604,0.506037 -0.50604,1.342944 0,0.875833 0.77852,1.420795 0.77852,0.564426 2.19931,0.564426 h 1.07047 q 0.77851,0 1.42079,-0.136241 0.64228,-0.136241 1.10939,-0.408722 0.46711,-0.272481 0.72013,-0.700666 0.25302,-0.428185 0.25302,-1.012073 z m -4.02883,-5.332848 q 1.28455,0 2.00468,-0.66174 0.72013,-0.661741 0.72013,-1.71274 v -0.700666 q 0,-1.050999 -0.72013,-1.712739 -0.72013,-0.66174 -2.00468,-0.66174 -1.30402,0 -2.02415,0.66174 -0.70067,0.66174 -0.70067,1.712739 v 0.700666 q 0,1.050999 0.72013,1.71274 0.72013,0.66174 2.00469,0.66174 z"
       style="font-style:normal;font-variant:normal;font-weight:200;font-stretch:normal;font-size:19.46294785px;line-height:100%;font-family:'IBM Plex Sans ExtraLight';-inkscape-font-specification:'IBM Plex Sans ExtraLight, Ultra-Light';letter-spacing:-0.41564935px;word-spacing:0px;fill:#035c6e;fill-opacity:1;stroke-width:0.50156164px"
       id="path4286" />
  </g>
</svg>
