<?xml version="1.0" encoding="UTF-8" standalone="no"?>
<svg
   xmlns:dc="http://purl.org/dc/elements/1.1/"
   xmlns:cc="http://creativecommons.org/ns#"
   xmlns:rdf="http://www.w3.org/1999/02/22-rdf-syntax-ns#"
   xmlns:svg="http://www.w3.org/2000/svg"
   xmlns="http://www.w3.org/2000/svg"
   xmlns:sodipodi="http://sodipodi.sourceforge.net/DTD/sodipodi-0.dtd"
   xmlns:inkscape="http://www.inkscape.org/namespaces/inkscape"
   id="Layer_1"
   data-name="Layer 1"
   viewBox="0 0 427.43299 61.565381"
   version="1.1"
   sodipodi:docname="logo-open-state-foundation.svg"
   width="427.43298"
   height="61.56538"
   inkscape:version="0.92.3 (2405546, 2018-03-11)">
  <metadata
     id="metadata21">
    <rdf:RDF>
      <cc:Work
         rdf:about="">
        <dc:format>image/svg+xml</dc:format>
        <dc:type
           rdf:resource="http://purl.org/dc/dcmitype/StillImage" />
        <dc:title></dc:title>
      </cc:Work>
    </rdf:RDF>
  </metadata>
  <sodipodi:namedview
     pagecolor="#ffffff"
     bordercolor="#666666"
     borderopacity="1"
     objecttolerance="10"
     gridtolerance="10"
     guidetolerance="10"
     inkscape:pageopacity="0"
     inkscape:pageshadow="2"
     inkscape:window-width="1920"
     inkscape:window-height="1056"
     id="namedview19"
     showgrid="false"
     fit-margin-top="0"
     fit-margin-left="0"
     fit-margin-right="0"
     fit-margin-bottom="0"
     inkscape:zoom="2.1547427"
     inkscape:cx="148.73635"
     inkscape:cy="84.079581"
     inkscape:window-x="0"
     inkscape:window-y="24"
     inkscape:window-maximized="1"
     inkscape:current-layer="Layer_1" />
  <defs
     id="defs4">
    <style
       id="style2">.cls-2{fill:#035c6e}.cls-3{fill:#91d6e6}</style>
  </defs>
  <path
     class="cls-2"
     d="m 98.77269,17.61269 -37.26,37.26 a 26.39,26.39 0 0 0 37.26,-37.26"
     id="path8"
     inkscape:connector-curvature="0"
     style="fill:#035c6e" />
  <path
     class="cls-3"
     d="m 105.53269,6.6926903 -37.26,37.2599997 a 26.39,26.39 0 0 1 37.26,-37.2599997"
     id="path10"
     inkscape:connector-curvature="0"
     style="fill:#91d6e6" />
  <path
     class="cls-2"
     d="m 46.03269,17.61269 -37.2599997,37.26 a 26.39,26.39 0 0 0 37.2599997,-37.26"
     id="path12"
     inkscape:connector-curvature="0"
     style="fill:#035c6e" />
  <path
     class="cls-3"
     d="m 43.95269,15.53269 -37.2599997,37.26 a 26.39,26.39 0 0 1 37.2599997,-37.26"
     id="path14"
     inkscape:connector-curvature="0"
     style="fill:#91d6e6" />
  <path
     class="cls-2"
     d="m 127.18269,56.88269 a 4.75,4.75 0 0 1 -3.93,-1.74 8.27,8.27 0 0 1 -1.4,-5.22 8.23,8.23 0 0 1 1.4,-5.22 5.29,5.29 0 0 1 7.86,0 8.23,8.23 0 0 1 1.39,5.22 8.27,8.27 0 0 1 -1.39,5.22 4.78,4.78 0 0 1 -3.93,1.74 z m 0,-0.63 a 4.12,4.12 0 0 0 3.33,-1.47 6.58,6.58 0 0 0 1.18,-4.28 v -1.16 a 6.59,6.59 0 0 0 -1.22,-4.29 4.53,4.53 0 0 0 -6.66,0 6.53,6.53 0 0 0 -1.23,4.29 v 1.16 a 6.52,6.52 0 0 0 1.23,4.28 4.1,4.1 0 0 0 3.37,1.47 z m 8.51,-9.4 h 0.68 v 1.52 h 0.05 a 3,3 0 0 1 1.1,-1.23 3.53,3.53 0 0 1 2,-0.52 3.65,3.65 0 0 1 3,1.3 5.87,5.87 0 0 1 1.07,3.83 5.87,5.87 0 0 1 -1.07,3.83 3.65,3.65 0 0 1 -3,1.3 3.53,3.53 0 0 1 -2,-0.52 3.16,3.16 0 0 1 -1.1,-1.22 h -0.05 v 5.37 h -0.68 z m 3.74,9.43 a 3.13,3.13 0 0 0 2.54,-1.06 4.34,4.34 0 0 0 0.9,-2.9 v -1.12 a 4.37,4.37 0 0 0 -0.9,-2.91 3.11,3.11 0 0 0 -2.54,-1.08 3.77,3.77 0 0 0 -1.17,0.19 3.23,3.23 0 0 0 -1,0.5 2.44,2.44 0 0 0 -0.66,0.77 2,2 0 0 0 -0.25,1 v 4.14 a 2,2 0 0 0 0.25,1 2.51,2.51 0 0 0 0.66,0.79 2.84,2.84 0 0 0 1,0.5 3.76,3.76 0 0 0 1.13,0.18 z m 10.62,0.6 a 3.83,3.83 0 0 1 -3.08,-1.31 5.71,5.71 0 0 1 -1.13,-3.82 5.83,5.83 0 0 1 1.1,-3.81 3.72,3.72 0 0 1 3,-1.32 3.84,3.84 0 0 1 1.65,0.34 3.62,3.62 0 0 1 1.27,1 4.32,4.32 0 0 1 0.82,1.53 6.32,6.32 0 0 1 0.29,2 v 0.31 h -7.45 v 0.52 a 5.28,5.28 0 0 0 0.24,1.64 3.35,3.35 0 0 0 0.68,1.25 3.06,3.06 0 0 0 1.1,0.81 3.79,3.79 0 0 0 1.48,0.27 3.22,3.22 0 0 0 3.22,-2.23 l 0.52,0.29 a 4,4 0 0 1 -1.39,1.85 3.87,3.87 0 0 1 -2.32,0.68 z m -0.08,-9.67 a 3.62,3.62 0 0 0 -1.44,0.28 3,3 0 0 0 -1.07,0.81 3.48,3.48 0 0 0 -0.67,1.25 5.2,5.2 0 0 0 -0.24,1.62 v 0.08 h 6.72 v -0.12 a 5.09,5.09 0 0 0 -0.24,-1.61 3.66,3.66 0 0 0 -0.68,-1.23 3,3 0 0 0 -1,-0.8 3.24,3.24 0 0 0 -1.38,-0.28 z m 6.83,9.44 v -9.8 h 0.68 v 1.5 h 0.06 a 2.78,2.78 0 0 1 1,-1.22 3.42,3.42 0 0 1 2,-0.51 3.16,3.16 0 0 1 2.48,1 4.07,4.07 0 0 1 0.86,2.79 v 6.29 h -0.68 v -6.22 a 3.57,3.57 0 0 0 -0.72,-2.48 2.74,2.74 0 0 0 -2.1,-0.79 4,4 0 0 0 -1.09,0.16 2.89,2.89 0 0 0 -0.93,0.46 2.41,2.41 0 0 0 -0.65,0.77 2.32,2.32 0 0 0 -0.24,1.08 v 7 z m 21.89,-1.51 a 3.16,3.16 0 0 1 -1.1,1.22 3.51,3.51 0 0 1 -2,0.52 3.66,3.66 0 0 1 -3,-1.3 5.93,5.93 0 0 1 -1.07,-3.83 5.93,5.93 0 0 1 1.07,-3.83 3.66,3.66 0 0 1 3,-1.3 3.51,3.51 0 0 1 2,0.52 3,3 0 0 1 1.1,1.23 v -6 h 0.67 v 14.28 h -0.67 z m -3,1.14 a 3.87,3.87 0 0 0 1.18,-0.17 2.88,2.88 0 0 0 1,-0.5 2.54,2.54 0 0 0 0.67,-0.79 2.13,2.13 0 0 0 0.25,-1 v -4.15 a 2.15,2.15 0 0 0 -0.25,-1 2.47,2.47 0 0 0 -0.67,-0.77 3.29,3.29 0 0 0 -1,-0.5 3.89,3.89 0 0 0 -1.18,-0.19 3.11,3.11 0 0 0 -2.54,1.08 4.37,4.37 0 0 0 -0.9,2.91 v 1.12 a 4.34,4.34 0 0 0 0.9,2.9 3.13,3.13 0 0 0 2.54,1.06 z m 13.67,0.37 a 0.75,0.75 0 0 1 -0.83,-0.81 v -0.71 h -0.08 a 2.92,2.92 0 0 1 -1.1,1.25 3.53,3.53 0 0 1 -2,0.5 3.46,3.46 0 0 1 -2.36,-0.73 2.63,2.63 0 0 1 -0.83,-2.07 3.23,3.23 0 0 1 0.2,-1.15 2,2 0 0 1 0.64,-0.9 3.26,3.26 0 0 1 1.18,-0.58 6.93,6.93 0 0 1 1.78,-0.2 h 2.57 v -1.31 a 2.38,2.38 0 0 0 -2.68,-2.73 2.87,2.87 0 0 0 -2.86,1.74 l -0.48,-0.33 a 3.41,3.41 0 0 1 1.2,-1.45 3.67,3.67 0 0 1 2.16,-0.55 3.41,3.41 0 0 1 2.49,0.84 3.25,3.25 0 0 1 0.85,2.4 v 6.19 h 1.48 v 0.6 z m -4,-0.37 a 4.32,4.32 0 0 0 1.21,-0.16 3.42,3.42 0 0 0 1,-0.47 2.36,2.36 0 0 0 0.67,-0.77 2.21,2.21 0 0 0 0.25,-1.08 v -2 h -2.57 a 3.93,3.93 0 0 0 -2.35,0.55 1.72,1.72 0 0 0 -0.73,1.46 v 0.54 a 1.64,1.64 0 0 0 0.7,1.45 3.1,3.1 0 0 0 1.84,0.48 z m 8.69,0.37 a 0.73,0.73 0 0 1 -0.83,-0.81 v -8.41 h -1.78 v -0.6 h 1.25 a 0.52,0.52 0 0 0 0.43,-0.14 0.75,0.75 0 0 0 0.11,-0.46 v -2.16 h 0.64 v 2.78 h 2.29 v 0.58 h -2.29 v 8.6 h 2.14 v 0.6 z m 11.19,0 a 0.75,0.75 0 0 1 -0.83,-0.81 v -0.71 h -0.07 a 3,3 0 0 1 -1.1,1.25 3.59,3.59 0 0 1 -2,0.5 3.41,3.41 0 0 1 -2.35,-0.73 2.6,2.6 0 0 1 -0.83,-2.07 3.23,3.23 0 0 1 0.19,-1.15 2,2 0 0 1 0.65,-0.9 3.2,3.2 0 0 1 1.17,-0.58 7,7 0 0 1 1.79,-0.2 h 2.57 v -1.31 a 2.39,2.39 0 0 0 -2.74,-2.73 2.86,2.86 0 0 0 -2.85,1.74 l -0.49,-0.33 a 3.41,3.41 0 0 1 1.2,-1.45 3.72,3.72 0 0 1 2.16,-0.55 3.41,3.41 0 0 1 2.49,0.84 3.21,3.21 0 0 1 0.85,2.4 v 6.19 h 1.51 v 0.6 z m -4,-0.37 a 4.29,4.29 0 0 0 1.2,-0.16 3.3,3.3 0 0 0 1,-0.47 2.25,2.25 0 0 0 0.67,-0.77 2.21,2.21 0 0 0 0.26,-1.08 v -2 h -2.57 a 4,4 0 0 0 -2.36,0.55 1.72,1.72 0 0 0 -0.73,1.46 v 0.54 a 1.64,1.64 0 0 0 0.7,1.45 3.12,3.12 0 0 0 1.86,0.48 z m 10.93,-9.43 h 0.72 l 3.28,9.07 h 0.06 l 3.28,-9.07 h 0.67 l -3.61,9.8 h -0.79 z m 13.52,10.03 a 3.76,3.76 0 0 1 -3,-1.31 5.76,5.76 0 0 1 -1.11,-3.82 5.76,5.76 0 0 1 1.11,-3.83 4.2,4.2 0 0 1 6.08,0 5.76,5.76 0 0 1 1.11,3.83 5.76,5.76 0 0 1 -1.11,3.82 3.75,3.75 0 0 1 -3.08,1.31 z m 0,-0.6 a 3.07,3.07 0 0 0 2.53,-1.07 4.47,4.47 0 0 0 0.89,-2.94 v -1 a 4.46,4.46 0 0 0 -0.89,-3 3.53,3.53 0 0 0 -5.06,0 4.46,4.46 0 0 0 -0.88,3 v 1 a 4.47,4.47 0 0 0 0.88,2.94 3.1,3.1 0 0 0 2.53,1.07 z m 10.55,0.6 a 3.75,3.75 0 0 1 -3,-1.31 5.76,5.76 0 0 1 -1.11,-3.82 5.76,5.76 0 0 1 1.11,-3.83 4.2,4.2 0 0 1 6.08,0 5.76,5.76 0 0 1 1.11,3.83 5.76,5.76 0 0 1 -1.11,3.82 3.75,3.75 0 0 1 -3.08,1.31 z m 0,-0.6 a 3.09,3.09 0 0 0 2.53,-1.07 4.47,4.47 0 0 0 0.89,-2.94 v -1 a 4.46,4.46 0 0 0 -0.89,-3 3.53,3.53 0 0 0 -5.06,0 4.46,4.46 0 0 0 -0.89,3 v 1 a 4.47,4.47 0 0 0 0.89,2.94 3.09,3.09 0 0 0 2.53,1.07 z m 7.01,0.37 v -9.8 h 0.67 v 1.72 h 0.08 a 3,3 0 0 1 1,-1.21 3.35,3.35 0 0 1 2,-0.51 h 0.73 v 0.63 h -0.85 a 4.24,4.24 0 0 0 -1.14,0.16 2.84,2.84 0 0 0 -0.94,0.46 2.37,2.37 0 0 0 -0.65,0.76 2.27,2.27 0 0 0 -0.24,1.06 v 6.73 z m 17.83,-1.51 h -0.06 a 3.16,3.16 0 0 1 -1.1,1.22 3.49,3.49 0 0 1 -2,0.52 3.68,3.68 0 0 1 -3,-1.3 5.93,5.93 0 0 1 -1.07,-3.83 5.93,5.93 0 0 1 1.07,-3.83 3.68,3.68 0 0 1 3,-1.3 3.49,3.49 0 0 1 2,0.52 3,3 0 0 1 1.1,1.23 h 0.06 v -6 h 0.67 v 14.28 h -0.67 z m -3.07,1.14 a 3.87,3.87 0 0 0 1.18,-0.17 2.88,2.88 0 0 0 1,-0.5 2.54,2.54 0 0 0 0.67,-0.79 2.13,2.13 0 0 0 0.25,-1 v -4.15 a 2.15,2.15 0 0 0 -0.25,-1 2.47,2.47 0 0 0 -0.67,-0.77 3.29,3.29 0 0 0 -1,-0.5 3.89,3.89 0 0 0 -1.18,-0.19 3.13,3.13 0 0 0 -2.54,1.08 4.37,4.37 0 0 0 -0.9,2.91 v 1.12 a 4.34,4.34 0 0 0 0.9,2.9 3.14,3.14 0 0 0 2.54,1.06 z m 7.56,-12.46 a 0.57,0.57 0 0 1 -0.44,-0.15 0.48,0.48 0 0 1 -0.13,-0.35 v -0.18 a 0.56,0.56 0 0 1 0.12,-0.36 0.58,0.58 0 0 1 0.44,-0.14 0.61,0.61 0 0 1 0.44,0.14 0.52,0.52 0 0 1 0.13,0.36 v 0.18 a 0.51,0.51 0 0 1 -0.12,0.35 0.54,0.54 0 0 1 -0.44,0.15 z m -0.34,3 h 0.67 v 9.8 h -0.67 z m 11.98,11.05 a 2.34,2.34 0 0 1 -1.2,2.18 7.1,7.1 0 0 1 -3.47,0.69 5.74,5.74 0 0 1 -3.18,-0.67 2.1,2.1 0 0 1 -1,-1.82 2,2 0 0 1 0.49,-1.41 2.84,2.84 0 0 1 1.35,-0.82 v -0.08 a 1.3,1.3 0 0 1 -1,-1.33 1.35,1.35 0 0 1 0.49,-1.08 3.25,3.25 0 0 1 1.17,-0.6 v -0.06 a 3.08,3.08 0 0 1 -1.32,-1.12 3.28,3.28 0 0 1 -0.47,-1.83 3.62,3.62 0 0 1 0.24,-1.36 3,3 0 0 1 0.68,-1 3,3 0 0 1 1.08,-0.66 4,4 0 0 1 1.43,-0.23 3.49,3.49 0 0 1 2.09,0.58 v -0.82 c 0,-0.47 0.22,-0.71 0.67,-0.71 h 1.87 v 0.6 h -2.08 v 1.23 a 3.12,3.12 0 0 1 0.68,1 3.4,3.4 0 0 1 0.25,1.34 3.44,3.44 0 0 1 -0.26,1.34 3,3 0 0 1 -0.7,1 3.1,3.1 0 0 1 -1.09,0.68 3.93,3.93 0 0 1 -1.41,0.24 4.56,4.56 0 0 1 -0.54,0 l -0.52,-0.1 a 3.3,3.3 0 0 0 -1.22,0.56 1.08,1.08 0 0 0 -0.42,0.87 0.89,0.89 0 0 0 0.35,0.7 2,2 0 0 0 1.29,0.3 h 2.49 a 3.91,3.91 0 0 1 2.48,0.63 2.11,2.11 0 0 1 0.78,1.76 z m -0.67,0 a 1.58,1.58 0 0 0 -0.57,-1.3 3.33,3.33 0 0 0 -2,-0.46 h -3.07 a 2.81,2.81 0 0 0 -1.31,0.71 1.76,1.76 0 0 0 -0.5,1.32 1.69,1.69 0 0 0 0.77,1.42 3.75,3.75 0 0 0 2.18,0.55 h 1.06 a 6.73,6.73 0 0 0 1.41,-0.14 3.94,3.94 0 0 0 1.1,-0.4 2.1,2.1 0 0 0 0.72,-0.7 2,2 0 0 0 0.21,-0.96 z m -4,-5.29 a 2.83,2.83 0 0 0 2,-0.66 2.2,2.2 0 0 0 0.71,-1.7 v -0.69 a 2.22,2.22 0 0 0 -0.71,-1.7 3.35,3.35 0 0 0 -4,0 2.21,2.21 0 0 0 -0.7,1.7 v 0.69 a 2.2,2.2 0 0 0 0.71,1.7 2.83,2.83 0 0 0 1.99,0.7 z m 7.28,-8.76 a 0.58,0.58 0 0 1 -0.45,-0.15 0.48,0.48 0 0 1 -0.13,-0.35 v -0.18 a 0.56,0.56 0 0 1 0.12,-0.36 0.59,0.59 0 0 1 0.44,-0.14 0.61,0.61 0 0 1 0.44,0.14 0.52,0.52 0 0 1 0.14,0.36 v 0.18 a 0.48,0.48 0 0 1 -0.13,0.35 0.53,0.53 0 0 1 -0.43,0.15 z m -0.35,3 h 0.68 v 9.8 h -0.68 z m 5.67,9.83 a 0.73,0.73 0 0 1 -0.83,-0.81 v -8.41 h -1.77 v -0.6 h 1.27 a 0.55,0.55 0 0 0 0.44,-0.14 0.76,0.76 0 0 0 0.1,-0.46 v -2.16 h 0.64 v 2.78 h 2.3 v 0.58 h -2.3 v 8.6 h 2.14 v 0.6 z m 11.2,0 a 0.74,0.74 0 0 1 -0.83,-0.81 v -0.71 h -0.08 a 3,3 0 0 1 -1.1,1.25 3.57,3.57 0 0 1 -2,0.5 3.43,3.43 0 0 1 -2.35,-0.73 2.63,2.63 0 0 1 -0.83,-2.07 3.23,3.23 0 0 1 0.19,-1.15 2.13,2.13 0 0 1 0.65,-0.9 3.18,3.18 0 0 1 1.18,-0.58 6.88,6.88 0 0 1 1.78,-0.2 h 2.57 v -1.31 a 2.39,2.39 0 0 0 -2.68,-2.73 2.87,2.87 0 0 0 -2.86,1.74 l -0.48,-0.33 a 3.46,3.46 0 0 1 1.19,-1.45 3.73,3.73 0 0 1 2.17,-0.55 3.37,3.37 0 0 1 2.48,0.84 3.21,3.21 0 0 1 0.85,2.4 v 6.19 h 1.5 v 0.6 z m -4,-0.37 a 4.32,4.32 0 0 0 1.21,-0.16 3.24,3.24 0 0 0 1,-0.47 2.28,2.28 0 0 0 0.68,-0.77 2.21,2.21 0 0 0 0.25,-1.08 v -2 h -2.57 a 3.93,3.93 0 0 0 -2.35,0.55 1.73,1.73 0 0 0 -0.74,1.46 v 0.54 a 1.65,1.65 0 0 0 0.71,1.45 3.1,3.1 0 0 0 1.83,0.48 z m 8.49,0.37 a 0.73,0.73 0 0 1 -0.83,-0.81 v -13.47 h 0.69 v 13.68 h 1.6 v 0.6 z m 7.11,0.23 a 3.83,3.83 0 0 1 -3.08,-1.31 5.71,5.71 0 0 1 -1.17,-3.82 5.83,5.83 0 0 1 1.1,-3.81 3.72,3.72 0 0 1 3,-1.32 3.9,3.9 0 0 1 1.65,0.34 3.62,3.62 0 0 1 1.27,1 4.32,4.32 0 0 1 0.82,1.53 6.32,6.32 0 0 1 0.29,2 v 0.31 h -7.45 v 0.52 a 5.28,5.28 0 0 0 0.24,1.64 3.35,3.35 0 0 0 0.68,1.25 3.06,3.06 0 0 0 1.1,0.81 3.79,3.79 0 0 0 1.48,0.27 3.22,3.22 0 0 0 3.22,-2.23 l 0.52,0.29 a 4,4 0 0 1 -1.39,1.85 3.87,3.87 0 0 1 -2.28,0.68 z m -0.08,-9.67 a 3.62,3.62 0 0 0 -1.44,0.28 3,3 0 0 0 -1.07,0.81 3.34,3.34 0 0 0 -0.67,1.25 5.2,5.2 0 0 0 -0.24,1.62 v 0.08 h 6.72 v -0.12 a 5.09,5.09 0 0 0 -0.24,-1.61 3.66,3.66 0 0 0 -0.68,-1.23 3,3 0 0 0 -1,-0.8 3.24,3.24 0 0 0 -1.38,-0.28 z m 13.07,9.44 a 0.72,0.72 0 0 1 -0.83,-0.81 v -8.41 h -1.78 v -0.6 h 1.27 a 0.55,0.55 0 0 0 0.44,-0.14 0.76,0.76 0 0 0 0.1,-0.46 v -2.16 h 0.64 v 2.78 h 2.3 v 0.58 h -2.3 v 8.6 h 2.14 v 0.6 z m 4.68,0 v -9.8 h 0.68 v 1.72 h 0.08 a 3,3 0 0 1 1,-1.21 3.35,3.35 0 0 1 2,-0.51 h 0.73 v 0.63 h -0.85 a 4.24,4.24 0 0 0 -1.14,0.16 2.84,2.84 0 0 0 -0.94,0.46 2.37,2.37 0 0 0 -0.65,0.76 2.27,2.27 0 0 0 -0.24,1.06 v 6.73 z m 13.08,0 a 0.75,0.75 0 0 1 -0.83,-0.81 v -0.71 h -0.08 a 3,3 0 0 1 -1.09,1.3 3.53,3.53 0 0 1 -2,0.5 3.46,3.46 0 0 1 -2.36,-0.73 2.63,2.63 0 0 1 -0.83,-2.07 3.23,3.23 0 0 1 0.2,-1.15 2,2 0 0 1 0.64,-0.9 3.26,3.26 0 0 1 1.18,-0.58 6.93,6.93 0 0 1 1.78,-0.2 h 2.57 v -1.36 a 2.38,2.38 0 0 0 -2.68,-2.73 2.87,2.87 0 0 0 -2.86,1.74 l -0.48,-0.33 a 3.41,3.41 0 0 1 1.2,-1.45 3.67,3.67 0 0 1 2.16,-0.55 3.41,3.41 0 0 1 2.48,0.81 3.25,3.25 0 0 1 0.85,2.4 v 6.19 h 1.5 v 0.6 z m -4,-0.37 a 4.29,4.29 0 0 0 1.2,-0.16 3.42,3.42 0 0 0 1,-0.47 2.36,2.36 0 0 0 0.67,-0.77 2.21,2.21 0 0 0 0.25,-1.08 v -2 h -2.57 a 3.93,3.93 0 0 0 -2.35,0.55 1.72,1.72 0 0 0 -0.73,1.46 v 0.54 a 1.64,1.64 0 0 0 0.7,1.45 3.12,3.12 0 0 0 1.83,0.48 z m 7.68,0.37 v -9.8 h 0.67 v 1.5 h 0.06 a 2.78,2.78 0 0 1 1,-1.22 3.44,3.44 0 0 1 2,-0.51 3.15,3.15 0 0 1 2.48,1 4.07,4.07 0 0 1 0.86,2.79 v 6.29 h -0.68 v -6.22 a 3.57,3.57 0 0 0 -0.72,-2.48 2.71,2.71 0 0 0 -2.09,-0.79 3.94,3.94 0 0 0 -1.09,0.16 2.84,2.84 0 0 0 -0.94,0.46 2.41,2.41 0 0 0 -0.65,0.77 2.32,2.32 0 0 0 -0.24,1.08 v 7 z m 13.24,0.23 a 4.7,4.7 0 0 1 -2.12,-0.45 4.37,4.37 0 0 1 -1.57,-1.39 l 0.52,-0.39 a 4.23,4.23 0 0 0 1.4,1.25 3.94,3.94 0 0 0 1.79,0.37 3.06,3.06 0 0 0 2,-0.54 1.88,1.88 0 0 0 0.68,-1.56 1.84,1.84 0 0 0 -0.57,-1.47 3.62,3.62 0 0 0 -1.75,-0.67 l -0.83,-0.14 a 5.66,5.66 0 0 1 -1.18,-0.29 2.6,2.6 0 0 1 -0.91,-0.51 2.16,2.16 0 0 1 -0.58,-0.78 2.88,2.88 0 0 1 -0.2,-1.12 2.49,2.49 0 0 1 0.24,-1.12 2.31,2.31 0 0 1 0.68,-0.81 2.85,2.85 0 0 1 1,-0.49 4.63,4.63 0 0 1 1.26,-0.16 4.08,4.08 0 0 1 2,0.43 4.84,4.84 0 0 1 1.27,1 l -0.48,0.45 a 4.25,4.25 0 0 0 -0.47,-0.48 3.14,3.14 0 0 0 -0.59,-0.42 3.09,3.09 0 0 0 -0.76,-0.29 4.25,4.25 0 0 0 -1,-0.11 3,3 0 0 0 -1.84,0.51 1.69,1.69 0 0 0 -0.69,1.46 1.73,1.73 0 0 0 0.58,1.44 3.93,3.93 0 0 0 1.76,0.65 l 0.83,0.13 a 4.18,4.18 0 0 1 2.11,0.84 2.32,2.32 0 0 1 0.75,1.88 2.48,2.48 0 0 1 -0.89,2 3.78,3.78 0 0 1 -2.44,0.78 z m 6.08,-10.03 h 0.67 v 1.52 h 0.06 a 3,3 0 0 1 1.1,-1.23 3.51,3.51 0 0 1 2,-0.52 3.68,3.68 0 0 1 3,1.3 5.93,5.93 0 0 1 1.07,3.83 5.93,5.93 0 0 1 -1.07,3.83 3.68,3.68 0 0 1 -3,1.3 3.51,3.51 0 0 1 -2,-0.52 3.16,3.16 0 0 1 -1.1,-1.22 h -0.06 v 5.37 h -0.67 z m 3.74,9.43 a 3.14,3.14 0 0 0 2.54,-1.06 4.34,4.34 0 0 0 0.9,-2.9 v -1.12 a 4.37,4.37 0 0 0 -0.9,-2.91 3.13,3.13 0 0 0 -2.54,-1.08 3.89,3.89 0 0 0 -1.18,0.19 3.29,3.29 0 0 0 -1,0.5 2.47,2.47 0 0 0 -0.67,0.77 2.15,2.15 0 0 0 -0.25,1 v 4.14 a 2.13,2.13 0 0 0 0.25,1 2.54,2.54 0 0 0 0.67,0.79 2.88,2.88 0 0 0 1,0.5 3.87,3.87 0 0 0 1.16,0.18 z m 13.55,0.37 a 0.74,0.74 0 0 1 -0.83,-0.81 v -0.71 h -0.08 a 3,3 0 0 1 -1.1,1.25 3.57,3.57 0 0 1 -2,0.5 3.43,3.43 0 0 1 -2.35,-0.73 2.63,2.63 0 0 1 -0.83,-2.07 3.23,3.23 0 0 1 0.19,-1.15 2.13,2.13 0 0 1 0.65,-0.9 3.18,3.18 0 0 1 1.18,-0.58 6.88,6.88 0 0 1 1.78,-0.2 h 2.57 v -1.31 a 2.39,2.39 0 0 0 -2.68,-2.73 2.87,2.87 0 0 0 -2.86,1.74 l -0.48,-0.33 a 3.46,3.46 0 0 1 1.19,-1.45 3.73,3.73 0 0 1 2.17,-0.55 3.37,3.37 0 0 1 2.48,0.84 3.21,3.21 0 0 1 0.85,2.4 v 6.19 h 1.51 v 0.6 z m -4,-0.37 a 4.32,4.32 0 0 0 1.21,-0.16 3.24,3.24 0 0 0 1,-0.47 2.39,2.39 0 0 0 0.68,-0.77 2.21,2.21 0 0 0 0.25,-1.08 v -2 h -2.57 a 3.93,3.93 0 0 0 -2.35,0.55 1.73,1.73 0 0 0 -0.74,1.46 v 0.54 a 1.65,1.65 0 0 0 0.71,1.45 3.1,3.1 0 0 0 1.83,0.48 z m 7.71,0.37 v -9.8 h 0.67 v 1.72 h 0.08 a 3,3 0 0 1 1,-1.21 3.35,3.35 0 0 1 2,-0.51 h 0.73 v 0.63 h -0.85 a 4.24,4.24 0 0 0 -1.14,0.16 2.84,2.84 0 0 0 -0.94,0.46 2.37,2.37 0 0 0 -0.65,0.76 2.27,2.27 0 0 0 -0.24,1.06 v 6.73 z m 13,0 a 0.75,0.75 0 0 1 -0.83,-0.81 v -0.71 h -0.08 a 3,3 0 0 1 -1.09,1.3 3.53,3.53 0 0 1 -2,0.5 3.46,3.46 0 0 1 -2.36,-0.73 2.63,2.63 0 0 1 -0.83,-2.07 3.47,3.47 0 0 1 0.19,-1.2 2.13,2.13 0 0 1 0.65,-0.9 3.26,3.26 0 0 1 1.18,-0.58 6.93,6.93 0 0 1 1.78,-0.2 h 2.57 v -1.31 a 2.38,2.38 0 0 0 -2.68,-2.73 2.87,2.87 0 0 0 -2.86,1.74 l -0.48,-0.33 a 3.41,3.41 0 0 1 1.2,-1.45 3.67,3.67 0 0 1 2.16,-0.55 3.41,3.41 0 0 1 2.48,0.81 3.25,3.25 0 0 1 0.85,2.4 v 6.19 h 1.5 v 0.6 z m -4,-0.37 a 4.32,4.32 0 0 0 1.21,-0.16 3.24,3.24 0 0 0 1,-0.47 2.28,2.28 0 0 0 0.68,-0.77 2.21,2.21 0 0 0 0.25,-1.08 v -2 h -2.57 a 3.93,3.93 0 0 0 -2.35,0.55 1.72,1.72 0 0 0 -0.73,1.46 v 0.54 a 1.64,1.64 0 0 0 0.7,1.45 3.1,3.1 0 0 0 1.87,0.48 z m 7.71,0.37 v -9.8 h 0.67 v 1.5 h 0.06 a 2.78,2.78 0 0 1 1,-1.22 3.44,3.44 0 0 1 2,-0.51 3.15,3.15 0 0 1 2.48,1 4.07,4.07 0 0 1 0.86,2.79 v 6.29 h -0.67 v -6.22 a 3.57,3.57 0 0 0 -0.73,-2.48 2.71,2.71 0 0 0 -2.09,-0.79 3.94,3.94 0 0 0 -1.09,0.16 2.84,2.84 0 0 0 -0.94,0.46 2.54,2.54 0 0 0 -0.65,0.77 2.32,2.32 0 0 0 -0.24,1.08 v 7 z m 11.67,0 a 0.73,0.73 0 0 1 -0.83,-0.81 v -8.41 h -1.77 v -0.6 h 1.27 a 0.55,0.55 0 0 0 0.44,-0.14 0.76,0.76 0 0 0 0.1,-0.46 v -2.16 h 0.64 v 2.78 h 2.3 v 0.58 h -2.3 v 8.6 h 2.14 v 0.6 z m 5.04,-12.83 a 0.56,0.56 0 0 1 -0.44,-0.15 0.48,0.48 0 0 1 -0.14,-0.35 v -0.18 a 0.52,0.52 0 0 1 0.13,-0.36 0.57,0.57 0 0 1 0.43,-0.14 0.62,0.62 0 0 1 0.45,0.14 0.52,0.52 0 0 1 0.13,0.36 v 0.18 a 0.51,0.51 0 0 1 -0.12,0.35 0.56,0.56 0 0 1 -0.44,0.15 z m -0.35,3 h 0.68 v 9.8 h -0.68 z m 7.74,10.06 a 3.84,3.84 0 0 1 -3.08,-1.31 5.71,5.71 0 0 1 -1.12,-3.82 5.77,5.77 0 0 1 1.1,-3.81 3.72,3.72 0 0 1 3,-1.32 3.9,3.9 0 0 1 1.65,0.34 3.8,3.8 0 0 1 1.27,1 4.48,4.48 0 0 1 0.82,1.53 6.62,6.62 0 0 1 0.29,2 v 0.31 h -7.45 v 0.52 a 5.6,5.6 0 0 0 0.23,1.64 3.37,3.37 0 0 0 0.69,1.25 3,3 0 0 0 1.1,0.81 3.78,3.78 0 0 0 1.47,0.27 3.23,3.23 0 0 0 3.22,-2.24 l 0.52,0.29 a 4,4 0 0 1 -1.39,1.85 3.9,3.9 0 0 1 -2.32,0.69 z m -0.07,-9.67 a 3.56,3.56 0 0 0 -1.44,0.28 3,3 0 0 0 -1.07,0.81 3.5,3.5 0 0 0 -0.68,1.25 5.51,5.51 0 0 0 -0.23,1.62 v 0.08 h 6.68 v -0.12 a 4.81,4.81 0 0 0 -0.25,-1.61 3.64,3.64 0 0 0 -0.67,-1.23 3.12,3.12 0 0 0 -1,-0.8 3.31,3.31 0 0 0 -1.34,-0.28 z m -286.44,-25.05 a 8.79,8.79 0 0 1 -0.64,3.42 7.7,7.7 0 0 1 -4.52,4.35 10,10 0 0 1 -6.83,0 8.09,8.09 0 0 1 -2.72,-1.7 7.9,7.9 0 0 1 -1.79,-2.65 8.79,8.79 0 0 1 -0.64,-3.42 8.67,8.67 0 0 1 0.64,-3.41 7.56,7.56 0 0 1 1.79,-2.59 8.13,8.13 0 0 1 2.72,-1.65 10.52,10.52 0 0 1 6.83,0 8,8 0 0 1 2.73,1.65 7.56,7.56 0 0 1 1.79,2.59 8.67,8.67 0 0 1 0.64,3.41 z m -4.07,0 a 5.48,5.48 0 0 0 -0.33,-1.91 4.55,4.55 0 0 0 -0.9,-1.52 4.29,4.29 0 0 0 -1.43,-1 4.37,4.37 0 0 0 -1.83,-0.37 4.29,4.29 0 0 0 -1.82,0.37 4.39,4.39 0 0 0 -1.43,1 4.24,4.24 0 0 0 -0.92,1.52 5.47,5.47 0 0 0 -0.32,1.91 5.66,5.66 0 0 0 0.33,2 4.69,4.69 0 0 0 0.92,1.55 4.23,4.23 0 0 0 1.42,1 4.48,4.48 0 0 0 5.07,-1 4.55,4.55 0 0 0 0.93,-1.55 5.66,5.66 0 0 0 0.31,-2 z m 19.4,-2.95 a 4.82,4.82 0 0 1 -0.51,2.32 4.13,4.13 0 0 1 -1.38,1.52 6.1,6.1 0 0 1 -2,0.85 10.23,10.23 0 0 1 -2.36,0.27 h -1.89 v 5.93 h -3.8 v -15.74 h 5.78 a 10.87,10.87 0 0 1 2.41,0.25 5.69,5.69 0 0 1 2,0.83 4,4 0 0 1 1.31,1.49 4.87,4.87 0 0 1 0.44,2.28 z m -3.8,0 a 1.66,1.66 0 0 0 -0.23,-0.91 1.54,1.54 0 0 0 -0.6,-0.56 2.82,2.82 0 0 0 -0.85,-0.27 8,8 0 0 0 -1,-0.06 h -1.67 v 3.71 h 1.6 a 5.53,5.53 0 0 0 1,-0.09 2.7,2.7 0 0 0 0.88,-0.31 1.65,1.65 0 0 0 0.61,-0.59 1.72,1.72 0 0 0 0.26,-0.9 z m 6.62,10.89 v -15.74 h 10.55 v 3.2 h -6.92 v 3 h 6.54 v 3 h -6.54 v 3.27 h 7.32 v 3.24 z m 24.55,0 -6.34,-10.29 h -0.07 l 0.09,10.29 h -3.68 v -15.74 h 4.34 l 6.31,10.27 h 0.07 l -0.09,-10.27 h 3.69 v 15.74 z m 23.22,-11.67 a 3.51,3.51 0 0 0 -1.22,-1 3.72,3.72 0 0 0 -1.53,-0.37 5.12,5.12 0 0 0 -0.77,0.07 1.91,1.91 0 0 0 -0.7,0.26 1.83,1.83 0 0 0 -0.52,0.48 1.34,1.34 0 0 0 -0.21,0.77 1.26,1.26 0 0 0 0.17,0.67 1.48,1.48 0 0 0 0.49,0.47 4.5,4.5 0 0 0 0.76,0.36 l 1,0.35 c 0.54,0.18 1.09,0.37 1.67,0.59 a 6.15,6.15 0 0 1 1.58,0.85 4.44,4.44 0 0 1 1.18,1.33 3.8,3.8 0 0 1 0.47,2 5.18,5.18 0 0 1 -0.5,2.34 4.82,4.82 0 0 1 -1.35,1.64 5.62,5.62 0 0 1 -1.93,0.95 8.09,8.09 0 0 1 -2.25,0.31 9.1,9.1 0 0 1 -3.27,-0.59 6.9,6.9 0 0 1 -2.62,-1.67 l 2.49,-2.54 a 4.48,4.48 0 0 0 1.52,1.19 4.13,4.13 0 0 0 1.88,0.48 3.68,3.68 0 0 0 0.82,-0.09 2.11,2.11 0 0 0 0.7,-0.29 1.45,1.45 0 0 0 0.48,-0.53 1.69,1.69 0 0 0 0.18,-0.8 1.26,1.26 0 0 0 -0.22,-0.76 2.12,2.12 0 0 0 -0.64,-0.57 4.9,4.9 0 0 0 -1,-0.46 c -0.41,-0.14 -0.87,-0.3 -1.39,-0.46 a 13.35,13.35 0 0 1 -1.48,-0.58 5.15,5.15 0 0 1 -1.29,-0.85 4,4 0 0 1 -0.91,-1.27 4.3,4.3 0 0 1 -0.35,-1.81 4.41,4.41 0 0 1 0.54,-2.25 4.6,4.6 0 0 1 1.4,-1.54 5.9,5.9 0 0 1 2,-0.87 8.62,8.62 0 0 1 2.2,-0.28 8,8 0 0 1 2.72,0.49 7,7 0 0 1 2.44,1.44 z m 12.84,-0.82 v 12.49 h -3.81 v -12.49 h -4.44 v -3.25 h 12.69 v 3.25 z m 16.43,12.49 -1.22,-3.09 h -6.1 l -1.17,3.09 h -4.14 l 6.61,-15.74 h 3.69 l 6.54,15.74 z m -4.22,-11.54 -2,5.41 h 4 z m 16.05,-0.95 v 12.49 h -3.8 v -12.49 h -4.45 v -3.25 h 12.7 v 3.25 z m 7.01,12.49 v -15.74 h 10.59 v 3.2 h -6.92 v 3 h 6.54 v 3 h -6.54 v 3.27 h 7.32 v 3.24 z m 21.01,-15.74 h 10.16 v 2.44 h -7.36 v 4.32 h 6.94 v 2.36 h -6.94 v 6.62 h -2.8 z m 12.66,7.83 a 8.91,8.91 0 0 1 0.63,-3.42 7.48,7.48 0 0 1 1.76,-2.59 7.73,7.73 0 0 1 2.61,-1.64 9.43,9.43 0 0 1 3.37,-0.58 9.59,9.59 0 0 1 3.4,0.58 7.82,7.82 0 0 1 2.69,1.64 7.37,7.37 0 0 1 1.77,2.59 8.91,8.91 0 0 1 0.63,3.42 8.76,8.76 0 0 1 -0.63,3.37 7.68,7.68 0 0 1 -1.77,2.62 8,8 0 0 1 -2.69,1.71 9.18,9.18 0 0 1 -3.4,0.61 9,9 0 0 1 -3.37,-0.61 7.89,7.89 0 0 1 -2.67,-1.71 7.8,7.8 0 0 1 -1.76,-2.62 8.76,8.76 0 0 1 -0.57,-3.37 z m 3,0 a 6.64,6.64 0 0 0 0.39,2.32 5.29,5.29 0 0 0 1.12,1.84 5.21,5.21 0 0 0 1.71,1.21 5.38,5.38 0 0 0 2.19,0.43 5.47,5.47 0 0 0 2.2,-0.43 5.15,5.15 0 0 0 1.72,-1.21 5.29,5.29 0 0 0 1.12,-1.84 6.64,6.64 0 0 0 0.39,-2.32 6.4,6.4 0 0 0 -0.39,-2.27 5.62,5.62 0 0 0 -1.1,-1.83 5.23,5.23 0 0 0 -3.93,-1.66 5.26,5.26 0 0 0 -2.21,0.44 5.39,5.39 0 0 0 -1.71,1.22 5.62,5.62 0 0 0 -1.1,1.83 6.4,6.4 0 0 0 -0.4,2.27 z m 30,2.13 a 6.4,6.4 0 0 1 -0.49,2.57 5.82,5.82 0 0 1 -1.33,1.95 6,6 0 0 1 -2,1.23 7.57,7.57 0 0 1 -5,0 6,6 0 0 1 -2,-1.23 5.7,5.7 0 0 1 -1.34,-1.95 6.76,6.76 0 0 1 -0.47,-2.57 v -10 h 2.8 v 9.85 a 5.31,5.31 0 0 0 0.18,1.37 3.18,3.18 0 0 0 0.59,1.21 2.88,2.88 0 0 0 1.09,0.87 4.42,4.42 0 0 0 3.35,0 2.88,2.88 0 0 0 1.09,-0.87 3.33,3.33 0 0 0 0.59,-1.21 5.31,5.31 0 0 0 0.18,-1.37 v -9.81 h 2.76 z m 4.24,-9.96 h 3.76 l 7.31,11.79 h 0.05 v -11.79 h 2.8 v 15.74 h -3.56 l -7.47,-12.16 v 12.16 h -2.8 z m 18.26,0 h 5.58 a 12.13,12.13 0 0 1 3.09,0.4 8.17,8.17 0 0 1 2.83,1.32 7,7 0 0 1 2,2.43 8,8 0 0 1 0.78,3.72 7.57,7.57 0 0 1 -0.78,3.56 7.36,7.36 0 0 1 -2,2.45 8.74,8.74 0 0 1 -2.81,1.41 11,11 0 0 1 -3.09,0.45 h -5.6 z m 5.14,13.3 a 9.55,9.55 0 0 0 2.18,-0.26 5.73,5.73 0 0 0 2,-0.87 4.62,4.62 0 0 0 1.43,-1.65 5.62,5.62 0 0 0 0.56,-2.65 6,6 0 0 0 -0.56,-2.76 4.49,4.49 0 0 0 -1.43,-1.66 5.31,5.31 0 0 0 -2,-0.83 10.75,10.75 0 0 0 -2.18,-0.22 h -2.34 v 10.9 z m 16.94,-13.3 h 2.42 l 6.78,15.74 h -3.2 l -1.47,-3.6 h -6.83 l -1.42,3.6 h -3.13 z m 3.56,9.74 -2.42,-6.41 -2.47,6.41 z m 9.79,-7.3 h -4.83 v -2.44 h 12.46 v 2.44 h -4.83 v 13.3 h -2.8 z m 10.3,-2.44 h 2.77 v 15.74 h -2.8 z m 6.4,7.83 a 8.72,8.72 0 0 1 0.64,-3.42 7.46,7.46 0 0 1 1.73,-2.59 7.73,7.73 0 0 1 2.67,-1.64 9.43,9.43 0 0 1 3.37,-0.58 9.56,9.56 0 0 1 3.4,0.58 7.72,7.72 0 0 1 2.69,1.64 7.37,7.37 0 0 1 1.77,2.59 8.72,8.72 0 0 1 0.64,3.42 8.58,8.58 0 0 1 -0.64,3.37 7.68,7.68 0 0 1 -1.77,2.62 7.88,7.88 0 0 1 -2.69,1.71 9.14,9.14 0 0 1 -3.4,0.61 9,9 0 0 1 -3.37,-0.61 7.89,7.89 0 0 1 -2.67,-1.71 7.78,7.78 0 0 1 -1.75,-2.62 8.58,8.58 0 0 1 -0.62,-3.37 z m 3.05,0 a 6.64,6.64 0 0 0 0.39,2.32 5.42,5.42 0 0 0 1.11,1.84 5.21,5.21 0 0 0 1.71,1.21 5.38,5.38 0 0 0 2.19,0.43 5.51,5.51 0 0 0 2.21,-0.43 5.25,5.25 0 0 0 1.71,-1.21 5.42,5.42 0 0 0 1.11,-1.84 6.64,6.64 0 0 0 0.39,-2.32 6.4,6.4 0 0 0 -0.39,-2.27 5.62,5.62 0 0 0 -1.1,-1.83 5.19,5.19 0 0 0 -3.93,-1.66 5.14,5.14 0 0 0 -3.91,1.66 5.45,5.45 0 0 0 -1.1,1.83 6.4,6.4 0 0 0 -0.39,2.27 z m 17.43,-7.83 h 3.72 l 7.32,11.79 v -11.79 h 2.85 v 15.74 h -3.56 l -7.44,-12.16 v 12.16 h -2.81 z"
     id="path16"
     inkscape:connector-curvature="0"
     style="fill:#035c6e" />
</svg>
