<svg xmlns="http://www.w3.org/2000/svg" viewBox="0 0 660 200"><defs><style>.cls-1{isolation:isolate;}.cls-2{font-size:72px;fill:#3d4a4c;font-family:Montserrat-Bold, Montserrat;font-weight:700;letter-spacing:-0.04em;}.cls-3{letter-spacing:-0.01em;}.cls-4{letter-spacing:-0.01em;}.cls-5{letter-spacing:-0.01em;}.cls-6{letter-spacing:-0.02em;}.cls-7{letter-spacing:-0.01em;}.cls-8{fill:#e6e6e6;}.cls-10,.cls-11,.cls-9{fill:none;stroke-linejoin:bevel;stroke-width:16px;mix-blend-mode:multiply;}.cls-9{stroke:#ec117e;}.cls-10,.cls-9{opacity:0.9;}.cls-10{stroke:#31a8df;}.cls-11{stroke:#751c58;opacity:0.75;}</style></defs><title>wimsl logo</title><g class="cls-1"><g id="Layer_1" data-name="Layer 1"><text class="cls-2" transform="translate(216.09 92.65)">W<tspan class="cls-3" x="70.2" y="0">aar is mijn </tspan><tspan class="cls-4"><tspan x="0" y="72">s</tspan><tspan class="cls-5" x="36.43" y="72">temlo</tspan><tspan class="cls-6" x="247.53" y="72">k</tspan><tspan class="cls-7" x="288.64" y="72">aal?</tspan></tspan></text><circle class="cls-8" cx="29.36" cy="20" r="8"/><circle class="cls-8" cx="29.36" cy="100" r="8"/><circle class="cls-8" cx="29.36" cy="180" r="8"/><circle class="cls-8" cx="109.36" cy="20" r="8"/><circle class="cls-8" cx="109.36" cy="100" r="8"/><circle class="cls-8" cx="109.36" cy="180" r="8"/><circle class="cls-8" cx="189.36" cy="20" r="8"/><circle class="cls-8" cx="189.36" cy="100" r="8"/><circle class="cls-8" cx="189.36" cy="180" r="8"/><polygon class="cls-9" points="75.88 69.96 189.66 69.96 189.66 140.45 75.88 140.23 75.88 69.96"/><polygon class="cls-10" points="29.88 33.96 137.38 180.95 137.38 33.96 29.88 33.96"/><ellipse class="cls-11" cx="81.2" cy="116.27" rx="51.64" ry="46.32"/></g></g></svg>