<?xml version="1.0" encoding="UTF-8" standalone="no"?>
<!-- Created with Inkscape (http://www.inkscape.org/) -->

<svg
   xmlns:ns="http://ns.adobe.com/SaveForWeb/1.0/"
   xmlns:dc="http://purl.org/dc/elements/1.1/"
   xmlns:cc="http://creativecommons.org/ns#"
   xmlns:rdf="http://www.w3.org/1999/02/22-rdf-syntax-ns#"
   xmlns:svg="http://www.w3.org/2000/svg"
   xmlns="http://www.w3.org/2000/svg"
   version="1.2"
   width="268.69244"
   height="77"
   viewBox="0 0 268.69245 77.000002"
   id="logo"
   xml:space="preserve"><defs
     id="defs87" /><style
     type="text/css"
     id="style3"
     xml:space="preserve" /><metadata
     id="metadata5"><ns:sfw><ns:slices /><ns:sliceSourceBounds
         y="-158.12"
         x="190.6"
         width="243.34"
         height="77"
         bottomLeftOrigin="true" /></ns:sfw><rdf:RDF><cc:Work
         rdf:about=""><dc:format>image/svg+xml</dc:format><dc:type
           rdf:resource="http://purl.org/dc/dcmitype/StillImage" /><dc:title></dc:title></cc:Work></rdf:RDF></metadata><g
     transform="translate(-1.1115935e-6,0)"
     id="g7"><g
       id="g9"><g
         id="g11"><g
           id="g13"><g
             id="g15"><g
               id="g17"><g
                 id="g19"><rect
                   width="44"
                   height="77"
                   x="0"
                   y="0"
                   id="rect21"
                   style="fill:#154273" /><path
                   d="M 22.76,57.01 H 22 v -2.12 h 0.76 v 2.12 z m 3.45,-9.35 h -0.76 v -2.12 h 0.76 v 2.12 z M 12.05,44 c -0.06,0 -0.45,0 -0.45,0.08 0,0.08 0.18,0.04 0.45,0.09 0.61,0.1 0.85,0.41 1.28,0.41 0.39,0 0.79,-0.26 0.63,-0.83 -0.03,-0.09 -0.08,-0.07 -0.09,-0.01 -0.06,0.25 -0.37,0.4 -0.7,0.4 -0.4,0 -0.49,-0.14 -1.12,-0.14 z m -4.21,2.12 c 0.07,0.09 0.79,1.03 -0.32,1.39 -0.05,0.02 -0.07,0.06 0.01,0.1 0.82,0.34 1.22,-0.29 1.22,-0.29 0.41,0.94 -0.22,1.46 -0.22,1.46 0.09,0.17 0.48,0.45 1.07,0.59 0.22,-0.12 0.54,-0.35 0.67,-0.71 0,0 0.16,0.41 0.01,0.8 1.67,0.15 2.26,-1.18 3.55,-0.94 0.04,0.01 0.05,-0.02 0.05,-0.06 0,-0.82 -0.5,-2.33 -2.1,-2.64 -1.59,-0.31 -1.16,-0.96 -1.16,-0.96 0.67,-0.03 1.06,0.26 1.06,0.26 0.12,-0.2 -0.05,-0.42 -0.05,-0.42 0.06,-0.08 0.1,-0.35 0.1,-0.35 -0.75,0 -0.95,-0.16 -0.95,-0.16 -0.12,-0.45 0.2,-1.08 1.32,-0.4 0.28,-0.25 0.26,-0.63 0.26,-0.63 0.08,-0.04 0.14,-0.17 0.14,-0.23 0,-0.19 -0.9,-0.69 -1.13,-0.75 -0.06,-0.27 -0.4,-0.66 -1.46,-0.52 -0.5,0.06 -0.86,-0.07 -0.69,-0.36 0.03,-0.05 -0.06,-0.06 -0.11,-0.01 -0.12,0.12 -0.27,0.44 0.16,0.66 0.48,0.24 0.51,0.73 0.52,0.8 0.01,0.1 -0.12,0.11 -0.14,0.01 -0.22,-0.82 -1.34,-0.99 -2,-0.56 0.04,0.44 0.51,0.73 0.77,0.73 0.15,0 0.35,-0.15 0.35,-0.35 0,-0.1 0.05,-0.09 0.08,-0.01 0.11,0.29 -0.32,0.89 -0.96,0.53 -0.65,0.65 -0.39,1.46 -0.33,1.75 0.12,0.53 -0.14,1.05 -0.62,0.81 -0.02,-0.01 -0.05,-0.02 -0.05,0.04 0,0.33 0.43,0.71 0.95,0.42 z m 3.58,-3.28 c -0.3,0.34 -0.8,0.26 -0.92,-0.3 0.63,-0.03 0.9,0.03 0.92,0.3 z m 19.4,1.3 c -0.33,0 -0.64,-0.14 -0.7,-0.4 -0.01,-0.06 -0.07,-0.09 -0.09,0.01 -0.16,0.56 0.24,0.83 0.63,0.83 0.43,0 0.67,-0.31 1.28,-0.41 0.27,-0.05 0.45,0 0.45,-0.09 0,-0.08 -0.4,-0.08 -0.45,-0.08 -0.63,0 -0.71,0.14 -1.12,0.14 z m 6.29,1.56 c 0,-0.06 -0.02,-0.05 -0.05,-0.04 -0.48,0.24 -0.74,-0.28 -0.62,-0.81 0.07,-0.3 0.33,-1.1 -0.33,-1.75 -0.64,0.37 -1.07,-0.24 -0.96,-0.53 0.03,-0.08 0.08,-0.09 0.08,0.01 0,0.2 0.21,0.35 0.35,0.35 0.26,0 0.73,-0.29 0.77,-0.73 -0.66,-0.43 -1.78,-0.26 -2,0.56 -0.03,0.1 -0.15,0.09 -0.14,-0.01 0,-0.07 0.03,-0.56 0.52,-0.8 0.44,-0.22 0.28,-0.54 0.16,-0.66 -0.05,-0.05 -0.14,-0.04 -0.11,0.01 0.17,0.29 -0.19,0.42 -0.69,0.36 -1.05,-0.14 -1.4,0.25 -1.46,0.52 -0.23,0.06 -1.13,0.56 -1.13,0.75 0,0.06 0.05,0.19 0.14,0.23 0,0 -0.02,0.38 0.26,0.63 1.12,-0.68 1.43,-0.04 1.32,0.4 0,0 -0.2,0.16 -0.95,0.16 0,0 0.04,0.27 0.1,0.35 0,0 -0.17,0.22 -0.05,0.42 0,0 0.39,-0.29 1.06,-0.26 0,0 0.43,0.65 -1.16,0.96 -1.59,0.31 -2.1,1.81 -2.1,2.64 0,0.04 0.02,0.06 0.05,0.06 1.29,-0.24 1.88,1.1 3.55,0.94 -0.15,-0.39 0.01,-0.8 0.01,-0.8 0.13,0.35 0.45,0.59 0.67,0.71 0.59,-0.13 0.98,-0.42 1.07,-0.59 0,0 -0.63,-0.52 -0.22,-1.46 0,0 0.4,0.63 1.22,0.29 0.07,-0.03 0.06,-0.08 0.01,-0.1 -1.11,-0.36 -0.39,-1.29 -0.32,-1.39 0.52,0.29 0.95,-0.09 0.95,-0.42 z m -3.62,-3.16 c -0.12,0.56 -0.62,0.64 -0.92,0.3 0.03,-0.27 0.3,-0.33 0.92,-0.3 z M 21.71,33.15 c 0,0.14 0.06,0.26 0.11,0.33 0.1,0.14 0.08,0.22 0.04,0.26 -0.05,0.05 -0.12,0.06 -0.26,-0.04 -0.07,-0.05 -0.19,-0.11 -0.33,-0.11 -0.24,0 -0.36,0.16 -0.36,0.29 0,0.14 0.12,0.29 0.36,0.29 0.14,0 0.26,-0.06 0.33,-0.11 0.14,-0.1 0.22,-0.08 0.26,-0.04 0.05,0.05 -0.02,0.53 -0.08,0.91 -0.4,0.08 -0.59,0.4 -0.59,0.59 0,0.48 0.51,0.76 0.82,0.92 0.3,-0.16 0.82,-0.44 0.82,-0.92 0,-0.19 -0.19,-0.51 -0.59,-0.59 -0.05,-0.38 -0.12,-0.87 -0.08,-0.91 0.05,-0.05 0.12,-0.06 0.26,0.04 0.07,0.05 0.19,0.11 0.33,0.11 0.24,0 0.36,-0.16 0.36,-0.29 0,-0.14 -0.12,-0.29 -0.36,-0.29 -0.14,0 -0.26,0.06 -0.33,0.11 -0.14,0.1 -0.22,0.08 -0.26,0.04 -0.05,-0.05 -0.06,-0.12 0.04,-0.26 0.05,-0.07 0.11,-0.19 0.11,-0.33 0,-0.24 -0.16,-0.36 -0.29,-0.36 -0.16,0 -0.31,0.12 -0.31,0.36 z M 22,36.72 c -0.32,0 -0.59,0.26 -0.59,0.59 0,0.32 0.26,0.59 0.59,0.59 0.32,0 0.59,-0.26 0.59,-0.59 0,-0.33 -0.27,-0.59 -0.59,-0.59 z m 0,5.63 c 2.35,0 3.67,0.45 3.67,0.45 0.01,-1.18 0,-1.85 0.68,-1.75 -0.37,-1 1.23,-1.39 1.23,-2.68 0,-0.85 -0.6,-0.95 -0.78,-0.95 -0.53,0 -0.45,0.35 -0.9,0.35 -0.06,0 -0.11,-0.01 -0.11,0.03 0,0.15 0.13,0.4 0.33,0.4 0.28,0 0.28,-0.28 0.49,-0.28 0.09,0 0.22,0.07 0.22,0.36 0,0.55 -0.36,1.16 -0.79,1.64 -0.1,-0.14 -0.23,-0.22 -0.39,-0.22 -0.25,0 -0.47,0.26 -0.47,0.59 0,0.12 0.02,0.21 0.06,0.31 -0.14,0.08 -0.27,0.12 -0.36,0.12 -0.19,0 -0.48,-0.08 -0.48,-0.5 0,-0.94 1.26,-1.77 1.26,-2.96 0,-0.57 -0.38,-1.14 -1.17,-1.14 -0.85,0 -0.69,0.78 -1.43,0.78 -0.03,0 -0.06,0.01 -0.06,0.04 0,0.05 0.13,0.48 0.51,0.48 0.41,0 0.52,-0.71 0.88,-0.71 0.14,0 0.34,0.08 0.34,0.56 0,0.37 -0.18,0.97 -0.45,1.55 -0.1,-0.1 -0.23,-0.17 -0.37,-0.17 -0.32,0 -0.54,0.31 -0.54,0.67 0,0.23 0.09,0.45 0.25,0.6 -0.19,0.24 -0.38,0.43 -0.63,0.43 -0.51,0 -0.73,-0.29 -0.73,-0.6 0,-0.34 0.62,-0.46 0.62,-1 0,-0.36 -0.23,-0.57 -0.46,-0.57 -0.24,0 -0.37,0.16 -0.39,0.16 -0.03,0 -0.15,-0.16 -0.39,-0.16 -0.23,0 -0.46,0.2 -0.46,0.57 0,0.53 0.62,0.66 0.62,1 0,0.31 -0.22,0.6 -0.73,0.6 -0.26,0 -0.45,-0.19 -0.63,-0.43 0.16,-0.15 0.25,-0.37 0.25,-0.6 0,-0.37 -0.23,-0.67 -0.54,-0.67 -0.15,0 -0.28,0.07 -0.37,0.17 -0.26,-0.58 -0.45,-1.18 -0.45,-1.55 0,-0.48 0.2,-0.56 0.34,-0.56 0.36,0 0.48,0.71 0.88,0.71 0.38,0 0.51,-0.43 0.51,-0.48 0,-0.03 -0.03,-0.04 -0.06,-0.04 -0.74,0 -0.58,-0.78 -1.43,-0.78 -0.79,0 -1.17,0.57 -1.17,1.14 0,1.19 1.26,2.02 1.26,2.96 0,0.42 -0.29,0.5 -0.48,0.5 -0.1,0 -0.22,-0.05 -0.36,-0.12 0.04,-0.1 0.06,-0.19 0.06,-0.31 0,-0.33 -0.22,-0.59 -0.47,-0.59 -0.16,0 -0.29,0.08 -0.39,0.22 -0.43,-0.47 -0.79,-1.09 -0.79,-1.64 0,-0.28 0.13,-0.36 0.22,-0.36 0.21,0 0.21,0.28 0.49,0.28 0.21,0 0.33,-0.26 0.33,-0.4 0,-0.04 -0.06,-0.03 -0.11,-0.03 -0.45,0 -0.37,-0.35 -0.9,-0.35 -0.18,0 -0.78,0.1 -0.78,0.95 0,1.3 1.6,1.69 1.23,2.68 0.68,-0.1 0.67,0.56 0.68,1.75 -0.06,0 1.26,-0.45 3.61,-0.45 z m -4.3,1.75 c -0.64,0.14 -1.1,0.27 -1.3,0.33 0.01,-0.28 0.12,-0.54 0.37,-0.6 0.03,-0.01 0.04,-0.05 0.01,-0.07 -0.57,-0.38 -0.87,0.35 -0.88,0.37 -0.2,-0.02 -0.51,0.05 -0.51,0.32 0,0.82 -1.86,1.27 -2.3,1.33 0.76,0.29 1.08,1.25 1.08,1.25 0.55,-0.55 1.2,-1.04 1.34,-1.04 0.15,0 0.2,0.18 0.21,0.29 0,0.04 0.04,0.05 0.06,0.02 0.29,-0.43 0.15,-0.53 0.13,-0.66 -0.02,-0.1 0.01,-0.48 0.43,-0.43 v 5.44 l -0.22,0.04 c -0.1,0.02 -0.89,-0.66 -1.81,-1.29 -0.91,-0.63 -1.4,-0.25 -2.44,0.31 -1.36,0.74 -2.73,0.07 -2.73,0.07 -1.17,0.84 -1.57,3.26 -1.57,3.26 -0.23,0.1 -0.62,0.21 -0.99,0.21 -0.89,0 -1.06,-0.54 -1.06,-0.87 0,-1.38 1.73,-1.97 1.73,-3.33 0,-0.33 -0.15,-1.67 -1.81,-1.67 -0.21,0 -1.48,0 -1.49,0 -0.62,0 -0.78,-0.45 -0.86,-0.62 C 3.06,46.7 3,46.74 3.02,46.79 c 0.05,0.11 -0.07,0.29 -0.07,0.63 0,0.55 0.32,0.88 0.93,0.88 0.28,0 0.53,-0.08 0.62,-0.13 0.06,-0.03 0.09,0.02 0.06,0.05 -0.26,0.31 -0.28,0.88 -0.18,1.02 0.03,0.03 0.06,0.02 0.06,0 0.15,-0.58 0.69,-1.14 1.43,-1.14 0.9,0 0.9,0.77 0.9,0.95 0,1.11 -1.95,1.92 -1.95,3.44 0,1.55 1.63,1.88 2.58,1.63 -0.06,1.55 -1.83,2.07 -1.88,0.97 0,-0.05 -0.04,-0.07 -0.07,0 -0.22,0.55 -0.14,1.03 0.55,1.18 0.05,0.01 0.02,0.04 -0.02,0.07 -0.67,0.45 -0.3,2.16 -0.27,2.66 0.05,0.72 -0.67,0.64 -0.73,0.62 -0.03,-0.01 -0.06,0 -0.01,0.06 0.51,0.62 1.14,0.05 1.14,0.05 0.48,0.15 0.18,0.56 -0.14,0.77 -0.05,0.03 -0.05,0.07 0.01,0.07 0.07,0 0.81,0.07 0.94,-0.52 0.33,0.39 0.81,0.25 0.91,0.2 0.14,-0.07 0.83,-0.32 0.9,0.45 0,0.06 0.04,0.02 0.06,-0.01 0.52,-0.66 -0.04,-1.06 -0.35,-1.11 0.03,-0.04 0.44,-0.38 0.82,0.1 0.03,0.03 0.05,0.04 0.05,-0.03 C 9.35,58.82 8.68,58.74 8.24,59.1 8.22,59.01 8.07,58.55 8.73,58.56 c 0.02,0 0.05,-0.02 0.01,-0.06 -0.51,-0.54 -0.94,-0.05 -1.03,0.07 -0.23,0.27 -0.8,0.16 -0.85,0.16 0.18,-2.89 2.72,-1.87 3.07,-3.27 0.02,-0.07 0.05,-0.05 0.06,-0.02 0.1,0.34 0.96,0.39 1.12,-0.28 0.01,-0.04 0,-0.07 -0.03,-0.04 -0.74,0.74 -2.4,-1.56 -0.13,-3.43 1.93,-1.59 3.67,-0.71 4.32,-0.18 0.03,0.23 -0.1,0.31 -0.19,0.33 -0.03,0.01 -0.04,0.04 0.01,0.06 0.18,0.07 0.44,0.05 0.57,-0.12 0.42,0.29 0.06,0.66 -0.11,0.76 -0.04,0.03 -0.02,0.05 0.01,0.06 0.38,0.07 0.69,-0.32 0.71,-0.54 l 0.06,0.04 v 1.64 c 0,2.34 2.7,2.66 5.66,4.64 2.96,-1.98 5.66,-2.31 5.66,-4.64 V 52.1 l 0.06,-0.04 c 0.02,0.22 0.33,0.61 0.71,0.54 0.04,-0.01 0.05,-0.03 0.01,-0.06 -0.17,-0.1 -0.52,-0.47 -0.11,-0.76 0.12,0.17 0.38,0.19 0.57,0.12 0.05,-0.02 0.04,-0.05 0.01,-0.06 -0.09,-0.03 -0.23,-0.1 -0.19,-0.33 0.66,-0.52 2.39,-1.41 4.32,0.18 2.26,1.87 0.6,4.17 -0.13,3.43 -0.03,-0.03 -0.04,0 -0.03,0.04 0.16,0.68 1.02,0.63 1.12,0.28 0.01,-0.03 0.04,-0.05 0.06,0.02 0.35,1.4 2.9,0.38 3.07,3.27 -0.05,0.01 -0.62,0.11 -0.85,-0.16 -0.1,-0.12 -0.52,-0.61 -1.03,-0.07 -0.03,0.03 0,0.06 0.01,0.06 0.66,-0.02 0.52,0.45 0.49,0.54 -0.44,-0.36 -1.11,-0.29 -1.07,0.55 0,0.07 0.03,0.06 0.05,0.03 0.38,-0.48 0.79,-0.13 0.82,-0.1 -0.31,0.05 -0.87,0.45 -0.35,1.11 0.02,0.03 0.05,0.07 0.06,0.01 0.07,-0.78 0.76,-0.52 0.9,-0.45 0.1,0.05 0.58,0.19 0.91,-0.2 0.13,0.59 0.87,0.52 0.94,0.52 0.05,0 0.06,-0.04 0.01,-0.07 -0.32,-0.21 -0.61,-0.62 -0.14,-0.77 0,0 0.63,0.57 1.14,-0.05 0.04,-0.06 0.02,-0.07 -0.01,-0.06 -0.06,0.02 -0.78,0.11 -0.73,-0.62 0.03,-0.5 0.4,-2.21 -0.28,-2.64 -0.04,-0.03 -0.07,-0.05 -0.02,-0.07 0.69,-0.15 0.78,-0.63 0.55,-1.18 -0.03,-0.07 -0.07,-0.06 -0.07,0 -0.05,1.11 -1.82,0.58 -1.88,-0.97 0.95,0.24 2.58,-0.09 2.58,-1.63 0,-1.52 -1.95,-2.34 -1.95,-3.44 0,-0.19 0,-0.95 0.9,-0.95 0.74,0 1.28,0.55 1.43,1.14 0.01,0.03 0.04,0.04 0.06,0 0.11,-0.14 0.09,-0.72 -0.18,-1.02 -0.03,-0.03 0,-0.08 0.06,-0.05 0.08,0.05 0.34,0.13 0.62,0.13 0.6,0 0.93,-0.33 0.93,-0.88 0,-0.35 -0.12,-0.52 -0.07,-0.63 0.02,-0.05 -0.04,-0.09 -0.07,-0.02 -0.09,0.17 -0.24,0.62 -0.86,0.62 -0.01,0 -1.27,0 -1.49,0 -1.66,0 -1.81,1.34 -1.81,1.67 0,1.36 1.73,1.95 1.73,3.33 0,0.32 -0.16,0.87 -1.06,0.87 -0.37,0 -0.75,-0.1 -0.99,-0.21 0,0 -0.4,-2.42 -1.57,-3.26 0,0 -1.37,0.67 -2.73,-0.07 -1.04,-0.56 -1.53,-0.94 -2.44,-0.31 -0.91,0.63 -1.71,1.31 -1.8,1.29 l -0.22,-0.04 v -5.44 c 0.42,-0.04 0.45,0.33 0.43,0.43 -0.02,0.13 -0.16,0.23 0.13,0.66 0.02,0.03 0.06,0.02 0.06,-0.02 0.01,-0.11 0.07,-0.29 0.21,-0.29 0.14,0 0.79,0.49 1.34,1.04 0,0 0.32,-0.96 1.08,-1.25 -0.43,-0.07 -2.3,-0.52 -2.3,-1.33 0,-0.27 -0.31,-0.34 -0.51,-0.32 -0.01,-0.02 -0.31,-0.75 -0.88,-0.37 -0.03,0.02 -0.02,0.06 0.01,0.07 0.25,0.06 0.36,0.32 0.37,0.6 -0.54,-0.17 -2.86,-0.82 -5.6,-0.82 -1.33,0 -2.56,0.15 -3.54,0.33 v 1.89 H 17.7 V 44.1 l 0,0 M 12.64,63.42 C 12.44,63.34 12.3,63.21 12.3,62.94 V 61.77 C 11.96,61.65 11.05,61.3 9.22,61.3 c -1.52,0 -2,0.34 -2.02,0.46 l -0.4,2.23 c 0,0 0.62,-0.56 2.82,-0.42 2.66,0.17 5.41,1.74 5.41,0.07 v -0.98 c -2.09,0 -2.39,0.66 -2.39,0.76 z m 16.34,-0.76 v 0.98 c 0,1.67 2.75,0.1 5.41,-0.07 2.2,-0.14 2.82,0.42 2.82,0.42 l -0.4,-2.23 c -0.02,-0.12 -0.5,-0.46 -2.02,-0.46 -1.83,0 -2.75,0.35 -3.08,0.47 v 1.17 c 0,0.27 -0.13,0.4 -0.34,0.48 -0.01,-0.1 -0.31,-0.76 -2.39,-0.76 z M 22,61.65 c 4.28,0 8.62,0.22 9.19,0.87 0.05,0.05 0.06,0 0.06,-0.04 l 0,-2.27 c 0,-0.66 -4.48,-1.05 -9.25,-1.05 -4.77,0 -9.25,0.38 -9.25,1.05 l 0,2.27 c 0,0.04 0.02,0.09 0.06,0.04 0.57,-0.65 4.91,-0.87 9.19,-0.87 z m -3.81,-10.69 -0.43,-0.11 -0.04,0.05 -0.5,-0.22 c 0,0 0.37,0 0.45,0 0.04,0 0.04,-0.03 0.02,-0.05 -0.2,-0.2 -0.38,-0.38 -0.38,-0.38 0,0 0.2,0.08 0.5,0.18 0.03,0.01 0.05,-0.01 0.03,-0.03 -0.14,-0.21 -0.33,-0.48 -0.33,-0.48 0,0 0.4,0.27 0.49,0.33 0.03,0.02 0.05,0 0.04,-0.03 -0.11,-0.27 -0.23,-0.57 -0.23,-0.57 l 0.44,0.42 c 0.02,0.02 0.04,0.01 0.04,-0.02 -0.04,-0.2 -0.12,-0.57 -0.12,-0.57 l 0.33,0.48 c 0.02,0.03 0.04,0.02 0.04,-0.01 0,-0.09 0.01,-0.52 0.01,-0.52 0,0 0.14,0.31 0.21,0.48 0.01,0.03 0.04,0.03 0.06,-0.01 0.02,-0.05 0.17,-0.4 0.17,-0.4 l 0.02,0.54 -0.07,0.01 -0.09,0.65 c 0.65,-0.15 1.45,-1.26 2.07,-1.26 0.73,0 1,0.86 2.36,0.42 0.34,0.51 0.46,0.95 0.59,1.56 0.52,0.49 1.26,0.33 1.26,-0.19 0,-0.7 -0.77,-0.84 -0.77,-1.57 0,-0.33 0.23,-0.8 0.86,-0.8 0.33,0 0.82,0.14 1.1,0.14 0.33,0 0.4,-0.24 0.44,-0.34 0.03,-0.07 0.12,-0.05 0.11,0.01 -0.01,0.07 0.04,0.16 0.04,0.32 0,0.46 -0.68,0.52 -0.76,0.47 -0.03,-0.02 -0.06,0.01 -0.03,0.03 0.1,0.08 0.08,0.36 -0.04,0.53 -0.01,0.02 -0.03,0.02 -0.04,0 -0.07,-0.33 -0.46,-0.74 -0.81,-0.74 -0.13,0 -0.38,0.07 -0.38,0.37 0,0.42 0.84,0.8 0.84,1.66 0,0.9 -0.89,1.11 -1.79,0.89 0.03,0.85 1.3,1.36 1.33,0.75 0,-0.04 0.02,-0.02 0.04,0 0.19,0.26 0.1,0.46 -0.14,0.56 0.22,0.1 0.26,0.55 0.33,0.81 0.1,0.4 0.52,0.18 0.54,0.17 0.02,-0.01 0.03,0 0.02,0.02 -0.16,0.42 -0.59,0.26 -0.59,0.26 -0.22,0.16 0.05,0.3 0.25,0.36 0.03,0.01 0.03,0.03 0,0.04 -0.15,0.05 -0.47,0.15 -0.62,-0.11 -0.11,0.28 -0.35,0.27 -0.44,0.27 -0.16,0 -0.27,0.17 -0.23,0.39 0,0.02 -0.01,0.03 -0.03,0.01 -0.39,-0.26 -0.17,-0.56 -0.01,-0.64 -0.03,-0.02 -0.3,-0.13 -0.41,0.19 -0.01,0.02 -0.02,0.03 -0.03,0 -0.17,-0.45 0.2,-0.59 0.47,-0.47 -0.02,-0.06 -0.16,-0.29 -0.51,-0.21 -0.02,0 -0.03,0 -0.02,-0.02 0.06,-0.14 0.23,-0.34 0.55,-0.14 0.16,0.1 0.45,-0.05 0.47,-0.06 -0.57,-1.13 -1.67,-0.18 -1.92,-1.07 0,-0.02 -0.03,-0.03 -0.04,0.01 -0.06,0.19 -0.54,0.2 -0.63,-0.17 -0.01,-0.03 0,-0.03 0.02,-0.01 0.07,0.07 0.22,0.14 0.42,-0.15 0.13,-0.19 0.15,-0.44 0.15,-0.62 0,-0.69 -0.69,-1.84 -1.76,-1.84 -0.68,0 -1.41,0.26 -1.95,0.66 l 0.5,0.12 c -0.05,0.51 -0.54,0.81 -0.99,0.68 l 0.08,-0.58 c -0.08,0.02 -0.28,0.09 -0.38,0.24 -0.01,0.01 -0.02,0.01 -0.03,0 -0.09,-0.33 0.18,-0.5 0.27,-0.54 0.01,-0.01 0.01,-0.01 -0.01,-0.01 -0.24,-0.01 -0.38,0.17 -0.42,0.23 -0.01,0.01 -0.02,0.01 -0.02,0 -0.05,-0.08 -0.09,-0.25 0.03,-0.37 z m 1.49,3.93 c -0.19,0.24 -0.36,0.01 -0.62,0.01 -0.24,0 -0.28,0.2 -0.28,0.28 0,0.01 -0.01,0.02 -0.02,0 -0.27,-0.37 0.03,-0.57 0.21,-0.6 -0.03,-0.03 -0.29,-0.2 -0.46,0.04 -0.01,0.02 -0.03,0.01 -0.03,-0.01 -0.01,-0.46 0.35,-0.49 0.59,-0.29 0.04,-0.17 -0.07,-0.29 -0.26,-0.3 -0.02,0 -0.03,-0.02 -0.02,-0.03 0.08,-0.09 0.16,-0.13 0.24,-0.13 0.25,0 0.29,0.32 0.45,0.32 0.25,0 0.6,-0.34 0.64,-0.37 -0.01,-0.02 -0.25,-0.66 -0.2,-1.05 0,-0.02 -0.01,-0.02 -0.02,-0.01 -0.12,0.07 -0.43,0.07 -0.43,-0.31 0,-0.03 0.01,-0.03 0.03,-0.01 0.13,0.19 0.35,-0.02 0.46,-0.15 0.12,-0.13 0.75,-1.04 1.58,-1.04 0.18,0 0.42,0.1 0.61,0.23 -0.29,0.35 0,0.69 0.21,0.65 0.03,0 0.03,0.02 0.01,0.03 -1.11,0.42 -1.6,0.58 -1.6,1.51 0,0.48 0.17,0.75 0.45,0.69 0.02,-0.01 0.03,0 0.01,0.02 -0.1,0.12 -0.22,0.16 -0.32,0.16 -0.23,0 -0.27,-0.13 -0.39,-0.13 -0.13,0 -0.54,0.24 -0.54,0.45 0,0.08 0.05,0.18 0.19,0.28 0.01,0.01 0,0.01 0,0.02 -0.09,0.03 -0.41,0.05 -0.49,-0.26 z m 2.92,-9.01 c -0.35,-0.02 -0.57,0.06 -0.56,0.17 0.17,0.18 0.39,0.16 0.56,-0.17 z m -1.28,0.86 c 0.24,-0.06 0.51,-0.03 0.54,-0.02 0.04,0.01 0.04,0.07 -0.01,0.08 -0.51,0.07 -0.53,0.3 -0.86,0.3 -0.21,0 -0.45,-0.22 -0.36,-0.53 0.01,-0.04 0.04,-0.04 0.05,0 0.04,0.12 0.24,0.27 0.64,0.17 z m -6.62,11.3 c 0.34,0.43 0.66,0.03 1.1,0.03 0.22,0 0.48,0.07 0.53,0.51 0,0.02 0.02,0.03 0.04,0 0.48,-0.66 -0.07,-1.03 -0.38,-1.08 0.07,-0.06 0.54,-0.35 0.84,0.08 0.02,0.02 0.05,0.02 0.05,-0.02 0,-0.83 -0.63,-0.89 -1.08,-0.53 -0.09,-0.33 0.16,-0.54 0.48,-0.54 0.04,0 0.05,-0.03 0.03,-0.05 -0.56,-0.6 -0.98,0.15 -1.07,0.27 -0.22,0.3 -1.02,-0.26 -1.34,-0.59 0,0 0.71,-0.74 0.71,-1.42 0,-0.04 0,-0.1 0,-0.12 0,-0.02 0.01,-0.03 0.03,-0.02 0.07,0.04 0.17,0.07 0.26,0.07 0.16,0 0.47,-0.05 0.47,-0.62 0,-0.04 -0.02,-0.04 -0.04,-0.02 -0.08,0.12 -0.18,0.15 -0.25,0.15 -0.57,0 -1.76,-1.9 -3.16,-1.9 -0.37,0 -1.06,0.26 -1.41,0.64 0.17,0.1 0.2,0.31 0.18,0.46 -0.03,0.24 -0.22,0.36 -0.41,0.42 -0.03,0.01 -0.04,0.03 0,0.05 0.71,0.27 2,0.76 2.29,1.01 0.35,0.3 0.28,0.87 0.08,1.65 -0.19,0.75 -0.61,0.65 -0.76,0.62 -0.02,0 -0.03,0.01 -0.02,0.03 0.18,0.23 0.41,0.31 0.6,0.31 0.37,0 0.51,-0.23 0.7,-0.23 0.32,0 0.99,0.46 0.99,0.81 0,0.2 -0.15,0.37 -0.35,0.5 -0.01,0.01 -0.01,0.02 0.01,0.03 0.13,0.01 0.76,0.06 0.88,-0.5 z m 15.5,0.49 c 0.02,0 0.02,-0.02 0.01,-0.03 -0.2,-0.13 -0.35,-0.31 -0.35,-0.5 0,-0.35 0.67,-0.81 0.99,-0.81 0.19,0 0.33,0.23 0.7,0.23 0.19,0 0.41,-0.08 0.6,-0.31 0.01,-0.02 0.01,-0.03 -0.02,-0.03 -0.15,0.02 -0.57,0.13 -0.76,-0.62 -0.2,-0.78 -0.27,-1.35 0.08,-1.65 0.29,-0.25 1.58,-0.74 2.29,-1.01 0.04,-0.02 0.03,-0.04 0,-0.05 -0.2,-0.05 -0.39,-0.17 -0.41,-0.42 -0.02,-0.15 0.01,-0.36 0.18,-0.46 -0.35,-0.38 -1.04,-0.64 -1.41,-0.64 -1.4,0 -2.59,1.9 -3.16,1.9 -0.07,0 -0.16,-0.03 -0.25,-0.15 -0.02,-0.03 -0.04,-0.03 -0.04,0.02 0,0.57 0.3,0.62 0.47,0.62 0.09,0 0.19,-0.03 0.26,-0.07 0.02,-0.01 0.03,0 0.03,0.02 0,0.02 0,0.08 0,0.12 0,0.68 0.71,1.42 0.71,1.42 C 29.8,56.44 29,57 28.78,56.7 c -0.1,-0.12 -0.51,-0.87 -1.07,-0.27 -0.02,0.02 -0.01,0.05 0.03,0.05 0.31,0 0.56,0.21 0.48,0.54 -0.45,-0.36 -1.08,-0.3 -1.08,0.53 0,0.03 0.03,0.04 0.05,0.02 0.3,-0.43 0.77,-0.14 0.84,-0.08 -0.32,0.05 -0.87,0.42 -0.38,1.08 0.02,0.03 0.04,0.02 0.04,0 0.05,-0.43 0.31,-0.51 0.53,-0.51 0.44,0 0.77,0.41 1.1,-0.03 0.1,0.57 0.73,0.52 0.88,0.5 z M 18.85,47.56 c -0.04,0.06 -0.19,0 -0.25,-0.03 -0.01,-0.01 -0.02,0 -0.01,0.01 0.04,0.08 0.18,0.32 0.39,0.32 0.1,0 0.23,-0.06 0.27,-0.12 0,0 0.83,0.27 1.23,0.38 -0.16,0.21 -0.26,0.47 -0.28,0.74 -0.33,-0.2 -1.65,-0.91 -1.65,-0.91 l -0.41,0.56 c -0.07,0.09 -0.39,-0.15 -0.33,-0.24 l 0.31,-0.43 c -0.1,-0.11 -0.35,-0.04 -0.42,-0.02 -0.01,0 -0.02,0 -0.01,-0.02 0.04,-0.08 0.19,-0.34 0.58,-0.23 0,-0.24 -0.35,-0.16 -0.44,-0.14 -0.01,0 -0.01,0 0,-0.01 0.1,-0.1 0.38,-0.33 0.7,-0.14 l 0.14,-0.19 -0.28,-0.3 0.18,-0.24 0.2,0.27 1.52,-2.08 c 0.04,-0.05 0.34,-0.14 0.45,-0.16 0.01,0.12 0.02,0.43 -0.01,0.48 l -1.5,2.1 0.32,0.1 -0.17,0.24 -0.37,-0.17 -0.16,0.23 z m 5.33,-0.34 c 0,0.19 0.12,0.47 0.37,0.39 0.01,-0.01 0.02,0 0.02,0.01 -0.04,0.21 -0.42,0.41 -0.59,0.16 -0.15,0.33 -0.12,0.63 0.21,0.81 0.02,0.01 0.02,0.03 0,0.05 -0.2,0.14 -0.51,0.11 -0.65,-0.17 -0.27,0.21 -0.23,0.64 -0.07,0.79 0,0 -0.76,0.45 -1.44,0.13 -0.45,-0.22 -0.82,-0.5 -1.41,-0.45 0.08,-0.82 0.49,-1.04 1.25,-1.16 0.6,-0.1 0.68,-0.38 0.59,-0.59 -0.21,-0.05 -0.58,0.13 -0.58,0.13 -0.07,-0.11 0.03,-0.23 0.03,-0.23 -0.04,-0.05 -0.06,-0.2 -0.06,-0.2 0.42,0 0.5,-0.09 0.5,-0.09 0.08,-0.44 -0.37,-0.49 -0.71,-0.25 -0.16,-0.14 -0.13,-0.33 -0.13,-0.33 -0.05,-0.02 -0.08,-0.1 -0.08,-0.13 0,-0.1 0.5,-0.39 0.63,-0.42 0.03,-0.15 0.21,-0.35 0.75,-0.3 0.06,-0.14 -0.04,-0.66 -0.1,-0.79 -0.02,-0.04 0.01,-0.07 0.06,-0.04 0.19,0.12 0.37,0.55 0.5,0.56 0,0 0.6,-0.31 0.63,-0.3 0.03,0.02 0.11,0.68 0.11,0.68 0.08,0.1 0.54,0 0.74,0.09 0.05,0.02 0.05,0.06 0,0.07 -0.15,0.03 -0.63,0.23 -0.71,0.37 0.27,0.43 0.14,1.04 0.14,1.21 z"
                   id="path23"
                   style="fill:#ffffff" /></g></g></g></g></g></g><g
       id="g25"
       style="fill:#ff0000" /><text
       x="53.378342"
       y="46.065105"
       id="text3355"
       xml:space="preserve"
       style="font-size:16px;font-style:normal;font-variant:normal;font-weight:normal;font-stretch:normal;line-height:125%;letter-spacing:0px;word-spacing:0px;fill:#000000;fill-opacity:1;stroke:none;font-family:RijksoverheidSerifWeb;-inkscape-font-specification:RijksoverheidSerifWeb"><tspan
         x="53.378342"
         y="46.065105"
         id="tspan3357"
         style="font-size:14px">Ministerie van Binnenlandse Zaken en</tspan><tspan
         x="53.378342"
         y="63.565105"
         id="tspan3583"
         style="font-size:14px">Koninkrijksrelaties</tspan></text>
</g></svg>