<?xml version="1.0" encoding="UTF-8" standalone="no"?>
<svg
   id="Laag_1"
   data-name="Laag 1"
   viewBox="0 0 260.8231 60.035064"
   version="1.1"
   width="260.82312"
   height="60.035065"
   xmlns="http://www.w3.org/2000/svg"
   xmlns:svg="http://www.w3.org/2000/svg">
  <defs
     id="defs4">
    <rect
       x="-20.380894"
       y="-36.305653"
       width="174.86418"
       height="93.693756"
       id="rect5604" />
    <style
       id="style2">
      .cls-1, .cls-2 {
        fill: #045d6f;
      }

      .cls-3 {
        fill: #81cde0;
      }

      .cls-4, .cls-2, .cls-5, .cls-6 {
        stroke: #045d6f;
        stroke-miterlimit: 10;
      }

      .cls-4, .cls-2, .cls-6 {
        stroke-width: .79px;
      }

      .cls-4, .cls-5 {
        fill: #fff;
      }

      .cls-5 {
        stroke-width: .89px;
      }

      .cls-6 {
        fill: none;
      }
    </style>
  </defs>
  <rect
     class="cls-5"
     x="0.78559428"
     y="33.880955"
     width="25.368517"
     height="25.368517"
     id="rect6" />
  <g
     id="g10"
     transform="matrix(1.7653804,0,0,1.7653804,-3.2041655,6.2880557)">
    <path
       id="Path_8"
       data-name="Path 8"
       class="cls-1"
       d="M 13.24,19.42 6.06,26.6 c 2.1,1.87 5.31,1.69 7.18,-0.41 1.72,-1.93 1.72,-4.84 0,-6.77" />
    <path
       id="Path_9"
       data-name="Path 9"
       class="cls-3"
       d="M 12.84,19.02 5.66,26.2 c -1.87,-2.1 -1.68,-5.32 0.42,-7.18 1.93,-1.72 4.84,-1.72 6.76,0" />
  </g>
  <g
     id="g506"
     transform="matrix(0.04096,0,0,0.04096,9.5798398,37.108542)"
     style="fill:#045d6f;fill-opacity:1">
    <path
       d="m 1206.5106,-655.2421 -81.384,81.38405 c -8.2973,8.29729 -21.7142,8.29729 -30.0115,0 L 899.1579,-769.81529 c -8.29729,-8.29729 -8.29729,-21.71418 0,-30.01147 l 81.38404,-81.38404 c 33.01266,-33.01261 86.68016,-33.01261 119.86936,0 l 106.0993,106.09937 c 33.1892,33.01261 33.1892,86.68018 0,119.86933 z m -377.26177,-74.67559 -463.5889,463.58891 -37.42605,214.493716 c -5.11961,28.952239 20.12533,54.020641 49.07756,49.0775758 L 591.80516,-40.360092 1055.3941,-503.94899 c 8.2973,-8.29728 8.2973,-21.71418 0,-30.01146 L 859.43684,-729.91769 c -8.47383,-8.29729 -21.89072,-8.29729 -30.18801,0 z m -282.63741,423.86785 c -9.70959,-9.70959 -9.70959,-25.24494 0,-34.95453 l 271.86859,-271.8686 c 9.70959,-9.70959 25.24494,-9.70959 34.95453,0 9.7096,9.70961 9.7096,25.24495 0,34.95454 l -271.86858,271.86859 c -9.7096,9.70959 -25.24494,9.70959 -34.95454,0 z m -63.73023,148.46849 h 84.73826 v 64.083307 l -113.86704,19.948799 -54.90333,-54.903336 19.9488,-113.86703 h 64.08331 z"
       id="path457"
       style="fill:#045d6f;fill-opacity:1;stroke-width:1.76538" />
    <g
       aria-label="WAAR IS MIJN STEMLOKAAL"
       id="text5637"
       style="font-size:358.073px;line-height:1.25;fill:#000000;stroke-width:24.4141">
      <path
         d="M 1554.0483,-258.02885 1409.2894,-700.5234 h 106.1987 l 125.7949,391.92374 h -53.0994 l 131.4841,-391.92374 h 94.8203 l 126.427,391.92374 h -51.203 l 128.9556,-391.92374 h 97.9809 l -144.7589,442.49455 h -109.9915 l -111.8879,-343.88148 h 29.0782 l -115.0486,343.88148 z"
         style="font-weight:bold;font-family:Montserrat;-inkscape-font-specification:Montserrat;fill:#045d6f;stroke-width:43.1002"
         id="path7507" />
      <path
         d="m 2100.8452,-258.02885 197.2262,-442.49455 h 101.1415 l 197.8583,442.49455 h -107.4629 l -161.8266,-390.65947 h 40.4567 l -162.4588,390.65947 z m 98.6131,-94.82026 27.1817,-77.75261 h 227.5687 l 27.8139,77.75261 z"
         style="font-weight:bold;font-family:Montserrat;-inkscape-font-specification:Montserrat;fill:#045d6f;stroke-width:43.1002"
         id="path7509" />
      <path
         d="m 2599.6007,-258.02885 197.2261,-442.49455 h 101.1415 l 197.8584,442.49455 h -107.463 l -161.8266,-390.65947 h 40.4567 l -162.4588,390.65947 z m 98.613,-94.82026 27.1818,-77.75261 h 227.5686 l 27.814,77.75261 z"
         style="font-weight:bold;font-family:Montserrat;-inkscape-font-specification:Montserrat;fill:#045d6f;stroke-width:43.1002"
         id="path7511" />
      <path
         d="M 3141.973,-258.02885 V -700.5234 h 189.0084 q 92.2917,0 143.4947,42.98519 51.2029,42.35305 51.2029,117.57712 0,49.30653 -23.389,85.33823 -23.389,35.39957 -66.3743,54.36362 -42.985,18.96405 -102.4058,18.96405 h -134.6447 l 45.5137,-44.88159 v 168.14793 z m 281.3001,0 -110.6236,-160.56231 h 109.3593 l 111.8879,160.56231 z m -178.8942,-156.7695 -45.5137,-48.04226 h 128.9554 q 47.4102,0 70.7992,-20.22833 23.389,-20.86045 23.389,-56.89215 0,-36.66384 -23.389,-56.89216 -23.389,-20.22831 -70.7992,-20.22831 h -128.9554 l 45.5137,-48.6744 z"
         style="font-weight:bold;font-family:Montserrat;-inkscape-font-specification:Montserrat;fill:#045d6f;stroke-width:43.1002"
         id="path7513" />
      <path
         d="M 3785.4874,-258.02885 V -700.5234 h 102.406 v 442.49455 z"
         style="font-weight:bold;font-family:Montserrat;-inkscape-font-specification:Montserrat;fill:#045d6f;stroke-width:43.1002"
         id="path7515" />
      <path
         d="m 4138.2183,-250.44322 q -53.0994,0 -101.7738,-13.90698 -48.6744,-14.53911 -78.3847,-37.29597 l 34.7674,-77.12048 q 28.4462,20.22832 67.0063,33.50316 39.1923,12.6427 79.0168,12.6427 30.3425,0 48.6746,-5.68921 18.9639,-6.32135 27.8139,-17.06765 8.8499,-10.7463 8.8499,-24.65327 0,-17.69978 -13.907,-27.81394 -13.907,-10.7463 -36.6638,-17.06765 -22.757,-6.95348 -50.5709,-12.6427 -27.1817,-6.32135 -54.9957,-15.17124 -27.1819,-8.84989 -49.9387,-22.75686 -22.7568,-13.90698 -37.2959,-36.66384 -13.907,-22.75686 -13.907,-58.15642 0,-37.92811 20.2283,-68.90273 20.8604,-31.60675 61.9493,-49.93866 41.7209,-18.96405 104.3022,-18.96405 41.7209,0 82.1776,10.11415 40.4567,9.48203 71.4313,29.07821 l -31.6068,77.75262 q -30.9747,-17.69978 -61.9493,-25.91753 -30.9745,-8.84989 -60.685,-8.84989 -29.7103,0 -48.6744,6.95348 -18.964,6.95348 -27.1817,18.33191 -8.2178,10.7463 -8.2178,25.2854 0,17.06765 13.9069,27.81395 13.907,10.11416 36.664,16.43551 22.7568,6.32135 49.9385,12.6427 27.8141,6.32135 54.9959,14.53911 27.8139,8.21775 50.5707,22.12472 22.757,13.90698 36.6639,36.66384 14.539,22.75686 14.539,57.52429 0,37.29597 -20.8604,68.27059 -20.8605,30.97462 -62.5814,49.93867 -41.0887,18.96406 -104.3022,18.96406 z"
         style="font-weight:bold;font-family:Montserrat;-inkscape-font-specification:Montserrat;fill:#045d6f;stroke-width:43.1002"
         id="path7517" />
      <path
         d="M 4575.0245,-258.02885 V -700.5234 h 84.7061 l 188.3763,312.27473 h -44.8816 l 185.2156,-312.27473 h 84.074 l 1.2641,442.49455 h -96.0845 l -0.632,-295.20708 h 17.6997 l -147.9196,248.42908 h -46.1458 l -151.0802,-248.42908 h 21.4924 v 295.20708 z"
         style="font-weight:bold;font-family:Montserrat;-inkscape-font-specification:Montserrat;fill:#045d6f;stroke-width:43.1002"
         id="path7519" />
      <path
         d="M 5178.7136,-258.02885 V -700.5234 h 102.4059 v 442.49455 z"
         style="font-weight:bold;font-family:Montserrat;-inkscape-font-specification:Montserrat;fill:#045d6f;stroke-width:43.1002"
         id="path7521" />
      <path
         d="m 5467.5985,-250.44322 q -44.8816,0 -82.8097,-16.43552 -37.296,-17.06765 -61.3172,-48.04227 l 56.8922,-68.27058 q 18.3319,24.02113 38.5604,36.66383 20.2282,12.01057 43.6172,12.01057 62.5813,0 62.5813,-73.32767 v -210.50098 h -155.5051 v -82.17756 h 257.279 v 286.98932 q 0,82.17756 -40.4567,122.63421 -40.4567,40.45665 -118.8414,40.45665 z"
         style="font-weight:bold;font-family:Montserrat;-inkscape-font-specification:Montserrat;fill:#045d6f;stroke-width:43.1002"
         id="path7523" />
      <path
         d="M 5728.0386,-258.02885 V -700.5234 h 84.7061 l 261.0719,318.59608 h -41.0889 V -700.5234 h 101.1416 v 442.49455 h -84.0739 l -261.7039,-318.59608 h 41.0887 v 318.59608 z"
         style="font-weight:bold;font-family:Montserrat;-inkscape-font-specification:Montserrat;fill:#045d6f;stroke-width:43.1002"
         id="path7525" />
      <path
         d="m 1589.4479,541.76002 q -49.3065,0 -94.8203,-15.80337 -44.8816,-16.43551 -69.5348,-41.72092 l 18.3319,-36.03169 q 23.389,22.75686 62.5813,38.56023 39.8246,15.17124 83.4419,15.17124 41.7209,0 67.6384,-10.11415 26.5497,-10.74629 38.5603,-28.44608 12.6427,-17.69978 12.6427,-39.19237 0,-25.91755 -15.1713,-41.72092 -14.5391,-15.80338 -38.5602,-24.65327 -24.0211,-9.48202 -53.0993,-16.43551 -29.0783,-6.95349 -58.1565,-14.53911 -29.0782,-8.21776 -53.7315,-21.49259 -24.0211,-13.27483 -39.1923,-34.76742 -14.5391,-22.12474 -14.5391,-57.52431 0,-32.87101 17.0676,-60.05282 17.6998,-27.81394 53.7315,-44.24945 36.0317,-17.067649 92.2917,-17.067649 37.296,0 73.9598,10.746299 36.6638,10.11416 63.2135,28.44607 l -15.8034,37.29597 q -28.446,-18.96405 -60.6849,-27.81394 -31.6068,-8.84989 -61.3171,-8.84989 -39.8245,0 -65.7421,10.7463 -25.9175,10.74629 -38.5602,29.07821 -12.0106,17.69978 -12.0106,40.45664 0,25.91754 14.5391,41.72092 15.1713,15.80337 39.1924,24.65326 24.6533,8.84989 53.7315,15.80338 29.0782,6.95348 57.5243,15.17124 29.0782,8.21776 53.0993,21.49259 24.6533,12.6427 39.1924,34.13529 15.1712,21.49261 15.1712,56.26003 0,32.23888 -17.6997,60.05284 -17.6998,27.18179 -54.3637,44.24945 -36.0317,16.4355 -92.9238,16.4355 z"
         style="font-family:Montserrat;-inkscape-font-specification:Montserrat;fill:#045d6f;stroke-width:43.1002"
         id="path7527" />
      <path
         d="M 1935.8576,537.96722 V 135.92932 H 1780.3524 V 95.472675 h 357.7884 v 40.456645 h -155.5051 v 402.0379 z"
         style="font-family:Montserrat;-inkscape-font-specification:Montserrat;fill:#045d6f;stroke-width:43.1002"
         id="path7529" />
      <path
         d="M 2212.7324,537.96722 V 95.472675 h 303.4249 v 40.456645 h -256.6469 v 361.58125 h 266.1289 v 40.45665 z m 41.7208,-204.81177 v -39.82451 h 233.8902 v 39.82451 z"
         style="font-family:Montserrat;-inkscape-font-specification:Montserrat;fill:#045d6f;stroke-width:43.1002"
         id="path7531" />
      <path
         d="M 2635.6312,537.96722 V 95.472675 h 38.5601 l 202.2833,345.145735 h -20.2282 L 3056.6331,95.472675 h 38.5603 V 537.96722 h -44.8816 V 165.63966 h 10.7462 L 2876.4746,481.7072 h -22.1248 L 2668.5022,165.63966 h 12.0106 v 372.32756 z"
         style="font-family:Montserrat;-inkscape-font-specification:Montserrat;fill:#045d6f;stroke-width:43.1002"
         id="path7533" />
      <path
         d="M 3239.3202,537.96722 V 95.472675 h 46.7779 V 497.51057 h 247.797 v 40.45665 z"
         style="font-family:Montserrat;-inkscape-font-specification:Montserrat;fill:#045d6f;stroke-width:43.1002"
         id="path7535" />
      <path
         d="m 3796.2315,541.76002 q -49.9386,0 -92.9238,-16.4355 -42.3531,-17.06766 -73.9598,-47.41014 -30.9746,-30.97462 -48.6743,-71.43126 -17.0677,-41.08877 -17.0677,-89.76317 0,-48.6744 17.0677,-89.13106 17.6997,-41.08877 48.6743,-71.43126 31.6067,-30.97461 73.9598,-47.41012 42.353,-17.067649 92.9238,-17.067649 49.9387,0 92.2918,17.067649 42.353,16.43551 73.3277,46.77799 31.6067,30.34249 48.6744,71.43126 17.6997,41.08879 17.6997,89.76319 0,48.6744 -17.6997,89.76317 -17.0677,41.08879 -48.6744,71.43126 -30.9747,30.34248 -73.3277,47.41014 -42.3531,16.4355 -92.2918,16.4355 z m 0,-41.7209 q 39.8245,0 73.3277,-13.27485 34.1354,-13.90696 58.7886,-38.56023 25.2854,-25.28541 39.1923,-58.15644 13.907,-33.50316 13.907,-73.32765 0,-39.82451 -13.907,-72.69554 -13.9069,-33.50316 -39.1923,-58.15642 -24.6532,-25.2854 -58.7886,-38.56025 -33.5032,-13.90696 -73.3277,-13.90696 -39.8245,0 -73.9598,13.90696 -34.1352,13.27485 -59.4207,38.56025 -24.6532,24.65326 -39.1923,58.15642 -13.907,32.87103 -13.907,72.69554 0,39.19236 13.907,72.69552 14.5391,33.50316 39.1923,58.78857 25.2855,24.65327 59.4207,38.56023 34.1353,13.27485 73.9598,13.27485 z"
         style="font-family:Montserrat;-inkscape-font-specification:Montserrat;fill:#045d6f;stroke-width:43.1002"
         id="path7537" />
      <path
         d="m 4173.6165,427.97571 -1.8964,-56.89216 268.0254,-275.610875 h 53.7315 L 4298.1471,300.28443 4271.5976,328.7305 Z M 4133.16,537.96722 V 95.472675 h 46.778 V 537.96722 Z m 317.9639,0 -190.9049,-219.98301 31.6068,-34.13529 214.9259,254.1183 z"
         style="font-family:Montserrat;-inkscape-font-specification:Montserrat;fill:#045d6f;stroke-width:43.1002"
         id="path7539" />
      <path
         d="M 4494.7413,537.96722 4697.0246,95.472675 h 46.1458 L 4945.4535,537.96722 H 4896.147 L 4710.2994,122.65449 h 18.9641 l -185.8478,415.31273 z m 79.649,-118.20927 13.907,-37.9281 h 257.279 l 13.9069,37.9281 z"
         style="font-family:Montserrat;-inkscape-font-specification:Montserrat;fill:#045d6f;stroke-width:43.1002"
         id="path7541" />
      <path
         d="M 4953.6723,537.96722 5155.9556,95.472675 h 46.1458 l 202.2833,442.494545 h -49.3066 L 5169.2303,122.65449 h 18.9641 l -185.8476,415.31273 z m 79.649,-118.20927 13.907,-37.9281 h 257.2791 l 13.9069,37.9281 z"
         style="font-family:Montserrat;-inkscape-font-specification:Montserrat;fill:#045d6f;stroke-width:43.1002"
         id="path7543" />
      <path
         d="M 5477.7131,537.96722 V 95.472675 h 46.778 V 497.51057 h 247.7969 v 40.45665 z"
         style="font-family:Montserrat;-inkscape-font-specification:Montserrat;fill:#045d6f;stroke-width:43.1002"
         id="path7545" />
    </g>
    <text
       xml:space="preserve"
       transform="matrix(24.414062,0,0,24.414062,-233.88281,-270.90933)"
       id="text5602"
       style="font-style:normal;font-weight:normal;font-size:40px;line-height:1.25;font-family:sans-serif;white-space:pre;shape-inside:url(#rect5604);fill:#000000;fill-opacity:1;stroke:none" />
  </g>
</svg>
