<?xml version="1.0" encoding="UTF-8" standalone="no"?>
<!-- Created with Inkscape (http://www.inkscape.org/) -->

<svg
   xmlns:xmpRights="http://ns.adobe.com/xap/1.0/rights/"
   xmlns:pdfx="http://ns.adobe.com/pdfx/1.3/"
   xmlns:pdf="http://ns.adobe.com/pdf/1.3/"
   xmlns:xmpG="http://ns.adobe.com/xap/1.0/g/"
   xmlns:stDim="http://ns.adobe.com/xap/1.0/sType/Dimensions#"
   xmlns:xmpTPg="http://ns.adobe.com/xap/1.0/t/pg/"
   xmlns:illustrator="http://ns.adobe.com/illustrator/1.0/"
   xmlns:stEvt="http://ns.adobe.com/xap/1.0/sType/ResourceEvent#"
   xmlns:stRef="http://ns.adobe.com/xap/1.0/sType/ResourceRef#"
   xmlns:xmpMM="http://ns.adobe.com/xap/1.0/mm/"
   xmlns:xmpGImg="http://ns.adobe.com/xap/1.0/g/img/"
   xmlns:xmp="http://ns.adobe.com/xap/1.0/"
   xmlns:x="adobe:ns:meta/"
   xmlns:dc="http://purl.org/dc/elements/1.1/"
   xmlns:cc="http://creativecommons.org/ns#"
   xmlns:rdf="http://www.w3.org/1999/02/22-rdf-syntax-ns#"
   xmlns:svg="http://www.w3.org/2000/svg"
   xmlns="http://www.w3.org/2000/svg"
   version="1.1"
   width="260.21899"
   height="85.000099"
   viewBox="0 0 260.219 85.000099"
   id="svg2"
   xml:space="preserve"><defs
     id="defs126"><clipPath
       id="clipPath3891"><rect
         width="306.13965"
         height="100"
         x="0"
         y="2.5519398e-07"
         id="rect3893"
         style="color:#000000;fill:#ececec;fill-opacity:1;fill-rule:evenodd;stroke:#2b0000;stroke-width:0;stroke-linecap:butt;stroke-linejoin:miter;stroke-miterlimit:4;stroke-opacity:1;stroke-dasharray:none;stroke-dashoffset:0;marker:none;visibility:visible;display:inline;overflow:visible;enable-background:accumulate" /></clipPath><clipPath
       id="clipPath3895"><rect
         width="306.13965"
         height="100"
         x="0"
         y="2.5519398e-07"
         id="rect3897"
         style="color:#000000;fill:#ececec;fill-opacity:1;fill-rule:evenodd;stroke:#2b0000;stroke-width:0;stroke-linecap:butt;stroke-linejoin:miter;stroke-miterlimit:4;stroke-opacity:1;stroke-dasharray:none;stroke-dashoffset:0;marker:none;visibility:visible;display:inline;overflow:visible;enable-background:accumulate" /></clipPath></defs><metadata
     id="metadata4"><?xpacket begin="y" id="W5M0MpCehiHzreSzNTczkc9d"?><x:xmpmeta
       x:xmptk="Adobe XMP Core 5.6-c143 79.161210, 2017/08/11-10:28:36        "><metadata
         id="metadata128"><rdf:RDF><rdf:Description
             rdf:about=""><dc:format>image/svg+xml</dc:format><dc:title><rdf:Alt><rdf:li
                   xml:lang="x-default">xxx_Logo_online_pos_fr</rdf:li></rdf:Alt></dc:title><dc:rights><rdf:Alt><rdf:li
                   xml:lang="x-default">Rights: By ministerial order of 16 June 2008 (Government Gazette 2008, no. 115), the State of the Netherlands (Ministry of General Affairs) entered a copyright reservation, as referred to in section 15b of the Copyright Act 1912, concerning the use and application of central government's general purpose Rijkslogo and visual identity, including the fonts Rijksoverheid Serif and Rijksoverheid Sans. This reservation does not apply to parties to whom central government has supplied the Rijkslogo and the visual identity for use in carrying out activities or services commissioned by central government. Any use in any form or by any means, electronic, mechanical, photocopying, recording or otherwise is prohibited unless prior written authorisation has been obtained from central government. To obtain authorisation, you should apply to the Government Information Service.</rdf:li></rdf:Alt></dc:rights><xmp:CreatorTool>Adobe Illustrator CC 22.0 (Macintosh)</xmp:CreatorTool><xmp:CreateDate>2017-11-27T08:37:38+01:00</xmp:CreateDate><xmp:ModifyDate>2017-11-27T08:37:38+01:00</xmp:ModifyDate><xmp:MetadataDate>2017-11-27T08:37:38+01:00</xmp:MetadataDate><xmp:Thumbnails><rdf:Alt><rdf:li
                   rdf:parseType="Resource"><xmpGImg:width>256</xmpGImg:width><xmpGImg:height>104</xmpGImg:height><xmpGImg:format>JPEG</xmpGImg:format><xmpGImg:image>/9j/4AAQSkZJRgABAgEASABIAAD/7QAsUGhvdG9zaG9wIDMuMAA4QklNA+0AAAAAABAASAAAAAEA
AQBIAAAAAQAB/+4ADkFkb2JlAGTAAAAAAf/bAIQABgQEBAUEBgUFBgkGBQYJCwgGBggLDAoKCwoK
DBAMDAwMDAwQDA4PEA8ODBMTFBQTExwbGxscHx8fHx8fHx8fHwEHBwcNDA0YEBAYGhURFRofHx8f
Hx8fHx8fHx8fHx8fHx8fHx8fHx8fHx8fHx8fHx8fHx8fHx8fHx8fHx8fHx8f/8AAEQgAaAEAAwER
AAIRAQMRAf/EAaIAAAAHAQEBAQEAAAAAAAAAAAQFAwIGAQAHCAkKCwEAAgIDAQEBAQEAAAAAAAAA
AQACAwQFBgcICQoLEAACAQMDAgQCBgcDBAIGAnMBAgMRBAAFIRIxQVEGE2EicYEUMpGhBxWxQiPB
UtHhMxZi8CRygvElQzRTkqKyY3PCNUQnk6OzNhdUZHTD0uIIJoMJChgZhJRFRqS0VtNVKBry4/PE
1OT0ZXWFlaW1xdXl9WZ2hpamtsbW5vY3R1dnd4eXp7fH1+f3OEhYaHiImKi4yNjo+Ck5SVlpeYmZ
qbnJ2en5KjpKWmp6ipqqusra6voRAAICAQIDBQUEBQYECAMDbQEAAhEDBCESMUEFURNhIgZxgZEy
obHwFMHR4SNCFVJicvEzJDRDghaSUyWiY7LCB3PSNeJEgxdUkwgJChgZJjZFGidkdFU38qOzwygp
0+PzhJSktMTU5PRldYWVpbXF1eX1RlZmdoaWprbG1ub2R1dnd4eXp7fH1+f3OEhYaHiImKi4yNjo
+DlJWWl5iZmpucnZ6fkqOkpaanqKmqq6ytrq+v/aAAwDAQACEQMRAD8A5NnQOodirsVdirsVfcX5
ef8AKAeWf+2TY/8AUMmaPN9Z95dpj+ke5kGVs3Yq7FXYq7FXYq7FXYq7FXYq7FXYq7FXYq7FXYq7
FXYq7FXYq7FXYq7FXYq7FXYq/P3OgdQ7FXYq7FXYq+4vy8/5QDyz/wBsmx/6hkzR5vrPvLtMf0j3
Mgytm7FXYq7FXYq7FXYq7FXYq7FXYq7FXYq7FXYq7FXYq7FXYq7FXYq7FXYq7FXYq7FX5+50DqHY
q7FXYq7FX3F+Xn/KAeWf+2TY/wDUMmaPN9Z95dpj+ke5kGVs3Yq7FXYq7FXYq7FXYq7FXYq7FXYq
7FXYq7FXYq7FXYq7FXYq7FXYq7FXYq7FXYq/P3OgdQ7FXYq7FXYq+4vy8/5QDyz/ANsmx/6hkzR5
vrPvLtMf0j3Mgytm7FXYq7FXYq7FXYq7FXYq7FXYq7FXYq7FXYq7FXYq7FXYq7FXYq7FXYq7FXYq
7FX5+50DqHYq7FXYq7FX3F+Xn/KAeWf+2TY/9QyZo831n3l2mP6R7mQZWzdirsVdirsVdirsVdir
sVdirsVdirsVdirsVdirsVdirsVdirsVdirsVdirsVdir8/c6B1CvY2v1u9t7X1Y4PXkSL1pm4xp
zYLyduyrWpPhgJoJAeyWn5NyxeXZtOnMzrczW9xNqkdrG3pGKG69ZIw7LcFEkSjCgZiBxX48wzqP
Vf46OQMO1PI9d0ibR9XutLmljnltHMckkJJQsOoHIKajoQRscy4ysW48hRpAZJD7i/Lz/lAPLP8A
2ybH/qGTNHm+s+8u0x/SPcyDK2bsVdirsVdirsVdirsVdirsVdirsVdirsVdirsVdirsVdirsVdi
rsVdirsVdirsVfFPkXypJqF9Z6vdpFPoFndxfpZFmtzMsSn1GDW7yJIVaNGJKqfhDH9k5u8uShQ5
ushG9+j2z8y/y2/L+bzLpD6g6aXDqE1vYWltpqotxcTTOUrIpXiqLVSZDyOxHUrmDhzT4TW/vcnJ
jjYZTNbXWhvoWj/pXVbm9uSbRHjlt1CR21t6jTGMwFCvJFSrA/a3au2VA8Vmg2VVCyw3yX+WHkKD
z/cw2btqFzpXEahp2rmKRlaRA4lionGatRX4RwNd91pdkzz4N+vc1QxR4nmn5r+TktvMes6vpMcF
v5ejmEUIaaBGaZD6MixQiRpnHrRSfFx/ZbwOZWDJcQDzacsNyRyfT35ef8oB5Z/7ZNj/ANQyZq83
1n3lzsf0j3Mgytm7FXYq7FXYq7FXYq7FXYq7FXYq7FXYq7FXYq7FXYq7FXYq7FXYq7FXYq7FXYq7
FXx/+S9npV/5hubHUU4WzQCe5vTIkSw2tu4e4WQurD05U+B6FTx2rQkZuNSSBYddhAJ3eyN5ustU
a413y3PPc2WialHHfaZBDDNZ3ForK8k8cVIpg8K/vFk3+MADkOmF4ZG0uocjjvcdE6uJ9FvWj816
XrkEOn25Mv1r1OdpJABSaC7djGySOZ/3asx4caqvUGABHpI3ZmjuCkt55zs4Bfebr64uYvLs15Fb
aTapBFHa3ET0D386t6ksyk/CSFDBQtBU1ExjP0jn+NmBn/F0eYfntF5fiuLCTRglxZ6jJPfWd5FI
jxCKTiJIYlRRxX1+b0LGjE0AqcytLe99GjPXR9F/l5/ygHln/tk2P/UMma7N9Z95c3H9I9zIMrZu
xV2KuxV2KuxV2KuxV2KuxV2KuxV2KuxV2KuxV2KuxV2KuxV2KuxV2KuxV2KuxV8S/lz5pHl3zJFd
TXDW1hMpi1CSOCK4lMFQ5RFmV1qzIB0zd5ocUXV45UWe6f5m/Jfy5YalqejQya3qdwYmi03WYirV
9Q+oEMMP1cLxblRv5ad8oMMsiAdh5NwlAbjf3pYPzp0MIYx+X+gemSGKfV46EioBpw6ipyX5Y/zp
MfGH80Jjdebfyh81+X4D5hsl8u3ltcEi10aNvWeJYuICloTbqrMRsTX4ciMeSB2397IzhIb7e5h/
5m+bbLXtRtYtLuZLjRbGELYrcW8EE8fIASI/oJGrDknIfPLsOMxG/NqyTs7cn1f+Xn/KAeWf+2TY
/wDUMmanN9Z95dhj+ke5kGVs3Yq7FXYq7FXYq7FXYq7FXYq7FXYq7FXYq7FXYq7FXYq7FXYq7FXY
q7FXYq7FXYq/P3OgdQ7FXYq7FXYq+4vy8/5QDyz/ANsmx/6hkzR5vrPvLtMf0j3Mgytm7FXYq7FX
Yq7FXYq7FXYq7FXYq7FXYq7FXYq7FXYq7FXYq7FXYq7FXYq7FXYq7FWD/wDKkfys/wCrBF/yNn/6
qZf+Zyd7V4EO53/Kkfys/wCrBF/yNn/6qY/mcnevgQ7nf8qR/Kz/AKsEX/I2f/qpj+Zyd6+BDud/
ypH8rP8AqwRf8jZ/+qmP5nJ3r4EO53/Kkfys/wCrBF/yNn/6qY/mcnevgQ7mY2Fja2Fjb2NnGIrS
0iSC3iBJCRxqFRQTU7KKb5STZstgFK+BLsVdirsVdirsVdirsVdirsVdirsVdirsVdirsVdirsVd
irsVdirsVdirsVdirsVdirsVdirsVdirsVdirsVdirsVdirsVdirsVdirsVdirsVdirsVdirsVdi
rsVdirsVdirsVdirsVdirsVdirsVdirsVdirsVdirsVdirsVdirsVdirsVdirsVdirsVdirsVdir
sVdirsVdirsVdirsVdirsVdirsVf/9k=</xmpGImg:image></rdf:li></rdf:Alt></xmp:Thumbnails><xmpMM:RenditionClass>default</xmpMM:RenditionClass><xmpMM:OriginalDocumentID>uuid:65E6390686CF11DBA6E2D887CEACB407</xmpMM:OriginalDocumentID><xmpMM:DocumentID>xmp.did:888068f8-249f-4606-ac2f-8c217b16c947</xmpMM:DocumentID><xmpMM:InstanceID>xmp.iid:888068f8-249f-4606-ac2f-8c217b16c947</xmpMM:InstanceID><xmpMM:DerivedFrom
               rdf:parseType="Resource"><stRef:instanceID>uuid:6ea27f54-23be-9b48-87eb-53175be4eeb6</stRef:instanceID><stRef:documentID>xmp.did:1f8f36ca-f461-4aec-90bd-7bfd9df2de46</stRef:documentID><stRef:originalDocumentID>uuid:65E6390686CF11DBA6E2D887CEACB407</stRef:originalDocumentID><stRef:renditionClass>default</stRef:renditionClass></xmpMM:DerivedFrom><xmpMM:History><rdf:Seq><rdf:li
                   rdf:parseType="Resource"><stEvt:action>saved</stEvt:action><stEvt:instanceID>xmp.iid:4bc33943-1bb8-41d9-b42d-3a75a8bce46d</stEvt:instanceID><stEvt:when>2017-10-23T13:00:12+02:00</stEvt:when><stEvt:softwareAgent>Adobe Illustrator CC 22.0 (Macintosh)</stEvt:softwareAgent><stEvt:changed>/</stEvt:changed></rdf:li><rdf:li
                   rdf:parseType="Resource"><stEvt:action>saved</stEvt:action><stEvt:instanceID>xmp.iid:888068f8-249f-4606-ac2f-8c217b16c947</stEvt:instanceID><stEvt:when>2017-11-27T08:37:38+01:00</stEvt:when><stEvt:softwareAgent>Adobe Illustrator CC 22.0 (Macintosh)</stEvt:softwareAgent><stEvt:changed>/</stEvt:changed></rdf:li></rdf:Seq></xmpMM:History><illustrator:StartupProfile>Web</illustrator:StartupProfile><xmpTPg:NPages>1</xmpTPg:NPages><xmpTPg:HasVisibleTransparency>False</xmpTPg:HasVisibleTransparency><xmpTPg:HasVisibleOverprint>False</xmpTPg:HasVisibleOverprint><xmpTPg:MaxPageSize
               rdf:parseType="Resource"><stDim:w>314.001838</stDim:w><stDim:h>125.000000</stDim:h><stDim:unit>Pixels</stDim:unit></xmpTPg:MaxPageSize><xmpTPg:PlateNames><rdf:Seq><rdf:li>Cyan</rdf:li><rdf:li>Magenta</rdf:li><rdf:li>Yellow</rdf:li><rdf:li>Black</rdf:li></rdf:Seq></xmpTPg:PlateNames><xmpTPg:SwatchGroups><rdf:Seq><rdf:li
                   rdf:parseType="Resource"><xmpG:groupName>Standaardstaalgroep</xmpG:groupName><xmpG:groupType>0</xmpG:groupType><xmpG:Colorants><rdf:Seq><rdf:li
                         rdf:parseType="Resource"><xmpG:swatchName>Wit</xmpG:swatchName><xmpG:mode>RGB</xmpG:mode><xmpG:type>PROCESS</xmpG:type><xmpG:red>255</xmpG:red><xmpG:green>255</xmpG:green><xmpG:blue>255</xmpG:blue></rdf:li><rdf:li
                         rdf:parseType="Resource"><xmpG:swatchName>Zwart</xmpG:swatchName><xmpG:mode>RGB</xmpG:mode><xmpG:type>PROCESS</xmpG:type><xmpG:red>0</xmpG:red><xmpG:green>0</xmpG:green><xmpG:blue>0</xmpG:blue></rdf:li><rdf:li
                         rdf:parseType="Resource"><xmpG:swatchName>R21G66B115</xmpG:swatchName><xmpG:type>PROCESS</xmpG:type><xmpG:tint>100.000000</xmpG:tint><xmpG:mode>RGB</xmpG:mode><xmpG:red>21</xmpG:red><xmpG:green>66</xmpG:green><xmpG:blue>115</xmpG:blue></rdf:li></rdf:Seq></xmpG:Colorants></rdf:li></rdf:Seq></xmpTPg:SwatchGroups><pdf:Producer>Adobe PDF library 15.00</pdf:Producer><pdfx:CreatorVersion>21.0.0</pdfx:CreatorVersion><xmpRights:Marked>True</xmpRights:Marked></rdf:Description><cc:Work
             rdf:about=""><dc:format>image/svg+xml</dc:format><dc:type
               rdf:resource="http://purl.org/dc/dcmitype/StillImage" /><dc:title></dc:title></cc:Work></rdf:RDF></metadata></x:xmpmeta><?xpacket end="w"?></metadata><g
     transform="matrix(0.850001,0,0,0.850001,0,-1.2289188e-6)"
     clip-path="url(#clipPath3895)"
     id="Laag_1"><g
       id="g7"><rect
         width="314"
         height="125"
         x="0"
         y="0"
         id="rect9"
         style="fill:none" /><rect
         width="50"
         height="100"
         x="0"
         y="0"
         id="rect11"
         style="fill:#154273" /></g><path
       d="m 25.903711,77.3629 h -0.870279 v -2.412934 h 0.870279 V 77.3629 z m 3.923661,-10.638413 h -0.870144 v -2.414284 h 0.870144 v 2.414284 z M 13.711926,62.561901 c -0.06574,0 -0.516029,0.0014 -0.516029,0.09413 0,0.09291 0.20959,0.04509 0.516029,0.09685 0.696412,0.119396 0.970931,0.469574 1.459792,0.469574 0.443635,0 0.89663,-0.301006 0.720319,-0.943085 -0.0292,-0.107444 -0.09155,-0.08232 -0.106221,-0.0092 -0.06764,0.286473 -0.419858,0.450966 -0.791217,0.450966 -0.459665,0 -0.558415,-0.159195 -1.282673,-0.159195 z m -4.7920375,2.411572 c 0.076344,0.106086 0.8974457,1.171279 -0.3633518,1.578506 -0.055827,0.01862 -0.07498,0.07294 0.00924,0.108803 0.9311323,0.388618 1.3822317,-0.326401 1.3822317,-0.326401 0.4682156,1.071854 -0.2500677,1.666123 -0.2500677,1.666123 0.1014671,0.193695 0.5464543,0.516021 1.2223583,0.667205 0.255364,-0.13665 0.615456,-0.399208 0.765422,-0.802498 0,0 0.182416,0.468216 0.01657,0.915238 1.902199,0.172508 2.574705,-1.347725 4.039796,-1.074433 0.04251,0.008 0.06235,-0.01861 0.06235,-0.0637 0,-0.93779 -0.574435,-2.651588 -2.388344,-2.999184 -1.80861,-0.348816 -1.321786,-1.091686 -1.321786,-1.091686 0.7627,-0.0345 1.203069,0.297199 1.203069,0.297199 0.139236,-0.228199 -0.05705,-0.474869 -0.05705,-0.474869 0.07294,-0.08761 0.113428,-0.397991 0.113428,-0.397991 -0.858877,-0.0014 -1.084359,-0.185684 -1.084359,-0.185684 -0.132029,-0.509369 0.222086,-1.229691 1.497554,-0.458977 0.318392,-0.283889 0.294492,-0.716381 0.294492,-0.716381 0.09616,-0.0451 0.155793,-0.196277 0.155793,-0.261207 0,-0.212304 -1.019967,-0.784024 -1.281988,-0.85167 -0.0637,-0.309017 -0.458971,-0.754821 -1.658108,-0.594268 -0.5671,0.07036 -0.976364,-0.07824 -0.785248,-0.408585 0.03247,-0.05569 -0.069,-0.06628 -0.122113,-0.01195 -0.13135,0.131351 -0.312415,0.501495 0.183782,0.750881 0.549849,0.278457 0.583672,0.830345 0.587611,0.909942 0.0092,0.116681 -0.13135,0.127278 -0.162456,0.0106 -0.253463,-0.931134 -1.5255354,-1.131485 -2.2789982,-0.636784 0.044417,0.498775 0.5804186,0.827763 0.874218,0.827763 0.1691113,0 0.4032869,-0.168431 0.4032869,-0.40057 0,-0.11274 0.057593,-0.09821 0.090872,-0.01059 0.124695,0.331566 -0.3655227,1.016026 -1.0944074,0.599564 -0.7408237,0.741512 -0.4449873,1.655392 -0.370822,1.992393 0.1327076,0.604859 -0.1631355,1.191117 -0.7082243,0.917954 -0.027988,-0.01331 -0.055834,-0.0239 -0.055834,0.04102 2e-7,0.380738 0.4961965,0.810517 1.0810916,0.484246 z m 4.0829905,-3.738114 c -0.346237,0.386036 -0.909943,0.297199 -1.045232,-0.339584 0.710948,-0.03708 1.016708,0.0345 1.045232,0.339584 z m 22.068853,1.485737 c -0.371502,0 -0.723038,-0.164494 -0.790684,-0.450966 -0.01521,-0.07308 -0.07756,-0.09821 -0.106083,0.0092 -0.176449,0.642079 0.276554,0.943085 0.720318,0.943085 0.488861,0 0.763378,-0.350178 1.459114,-0.469574 0.306438,-0.05175 0.516037,-0.0039 0.516037,-0.09685 0,-0.09277 -0.450428,-0.09413 -0.516037,-0.09413 -0.724259,0 -0.823147,0.159195 -1.282665,0.159195 z m 7.155658,1.768131 c 0,-0.06493 -0.02785,-0.05433 -0.05501,-0.04102 -0.545235,0.273163 -0.840943,-0.313095 -0.708371,-0.917954 0.0743,-0.337001 0.370144,-1.250881 -0.371364,-1.992393 -0.728878,0.416462 -1.219097,-0.267998 -1.094402,-0.599564 0.03382,-0.08761 0.09087,-0.102146 0.09087,0.01059 0,0.232139 0.234185,0.40057 0.40329,0.40057 0.293804,0 0.829663,-0.328987 0.87476,-0.827763 -0.753464,-0.494701 -2.025536,-0.29435 -2.278862,0.636784 -0.03178,0.11668 -0.172508,0.106083 -0.163136,-0.0106 0.0046,-0.0796 0.03776,-0.631485 0.587613,-0.909942 0.496059,-0.249386 0.315673,-0.61953 0.184333,-0.750881 -0.05366,-0.05433 -0.155128,-0.04374 -0.122665,0.01195 0.191658,0.330345 -0.217468,0.478947 -0.784569,0.408585 -1.199131,-0.160553 -1.594539,0.285251 -1.658108,0.594268 -0.262691,0.06765 -1.282123,0.639367 -1.282123,0.85167 0,0.06493 0.05976,0.21611 0.155933,0.261207 0,0 -0.02391,0.432492 0.294487,0.716381 1.274651,-0.770713 1.628903,-0.05039 1.497555,0.458977 0,0 -0.225483,0.184326 -1.085033,0.185684 0,0 0.04116,0.310379 0.114101,0.397992 0,0 -0.196415,0.246669 -0.05705,0.474868 0,0 0.440377,-0.331703 1.203068,-0.297199 0,0 0.486824,0.74287 -1.322464,1.091686 -1.813366,0.347596 -2.387665,2.061394 -2.387665,2.999184 0,0.0451 0.01915,0.07172 0.06166,0.0637 1.465771,-0.273292 2.1376,1.246941 4.040478,1.074433 -0.165844,-0.447022 0.01657,-0.915238 0.01657,-0.915238 0.149822,0.40329 0.509372,0.665848 0.765415,0.802498 0.675087,-0.151184 1.120212,-0.47351 1.22168,-0.667205 0,0 -0.717606,-0.594269 -0.24939,-1.666123 0,0 0.450966,0.715019 1.382233,0.326401 0.08354,-0.03586 0.06425,-0.09019 0.0092,-0.108803 -1.261483,-0.407226 -0.440377,-1.47242 -0.363495,-1.578506 0.585029,0.326271 1.080413,-0.103508 1.080413,-0.484246 z m -4.118038,-3.593452 c -0.135959,0.636783 -0.699665,0.72562 -1.045231,0.339584 0.02853,-0.30508 0.334286,-0.376663 1.045231,-0.339584 z M 24.699148,50.212273 c 0,0.160553 0.069,0.301139 0.124016,0.379379 0.112198,0.159195 0.09495,0.24667 0.04184,0.299782 -0.05242,0.05311 -0.140587,0.07036 -0.300461,-0.04116 -0.07824,-0.05569 -0.218147,-0.124695 -0.378702,-0.124695 -0.274517,0 -0.410486,0.180386 -0.410486,0.334286 0,0.153896 0.135969,0.334282 0.410486,0.334282 0.160555,0 0.300462,-0.069 0.378702,-0.124695 0.159874,-0.111382 0.248037,-0.09413 0.300461,-0.04102 0.05311,0.05162 -0.02459,0.603505 -0.08625,1.037217 -0.454224,0.09549 -0.673186,0.45898 -0.673186,0.671283 0,0.546456 0.584353,0.862133 0.927872,1.045235 0.342978,-0.183102 0.92733,-0.498779 0.92733,-1.045235 0,-0.212303 -0.218962,-0.575794 -0.672644,-0.671283 -0.06235,-0.433712 -0.139228,-0.9856 -0.0868,-1.037217 0.05229,-0.05311 0.140585,-0.07036 0.30046,0.04102 0.07825,0.05569 0.218155,0.124695 0.378701,0.124695 0.274519,0 0.410486,-0.180386 0.410486,-0.334282 0,-0.1539 -0.135967,-0.334286 -0.410486,-0.334286 -0.160546,0 -0.300454,0.069 -0.378701,0.124695 -0.159875,0.111519 -0.248167,0.09427 -0.30046,0.04116 -0.05243,-0.05311 -0.07036,-0.140587 0.0417,-0.299782 0.05515,-0.07824 0.124693,-0.218826 0.124693,-0.379379 0,-0.274521 -0.180386,-0.411168 -0.334284,-0.411168 -0.154442,0 -0.334284,0.136647 -0.334284,0.411168 z m 0.334284,4.060444 c -0.368105,0 -0.666531,0.297065 -0.666531,0.665851 0,0.367424 0.298426,0.665848 0.666531,0.665848 0.367428,0 0.665987,-0.298424 0.665987,-0.665848 0,-0.368786 -0.298559,-0.665851 -0.665987,-0.665851 z m 0,6.410888 c 2.668302,0 4.173863,0.509373 4.173863,0.509373 0.01453,-1.347729 0.0053,-2.099834 0.778593,-1.987095 -0.42244,-1.132843 1.398124,-1.577152 1.398124,-3.053516 0,-0.972428 -0.687721,-1.082451 -0.890653,-1.082451 -0.604321,0 -0.509373,0.392555 -1.023499,0.392555 -0.06357,0 -0.129984,-0.01589 -0.129984,0.03056 0,0.169793 0.144654,0.460339 0.38073,0.460339 0.315676,0 0.322331,-0.315811 0.556515,-0.315811 0.101459,0 0.247343,0.08231 0.247343,0.406002 0,0.627411 -0.411165,1.323826 -0.896624,1.8624 -0.111526,-0.153896 -0.263386,-0.249386 -0.445131,-0.249386 -0.28715,0 -0.539255,0.299782 -0.539255,0.669788 0,0.136651 0.02201,0.236214 0.07172,0.351536 -0.161913,0.09019 -0.305752,0.141945 -0.413881,0.141945 -0.218827,0 -0.549172,-0.08883 -0.549172,-0.569004 0,-1.069138 1.433985,-2.011002 1.433985,-3.366611 0,-0.647377 -0.432491,-1.292038 -1.335777,-1.292038 -0.969023,0 -0.788645,0.884815 -1.627003,0.884815 -0.03844,0 -0.069,0.01181 -0.069,0.04632 0,0.05569 0.14534,0.545231 0.579054,0.545231 0.464275,0 0.594946,-0.802498 1.005432,-0.802498 0.153898,0 0.383455,0.09019 0.383455,0.634067 0,0.423119 -0.209589,1.106221 -0.510731,1.761612 -0.1088,-0.108803 -0.256044,-0.1884 -0.422575,-0.1884 -0.359413,0 -0.617351,0.347458 -0.617351,0.762699 0,0.262699 0.103361,0.516029 0.281845,0.683102 -0.211626,0.270714 -0.427872,0.490902 -0.720999,0.490902 -0.579054,0 -0.834955,-0.328987 -0.834955,-0.68718 0,-0.387394 0.707001,-0.527981 0.707001,-1.132843 0,-0.411167 -0.267319,-0.643303 -0.524721,-0.643303 -0.276554,0 -0.418501,0.183102 -0.446347,0.183102 -0.02852,0 -0.170469,-0.183102 -0.447023,-0.183102 -0.257267,0 -0.524586,0.232136 -0.524586,0.643303 0,0.604862 0.707009,0.745449 0.707009,1.132843 0,0.358192 -0.255366,0.68718 -0.834284,0.68718 -0.293942,0 -0.510052,-0.220188 -0.721678,-0.490902 0.178347,-0.167073 0.281853,-0.420403 0.281853,-0.683102 0,-0.415241 -0.257946,-0.762699 -0.617497,-0.762699 -0.166393,0 -0.313637,0.0796 -0.422437,0.1884 -0.300456,-0.655391 -0.510052,-1.338493 -0.510052,-1.761612 0,-0.543876 0.229557,-0.634067 0.38332,-0.634067 0.409942,0 0.540613,0.802498 1.005567,0.802498 0.433714,0 0.578919,-0.48954 0.578919,-0.545231 0,-0.0345 -0.03111,-0.04632 -0.06955,-0.04632 -0.838352,0 -0.657974,-0.884815 -1.626324,-0.884815 -0.903286,0 -1.335777,0.64466 -1.335777,1.292038 0,1.355609 1.433985,2.297473 1.433985,3.366611 0,0.480171 -0.330338,0.569004 -0.549171,0.569004 -0.108803,0 -0.252106,-0.05175 -0.414561,-0.141945 0.04971,-0.115322 0.07158,-0.214885 0.07158,-0.351536 0,-0.370006 -0.251968,-0.669788 -0.53912,-0.669788 -0.181743,0 -0.333061,0.09549 -0.444442,0.249386 -0.486145,-0.538574 -0.896632,-1.234989 -0.896632,-1.8624 0,-0.323689 0.145884,-0.406002 0.246672,-0.406002 0.234718,0 0.241375,0.315811 0.557049,0.315811 0.235535,0 0.38006,-0.290546 0.38006,-0.460339 0,-0.04646 -0.06561,-0.03056 -0.129312,-0.03056 -0.51467,0 -0.41918,-0.392555 -1.023363,-0.392555 -0.203614,0 -0.890789,0.110023 -0.890789,1.082451 0,1.476364 1.820699,1.920673 1.398124,3.053516 0.773438,-0.11274 0.763378,0.639366 0.778048,1.987095 -1e-6,0 1.505568,-0.509373 4.174405,-0.509373 z m -4.892689,1.991036 c -0.726295,0.159195 -1.247621,0.309017 -1.480981,0.380737 0.01182,-0.320972 0.13393,-0.618172 0.419723,-0.68446 0.03654,-0.0094 0.04578,-0.05841 0.01195,-0.08096 -0.647243,-0.429775 -0.994159,0.393913 -1.004074,0.420536 -0.229557,-0.01725 -0.579055,0.05433 -0.579055,0.364712 0,0.927192 -2.121026,1.442001 -2.612467,1.517524 0.866069,0.334282 1.226976,1.425965 1.226976,1.425965 0.628767,-0.628769 1.364308,-1.183236 1.526077,-1.183236 0.16721,0 0.230788,0.209588 0.244091,0.334282 0.0039,0.04116 0.04239,0.05447 0.06832,0.01862 0.328986,-0.490768 0.171149,-0.602287 0.144526,-0.746811 -0.02119,-0.114097 0.01195,-0.543873 0.492121,-0.493481 v 6.18813 l -0.246672,0.04903 c -0.113421,0.01997 -1.018065,-0.749527 -2.054052,-1.465774 -1.036003,-0.71624 -1.592509,-0.287827 -2.774388,0.351539 -1.545367,0.836998 -3.109343,0.07824 -3.109343,0.07824 -1.333054,0.952453 -1.786734,3.706192 -1.786734,3.706192 -0.2652884,0.114097 -0.7056575,0.233497 -1.1227994,0.233497 -1.0175214,0 -1.2045627,-0.615463 -1.2045627,-0.984245 0,-1.570633 1.9665833,-2.244499 1.9665833,-3.79245 0,-0.375435 -0.1725073,-1.903557 -2.0627527,-1.903557 -0.242054,0 -1.6845956,-0.0026 -1.6912513,-0.0026 -0.7076876,0 -0.8846774,-0.509368 -0.9828844,-0.704429 -0.037761,-0.07552 -0.1101534,-0.03178 -0.082858,0.02785 0.054333,0.12999 -0.081629,0.327629 -0.081629,0.720322 0,0.628769 0.3694644,1.00679 1.057178,1.00679 0.3130941,0 0.6075788,-0.08884 0.7030692,-0.145882 0.063705,-0.03709 0.097528,0.0239 0.067645,0.0584 -0.2997756,0.350182 -0.323689,1.005432 -0.2003531,1.164635 0.029204,0.03844 0.065743,0.02784 0.072942,-0.0027 0.1658583,-0.664489 0.7879715,-1.2919 1.6256442,-1.2919 1.0253997,0 1.020102,0.871505 1.020102,1.082313 0,1.260254 -2.2132554,2.184731 -2.2132554,3.917145 0,1.757667 1.8564305,2.134331 2.9322243,1.855743 -0.063033,1.759034 -2.0766149,2.358597 -2.1376038,1.099701 -0.00462,-0.05963 -0.047813,-0.0743 -0.080956,0.0053 -0.2546859,0.622116 -0.1538982,1.168701 0.6301274,1.342438 0.052975,0.01331 0.027166,0.04237 -0.021326,0.07565 -0.7758756,0.493347 -0.355474,2.432762 -0.3170333,3.003128 0.058408,0.822464 -0.759304,0.724258 -0.8264055,0.700348 -0.033822,-0.01318 -0.066286,0.0041 -0.014534,0.06901 0.5797334,0.710945 1.2959785,0.06099 1.2959785,0.06099 0.5411568,0.169785 0.2056503,0.631485 -0.1552567,0.872856 -0.05637,0.03845 -0.051616,0.07566 0.00937,0.0796 0.080956,0.0053 0.9186354,0.07566 1.0677795,-0.591683 0.3708229,0.443085 0.9159193,0.281304 1.0307045,0.222901 0.1612263,-0.08218 0.9457951,-0.367432 1.0240345,0.514671 0.00462,0.06371 0.041837,0.02255 0.067645,-0.0106 0.592909,-0.745453 -0.04238,-1.205788 -0.3952716,-1.260124 0.028525,-0.04115 0.5040736,-0.435066 0.9311306,0.111389 0.02853,0.03708 0.05583,0.0451 0.06113,-0.02921 0.04903,-0.945801 -0.7203192,-1.031922 -1.2184166,-0.620758 -0.023228,-0.09685 -0.1890717,-0.628769 0.5630255,-0.610161 0.01793,0 0.05379,-0.02662 0.016028,-0.06371 -0.5836725,-0.616813 -1.0638399,-0.05569 -1.1753588,0.07824 -0.259984,0.306442 -0.9072256,0.184463 -0.9669919,0.176452 0.2029338,-3.287017 3.0987468,-2.12239 3.4966008,-3.719505 0.01861,-0.0849 0.05638,-0.05312 0.06438,-0.02255 0.109481,0.389976 1.092366,0.444442 1.272751,-0.323685 0.0099,-0.04768 0.0039,-0.0849 -0.03056,-0.04904 -0.838223,0.837006 -2.7258865,-1.78022 -0.149823,-3.90654 2.199265,-1.813232 4.170467,-0.802498 4.91999,-0.205513 0.0398,0.262558 -0.116815,0.347458 -0.216924,0.379242 -0.03586,0.01073 -0.04713,0.04388 0.0099,0.06642 0.209589,0.0796 0.504753,0.05434 0.643438,-0.141945 0.472155,0.330208 0.06765,0.745445 -0.12347,0.860908 -0.04835,0.03043 -0.02717,0.06235 0.01331,0.07022 0.433712,0.07824 0.790545,-0.364708 0.807795,-0.619392 l 0.07294,0.04115 v 1.867698 c 0,2.659607 3.068185,3.028252 6.435474,5.283349 3.36661,-2.255097 6.434795,-2.623742 6.434795,-5.283349 v -1.867698 l 0.07362,-0.04115 c 0.01725,0.254684 0.374083,0.697631 0.807932,0.619392 0.04034,-0.0079 0.06099,-0.0398 0.01318,-0.07022 -0.190971,-0.115463 -0.59549,-0.5307 -0.123337,-0.860908 0.138008,0.196281 0.433716,0.221542 0.643303,0.141945 0.05637,-0.02254 0.04578,-0.0557 0.0094,-0.06642 -0.09956,-0.03178 -0.256043,-0.116684 -0.216244,-0.379242 0.749523,-0.596985 2.720596,-1.607719 4.919991,0.205513 2.576065,2.12632 0.687721,4.743546 -0.14996,3.90654 -0.03518,-0.03586 -0.04047,0.0014 -0.03043,0.04904 0.180386,0.768127 1.163269,0.713661 1.272072,0.323685 0.0079,-0.03056 0.04646,-0.06235 0.06493,0.02255 0.397991,1.597115 3.293671,0.432488 3.496601,3.719505 -0.05962,0.008 -0.707008,0.12999 -0.966984,-0.176452 -0.111381,-0.133927 -0.591556,-0.695053 -1.175228,-0.07824 -0.03844,0.03709 -0.0027,0.06371 0.01589,0.06371 0.752102,-0.01861 0.586388,0.513313 0.562481,0.610161 -0.497417,-0.411164 -1.267452,-0.325043 -1.217739,0.620758 0.0046,0.0743 0.03247,0.06628 0.061,0.02921 0.427185,-0.546455 0.902057,-0.152542 0.931259,-0.111389 -0.35289,0.05434 -0.988308,0.514671 -0.395271,1.260124 0.02513,0.03314 0.06221,0.0743 0.06765,0.0106 0.07756,-0.882103 0.862129,-0.596855 1.02404,-0.514671 0.114643,0.0584 0.659195,0.220184 1.030697,-0.222901 0.148464,0.667344 0.986824,0.596985 1.067779,0.591683 0.06031,-0.0039 0.06494,-0.04115 0.0092,-0.0796 -0.360779,-0.241371 -0.696422,-0.703071 -0.155128,-0.872856 0,0 0.716243,0.649956 1.295978,-0.06099 0.05107,-0.06493 0.01847,-0.08218 -0.01467,-0.06901 -0.06697,0.02391 -0.885357,0.122116 -0.826405,-0.700348 0.03845,-0.570366 0.458977,-2.509781 -0.317035,-3.003128 -0.04904,-0.03328 -0.07498,-0.06235 -0.02119,-0.07565 0.78389,-0.173737 0.884811,-0.720322 0.630127,-1.342438 -0.03315,-0.0796 -0.07702,-0.06493 -0.08095,-0.0053 -0.06099,1.258896 -2.074577,0.659333 -2.138283,-1.099701 1.075794,0.278588 2.932217,-0.09807 2.932217,-1.855743 0,-1.732414 -2.213253,-2.656891 -2.213253,-3.917145 0,-0.210808 -0.0053,-1.082313 1.020099,-1.082313 0.837681,0 1.459794,0.627411 1.626191,1.2919 0.0067,0.03056 0.04373,0.04116 0.07295,0.0027 0.123329,-0.159203 0.09956,-0.814453 -0.200226,-1.164635 -0.03056,-0.0345 0.0033,-0.09549 0.06765,-0.0584 0.09481,0.05705 0.389977,0.145882 0.702389,0.145882 0.687721,0 1.057186,-0.378021 1.057186,-1.00679 0,-0.392693 -0.135288,-0.590332 -0.08095,-0.720322 0.02716,-0.05963 -0.04578,-0.103371 -0.08286,-0.02785 -0.09889,0.195061 -0.275875,0.704429 -0.983021,0.704429 -0.0065,0 -1.449196,0.0026 -1.691929,0.0026 -1.889568,0 -2.062618,1.528122 -2.062618,1.903557 0,1.547951 1.966449,2.221817 1.966449,3.79245 0,0.368782 -0.186363,0.984245 -1.204429,0.984245 -0.417141,0 -0.85751,-0.1194 -1.12225,-0.233497 0,0 -0.453544,-2.753739 -1.786739,-3.706192 0,0 -1.563976,0.758758 -3.109207,-0.07824 -1.182015,-0.639366 -1.739064,-1.067779 -2.775059,-0.351539 -1.035995,0.716247 -1.940639,1.48574 -2.053381,1.465774 L 31.468227,70.1362 v -6.188129 c 0.480305,-0.05039 0.514128,0.379383 0.492802,0.49348 -0.02649,0.144524 -0.184318,0.256043 0.144661,0.746811 0.02513,0.03586 0.0637,0.02255 0.06765,-0.01861 0.01317,-0.124695 0.07687,-0.334282 0.244083,-0.334282 0.161774,0 0.897988,0.554466 1.526756,1.183235 0,0 0.360772,-1.091683 1.226983,-1.425965 -0.492127,-0.07552 -2.613152,-0.590332 -2.613152,-1.517524 0,-0.310379 -0.349499,-0.381962 -0.578377,-0.364712 -0.01059,-0.02662 -0.357511,-0.850311 -1.004209,-0.420536 -0.03437,0.02255 -0.02513,0.07158 0.01195,0.08096 0.285927,0.06629 0.407906,0.363488 0.419867,0.68446 -0.618182,-0.189758 -3.25116,-0.928551 -6.373816,-0.928551 -1.515484,0 -2.912249,0.175087 -4.022545,0.375443 v 2.144932 h -0.870144 v -1.972561 l 0,0 M 14.379814,84.64801 C 14.148898,84.5551 13.996359,84.406502 13.996359,84.102776 v -1.331841 c -0.381283,-0.133926 -1.424612,-0.531921 -3.505839,-0.531921 -1.7296921,0 -2.2716633,0.389976 -2.2967926,0.527984 l -0.4596572,2.53627 c 0,0 0.7003522,-0.640724 3.2087718,-0.476234 3.021732,0.192337 6.152264,1.975143 6.152264,0.0743 v -1.118309 c -2.368512,0 -2.715292,0.753463 -2.715292,0.864982 z m 18.592079,-0.864982 v 1.118309 c 0,1.90084 3.130535,0.118034 6.152264,-0.0743 2.508285,-0.16449 3.208774,0.476234 3.208774,0.476234 l -0.460338,-2.53627 c -0.02459,-0.138008 -0.566422,-0.527984 -2.296791,-0.527984 -2.080685,0 -3.124558,0.397995 -3.505295,0.531921 v 1.33184 c 0,0.303727 -0.152542,0.452324 -0.38332,0.545235 0,-0.111519 -0.347587,-0.864982 -2.715294,-0.864982 z m -7.938461,-1.151322 c 4.865658,0 9.80616,0.254692 10.452179,0.988182 0.05162,0.05841 0.07295,-0.0012 0.07295,-0.04509 l 0.0012,-2.578652 c 0,-0.752106 -5.09766,-1.189888 -10.526344,-1.189888 -5.429226,0 -10.526343,0.437782 -10.526343,1.189888 l 0.0014,2.578652 c 0,0.04387 0.02119,0.1035 0.07294,0.04509 0.646019,-0.73349 5.586521,-0.988182 10.452043,-0.988182 z m -4.339579,-12.158645 -0.49212,-0.127274 -0.04116,0.06099 -0.571041,-0.250747 c 0,0 0.421217,-0.0026 0.51073,-0.0039 0.04782,0 0.05107,-0.03056 0.02581,-0.05434 -0.232682,-0.228195 -0.436295,-0.427192 -0.436295,-0.427192 0,0 0.232003,0.08625 0.563706,0.209587 0.03776,0.01331 0.05175,-0.01453 0.03382,-0.03979 -0.159197,-0.234856 -0.376122,-0.55053 -0.376122,-0.55053 0,0 0.459665,0.307793 0.553248,0.37014 0.02975,0.0212 0.05365,0.0014 0.04102,-0.02921 -0.122658,-0.303718 -0.261887,-0.647377 -0.261887,-0.647377 l 0.50462,0.476235 c 0.02323,0.02132 0.04918,0.0094 0.04252,-0.02255 -0.04903,-0.226837 -0.139229,-0.64724 -0.139229,-0.64724 l 0.370016,0.541153 c 0.02186,0.03178 0.04971,0.02255 0.05039,-0.01453 0.002,-0.106216 0.01195,-0.591682 0.01195,-0.591682 0,0 0.155935,0.358192 0.234854,0.541153 0.01589,0.03722 0.04374,0.0398 0.06357,-0.0079 0.02459,-0.05841 0.190438,-0.457618 0.190438,-0.457618 l 0.02187,0.615455 -0.08232,0.01589 -0.103369,0.741509 c 0.734854,-0.172371 1.650101,-1.428551 2.351805,-1.428551 0.835777,0 1.1395,0.978943 2.684187,0.48275 0.389297,0.577019 0.525944,1.078507 0.676447,1.772209 0.595625,0.561119 1.433305,0.374077 1.433305,-0.220184 0,-0.799919 -0.87218,-0.952461 -0.87218,-1.786743 0,-0.372727 0.261341,-0.908722 0.973646,-0.908722 0.376808,0 0.929231,0.161911 1.246944,0.161911 0.377342,0 0.457619,-0.273293 0.500136,-0.386032 0.03436,-0.0849 0.137189,-0.05705 0.127273,0.0092 -0.01263,0.07824 0.04374,0.187043 0.04374,0.366204 0,0.527847 -0.767997,0.596855 -0.863479,0.531921 -0.03981,-0.02784 -0.06833,0.01453 -0.03981,0.03709 0.115458,0.09291 0.08951,0.407226 -0.04781,0.607574 -0.01657,0.02255 -0.03776,0.01848 -0.04238,-0.0027 -0.08232,-0.378021 -0.525944,-0.845009 -0.9166,-0.845009 -0.143982,0 -0.429773,0.08367 -0.429773,0.415237 0,0.474869 0.951099,0.907364 0.951099,1.891602 0,1.02269 -1.013446,1.268135 -2.032192,1.013451 0.0345,0.968353 1.480313,1.544006 1.514805,0.851532 0.002,-0.04768 0.02785,-0.01847 0.04252,0.0014 0.214887,0.295845 0.11668,0.521324 -0.156616,0.635429 0.252113,0.114098 0.297203,0.622109 0.371503,0.925835 0.110703,0.45504 0.593588,0.202934 0.617495,0.189758 0.02581,-0.01589 0.03504,-0.0014 0.02445,0.02785 -0.182966,0.473511 -0.668567,0.29448 -0.668567,0.29448 -0.254687,0.179031 0.05311,0.339584 0.283889,0.408584 0.0345,0.0092 0.03246,0.0345 0.0053,0.0451 -0.170469,0.06235 -0.534502,0.176315 -0.710947,-0.128769 -0.130672,0.315811 -0.399893,0.306442 -0.504076,0.306442 -0.186361,0 -0.310377,0.190979 -0.266638,0.445664 0.0039,0.02268 -0.01195,0.02921 -0.02853,0.01603 -0.444307,-0.294487 -0.188942,-0.640724 -0.0099,-0.726974 -0.03124,-0.01861 -0.336995,-0.14589 -0.466994,0.212303 -0.0099,0.02785 -0.02717,0.02907 -0.03707,0.0026 -0.193704,-0.516021 0.229414,-0.665847 0.534495,-0.535858 -0.02119,-0.07294 -0.181065,-0.325042 -0.582316,-0.244087 -0.01779,0.0053 -0.02975,-0.0027 -0.01847,-0.02785 0.06561,-0.157837 0.26461,-0.391335 0.628768,-0.155258 0.185685,0.115455 0.506657,-0.05297 0.535861,-0.06764 -0.647372,-1.287964 -1.904917,-0.209594 -2.186089,-1.218963 -0.0053,-0.02132 -0.03043,-0.0398 -0.04768,0.01589 -0.0671,0.214889 -0.615593,0.229423 -0.716381,-0.193695 -0.0079,-0.03314 0.0046,-0.03709 0.02594,-0.01589 0.08014,0.08096 0.252649,0.153892 0.479488,-0.173729 0.149824,-0.216248 0.17115,-0.50544 0.17115,-0.701714 0,-0.784027 -0.782667,-2.098617 -2.003122,-2.098617 -0.771257,0 -1.60038,0.301147 -2.215838,0.749527 l 0.573079,0.131347 c -0.05447,0.579598 -0.611519,0.916603 -1.123608,0.774658 l 0.08898,-0.663269 c -0.08898,0.02784 -0.313772,0.107438 -0.433857,0.278588 -0.0086,0.01318 -0.02649,0.0092 -0.03043,-0.0053 -0.104855,-0.375443 0.205515,-0.565064 0.302364,-0.614235 0.01059,-0.0067 0.0099,-0.01453 -0.0099,-0.01453 -0.277914,-0.0106 -0.434393,0.193695 -0.478266,0.263924 -0.0072,0.01059 -0.01915,0.008 -0.02255,-0.0014 -0.02255,-0.06887 -0.07158,-0.262566 0.05841,-0.400574 z m 1.701847,4.478263 c -0.219505,0.267998 -0.411844,0.01196 -0.699674,0.01196 -0.271258,0 -0.316353,0.226837 -0.32301,0.317032 -0.0014,0.01589 -0.01059,0.02255 -0.02187,0.0053 -0.307118,-0.419182 0.03586,-0.647384 0.236076,-0.677811 -0.0292,-0.0292 -0.330889,-0.232132 -0.523228,0.04632 -0.01467,0.01997 -0.03314,0.01073 -0.03314,-0.01318 -0.0094,-0.519966 0.403151,-0.557182 0.675087,-0.328979 0.04917,-0.196281 -0.07824,-0.328987 -0.298424,-0.339584 -0.02649,0 -0.03056,-0.01725 -0.01983,-0.02921 0.09209,-0.09943 0.181608,-0.144523 0.271801,-0.144523 0.289865,0 0.326412,0.366066 0.515348,0.366066 0.28389,0 0.685139,-0.382096 0.723715,-0.423119 -0.008,-0.02132 -0.279272,-0.75618 -0.225618,-1.196548 0.0027,-0.01861 -0.0072,-0.02119 -0.01983,-0.01331 -0.136648,0.07702 -0.484787,0.0743 -0.484787,-0.35411 0,-0.03451 0.0099,-0.03709 0.02907,-0.0092 0.152548,0.210816 0.400028,-0.02663 0.523371,-0.165855 0.133924,-0.148598 0.847595,-1.18853 1.800725,-1.18853 0.209597,0.0014 0.480168,0.115456 0.697772,0.26664 -0.328988,0.400566 -0.0027,0.783889 0.241375,0.734855 0.02852,-0.0053 0.03383,0.02119 0.0067,0.03056 -1.259583,0.473518 -1.822609,0.663139 -1.822609,1.717743 0,0.550529 0.188265,0.855606 0.511274,0.784027 0.02459,-0.0067 0.03124,0.0039 0.01399,0.02254 -0.116673,0.139229 -0.252106,0.185684 -0.364167,0.185684 -0.261343,0 -0.30834,-0.143303 -0.448926,-0.143303 -0.144661,0 -0.613556,0.275879 -0.613556,0.50679 0,0.08748 0.05501,0.205513 0.220863,0.314316 0.0106,0.0067 0.0046,0.01589 -0.0046,0.01725 -0.105541,0.01984 -0.477586,0.05176 -0.563841,-0.299782 z m 3.316895,-10.25373 c -0.393913,-0.0239 -0.646011,0.06357 -0.634066,0.189621 0.19166,0.201713 0.446347,0.179168 0.634066,-0.189621 z m -1.453137,0.973648 c 0.277914,-0.07036 0.584359,-0.03722 0.616816,-0.02662 0.04374,0.01466 0.04252,0.08096 -0.0073,0.08761 -0.580276,0.0743 -0.606763,0.340943 -0.976907,0.340943 -0.244091,0 -0.508013,-0.245453 -0.408583,-0.607583 0.01263,-0.04646 0.04917,-0.04781 0.05977,-0.0039 0.03708,0.156478 0.262565,0.326271 0.716245,0.209587 z m -7.529741,12.857643 c 0.384678,0.492119 0.752783,0.02921 1.256724,0.02921 0.245449,0 0.54591,0.08353 0.602287,0.577019 0.0027,0.02512 0.0239,0.03314 0.04781,0 0.549171,-0.750885 -0.07633,-1.174004 -0.43643,-1.22834 0.07757,-0.07036 0.614778,-0.400566 0.955045,0.08748 0.0186,0.02663 0.05569,0.01861 0.05569,-0.01847 0,-0.949883 -0.711634,-1.016167 -1.226984,-0.605004 -0.09685,-0.370003 0.18243,-0.614097 0.541157,-0.614097 0.0432,0 0.05841,-0.02921 0.03586,-0.05433 -0.636103,-0.681885 -1.112331,0.175087 -1.22032,0.311737 -0.254135,0.338218 -1.162725,-0.297203 -1.525528,-0.675225 0,0 0.803172,-0.841079 0.803172,-1.610435 0,-0.0451 -0.0053,-0.110023 -0.0053,-0.13665 0,-0.02377 0.01059,-0.03314 0.03246,-0.01983 0.0796,0.0451 0.192339,0.07824 0.295843,0.07688 0.183783,0 0.530561,-0.05827 0.530561,-0.710946 0,-0.04903 -0.02255,-0.04646 -0.04374,-0.01725 -0.09549,0.138001 -0.200895,0.168427 -0.281845,0.168427 -0.648064,0 -2.001636,-2.162178 -3.597397,-2.162178 -0.416598,0 -1.205786,0.30114 -1.604454,0.732269 0.193018,0.114105 0.229422,0.347595 0.20959,0.518608 -0.0292,0.274658 -0.246672,0.409943 -0.469566,0.47229 -0.03981,0.0092 -0.04307,0.03844 0,0.0557 0.805887,0.307792 2.272199,0.863487 2.605268,1.150093 0.393914,0.339584 0.317026,0.984245 0.08883,1.871635 -0.220863,0.852898 -0.692474,0.736214 -0.866204,0.708374 -0.02526,-0.0039 -0.03382,0.01195 -0.01793,0.03178 0.208232,0.262696 0.461016,0.350174 0.677805,0.350174 0.4185,0 0.575115,-0.259986 0.791903,-0.259986 0.364847,0 1.128226,0.522689 1.128226,0.920677 0,0.222763 -0.174409,0.425834 -0.399212,0.571716 -0.01467,0.0106 -0.01195,0.02785 0.0099,0.03178 0.174409,0.02921 0.888752,0.0902 1.026758,-0.553108 z m 17.633644,0.553108 c 0.02187,-0.0039 0.02513,-0.02119 0.0106,-0.03178 -0.224804,-0.145882 -0.399891,-0.348953 -0.399891,-0.571716 0,-0.397988 0.763378,-0.920677 1.12809,-0.920677 0.216922,0 0.373401,0.259986 0.791904,0.259986 0.216923,0 0.46957,-0.08748 0.678619,-0.350174 0.01522,-0.01984 0.0065,-0.03573 -0.01793,-0.03178 -0.173867,0.02784 -0.646012,0.144524 -0.866204,-0.708374 -0.228199,-0.88739 -0.30508,-1.532051 0.08884,-1.871635 0.332924,-0.286606 1.798694,-0.8423 2.605267,-1.150093 0.04307,-0.01725 0.0398,-0.04646 0,-0.0557 -0.222901,-0.06235 -0.440369,-0.197632 -0.469575,-0.47229 -0.01997,-0.171013 0.01589,-0.404503 0.209591,-0.518608 -0.39867,-0.431129 -1.188533,-0.732269 -1.605133,-0.732269 -1.59576,0 -2.94947,2.162178 -3.597389,2.162178 -0.08096,0 -0.186363,-0.03043 -0.281174,-0.168427 -0.02133,-0.02921 -0.04387,-0.03178 -0.04387,0.01725 0,0.652672 0.346237,0.710946 0.530017,0.710946 0.104046,0.0014 0.216111,-0.03178 0.296387,-0.07688 0.02132,-0.01331 0.03192,-0.0039 0.03192,0.01983 0,0.02663 -0.0053,0.09155 -0.0053,0.13665 0,0.769356 0.803856,1.610435 0.803856,1.610435 -0.363487,0.378022 -1.272206,1.013443 -1.526215,0.675225 -0.108124,-0.13665 -0.58435,-0.993622 -1.219639,-0.311737 -0.02255,0.02512 -0.0073,0.05433 0.03572,0.05433 0.358191,0 0.637461,0.244094 0.541292,0.614097 -0.515348,-0.411163 -1.226974,-0.344879 -1.226974,0.605004 0,0.03708 0.03708,0.0451 0.05569,0.01847 0.339582,-0.488044 0.876798,-0.157837 0.954359,-0.08748 -0.360091,0.05434 -0.984921,0.477455 -0.435749,1.22834 0.02323,0.03314 0.04442,0.02512 0.04781,0 0.05637,-0.493485 0.35684,-0.577019 0.601467,-0.577019 0.504074,0 0.872181,0.462914 1.256859,-0.02921 0.138683,0.643303 0.853027,0.582313 1.026756,0.553108 z M 21.448675,66.607674 c -0.05107,0.07036 -0.218962,-0.0026 -0.282532,-0.03178 -0.01467,-0.0067 -0.01725,0 -0.01195,0.0106 0.04048,0.09019 0.202255,0.360771 0.442408,0.360771 0.108665,0 0.267181,-0.0637 0.312278,-0.13665 0,0 0.939825,0.305076 1.40478,0.433845 -0.180386,0.240021 -0.293125,0.529206 -0.315674,0.843659 C 22.62322,67.8572 21.123629,67.053337 21.123629,67.053337 l -0.464955,0.635429 c -0.07688,0.104859 -0.448248,-0.165855 -0.371366,-0.271942 l 0.354793,-0.485458 c -0.117359,-0.124695 -0.40057,-0.04646 -0.477451,-0.02391 -0.01073,0.0027 -0.02064,-0.0026 -0.01073,-0.02119 0.04523,-0.09549 0.221545,-0.389977 0.663271,-0.257409 0.0014,-0.269218 -0.40057,-0.18296 -0.505296,-0.153762 -0.01263,0.0026 -0.01657,-0.0027 -0.0053,-0.01466 0.108667,-0.116684 0.43508,-0.380745 0.800468,-0.164497 l 0.15919,-0.218827 -0.321652,-0.338218 0.201576,-0.277237 0.225481,0.303718 1.731051,-2.370411 c 0.04251,-0.05841 0.385357,-0.15784 0.514804,-0.185684 0.01385,0.132572 0.02839,0.488045 -0.01263,0.546456 l -1.702524,2.391742 0.358732,0.118035 -0.198315,0.278457 -0.423797,-0.197639 -0.190302,0.261345 z m 6.070629,-0.387261 c 0,0.217468 0.133931,0.535858 0.424477,0.444313 0.01468,-0.0067 0.02784,-0.0026 0.02459,0.01195 -0.04442,0.242737 -0.476908,0.464279 -0.674546,0.17781 -0.175087,0.370003 -0.134609,0.71624 0.244091,0.920533 0.02051,0.01196 0.02445,0.03844 6.81e-4,0.05569 -0.225483,0.16449 -0.577017,0.127411 -0.740831,-0.1884 -0.310513,0.233498 -0.265417,0.732269 -0.07702,0.902061 0,0.0027 -0.859541,0.510735 -1.6395,0.147248 -0.517385,-0.248032 -0.938467,-0.565064 -1.605676,-0.513314 0.09278,-0.935211 0.560445,-1.181877 1.419994,-1.315948 0.68704,-0.111382 0.774652,-0.427055 0.676445,-0.665848 -0.233496,-0.06235 -0.660553,0.152535 -0.660553,0.152535 -0.07702,-0.128632 0.0345,-0.262696 0.0345,-0.262696 -0.04252,-0.05175 -0.0637,-0.224128 -0.0637,-0.224128 0.480167,0 0.565063,-0.106079 0.565063,-0.106079 0.08557,-0.500138 -0.423798,-0.553246 -0.811737,-0.28389 -0.180386,-0.159203 -0.151316,-0.371506 -0.151316,-0.371506 -0.05366,-0.02649 -0.08748,-0.110023 -0.08748,-0.145882 0,-0.118042 0.569681,-0.43901 0.716245,-0.476234 0.03722,-0.16571 0.244091,-0.395271 0.848954,-0.340797 0.07226,-0.160557 -0.04509,-0.745591 -0.119399,-0.903428 -0.02377,-0.04768 0.0106,-0.0743 0.06371,-0.04116 0.211635,0.134067 0.421896,0.627548 0.565063,0.636783 0,0 0.680521,-0.35683 0.713665,-0.337002 0.03246,0.01861 0.128634,0.778729 0.128634,0.778729 0.09033,0.111381 0.615593,0.0026 0.845014,0.100792 0.05841,0.02526 0.05569,0.06764 0.0039,0.07565 -0.171692,0.0292 -0.719505,0.265282 -0.809698,0.416466 0.314316,0.470932 0.166395,1.164627 0.166395,1.355743 z"
       id="path13"
       style="fill:#ffffff" /></g><g
     transform="matrix(0.850001,0,0,0.850001,0,-1.2289188e-6)"
     clip-path="url(#clipPath3891)"
     id="Isolatiemodus"><g
       id="g16"><rect
         width="314"
         height="125"
         x="0"
         y="0"
         id="rect18"
         style="fill:none" /></g><g
       id="g20"
       style="fill:#000000"><path
         d="M 61.426269,64.480469 C 62,64.30957 62.294434,64.030273 62.34082,63.56543 l 0.682617,-7.922364 -0.899414,-0.263671 v -0.449219 c 0.697754,-0.09326 1.550293,-0.108887 2.108399,-0.108887 h 0.558105 l 2.434082,7.519043 h 0.01563 l 2.356446,-7.519043 h 0.666503 c 0.558106,0 1.255372,0.01563 1.875489,0.108887 v 0.449219 l -0.960938,0.232421 0.682129,8.526856 0.898926,0.170898 v 0.340821 c -0.37207,0.170898 -0.898926,0.263672 -1.503418,0.263672 -0.713379,0 -1.162598,-0.03125 -1.705566,-0.155274 v -0.293945 c 0.651367,-0.155274 0.9458,-0.542969 0.915039,-1.178711 l -0.387696,-7.038574 h -0.03125 l -2.759277,8.60498 -0.60498,0.07715 -2.790039,-8.666504 -0.01563,0.01563 -0.480469,7.76709 1.007324,0.263671 v 0.340821 c -0.666504,0.202148 -1.038574,0.263672 -1.782715,0.263672 -0.356445,0 -0.806152,-0.06152 -1.193848,-0.155274 v -0.27832 z"
         id="path22"
         style="fill:#000000" /><path
         d="m 73.935547,64.495117 c 0.417969,-0.154297 0.821289,-0.464844 0.821289,-0.836914 v -5.240234 l -0.992187,-0.418457 v -0.325684 c 0.697265,-0.20166 1.411132,-0.294433 1.844726,-0.294433 h 0.496094 l -0.07715,0.836914 v 5.892089 l 0.868164,0.232422 v 0.293946 c -0.527344,0.186523 -1.007813,0.263672 -1.798828,0.263672 -0.356446,0 -0.805665,-0.03125 -1.16211,-0.139649 v -0.263672 z m 0.65039,-9.425781 c 0,-0.480469 0.341797,-0.914551 0.88379,-0.914551 0.43457,0 0.80664,0.325684 0.80664,0.836914 0,0.542969 -0.37207,0.961426 -0.868164,0.961426 -0.464844,0 -0.822266,-0.37207 -0.822266,-0.883789 z"
         id="path24"
         style="fill:#000000" /><path
         d="m 78.166016,64.495117 c 0.40332,-0.154297 0.822265,-0.464844 0.822265,-0.836914 v -5.240234 l -1.007812,-0.418457 v -0.340821 c 0.71289,-0.20166 1.410156,-0.279296 1.860351,-0.279296 h 0.372071 v 0.836914 c 0.526367,-0.526856 1.394531,-0.868164 2.293945,-0.868164 1.287109,0 2.170898,0.821777 2.170898,2.418945 v 4.341308 l 0.805664,0.232422 v 0.293946 c -0.418945,0.170898 -0.960937,0.263672 -1.627929,0.263672 -0.325196,0 -0.697266,-0.03125 -1.007813,-0.139649 v -0.263672 c 0.387696,-0.169922 0.558594,-0.464844 0.558594,-1.022461 v -2.961425 c 0,-1.519532 -0.635742,-2.093262 -1.550781,-2.093262 -0.634766,0 -1.25586,0.217285 -1.59668,0.480957 v 5.209473 l 0.868164,0.232421 v 0.293946 c -0.527344,0.186523 -1.023437,0.263672 -1.797851,0.263672 -0.372071,0 -0.806641,-0.03125 -1.163086,-0.139649 v -0.263672 z"
         id="path26"
         style="fill:#000000" /><path
         d="M 86.706055,64.495117 C 87.125,64.34082 87.527344,64.030273 87.527344,63.658203 v -5.240234 l -0.992188,-0.418457 v -0.325684 c 0.698242,-0.20166 1.411133,-0.294433 1.845703,-0.294433 h 0.496094 l -0.07813,0.836914 v 5.892089 l 0.868164,0.232422 v 0.293946 c -0.526367,0.186523 -1.007812,0.263672 -1.797851,0.263672 -0.356446,0 -0.806641,-0.03125 -1.163086,-0.139649 v -0.263672 z m 0.651367,-9.425781 c 0,-0.480469 0.34082,-0.914551 0.883789,-0.914551 0.433594,0 0.805664,0.325684 0.805664,0.836914 0,0.542969 -0.37207,0.961426 -0.868164,0.961426 -0.464844,0 -0.821289,-0.37207 -0.821289,-0.883789 z"
         id="path28"
         style="fill:#000000" /><path
         d="m 90.844727,63.084961 c 0.697265,0.651367 1.364257,0.976562 2.185547,0.976562 0.868164,0 1.318359,-0.418945 1.318359,-0.960937 0,-0.543457 -0.310547,-0.884277 -1.333984,-1.31836 l -0.774415,-0.325683 c -0.899414,-0.387695 -1.395507,-1.038574 -1.395507,-1.922363 0,-1.22461 1.08496,-2.278809 2.697265,-2.278809 1.240235,0 1.736328,0.37207 1.736328,0.960938 0,0.23291 -0.03125,0.43457 -0.07715,0.651367 -0.496094,-0.340821 -1.178711,-0.588867 -1.767578,-0.588867 -0.992188,0 -1.457031,0.433593 -1.457031,0.960937 0,0.558106 0.279296,0.868164 1.208984,1.224609 l 0.836914,0.325684 c 1.116211,0.434082 1.535156,1.007812 1.535156,1.922363 0,1.193848 -1.147461,2.278809 -2.883789,2.278809 -1.364258,0 -1.96875,-0.433594 -1.96875,-1.270508 0,-0.217773 0.04687,-0.46582 0.139649,-0.635742 z"
         id="path30"
         style="fill:#000000" /><path
         d="m 97.355469,60.526367 0.0459,-2.062011 H 96.54883 v -0.511231 l 1.674805,-1.658691 0.511719,-0.0625 -0.0625,1.395507 h 2.046876 l -0.1084,0.836914 h -1.984375 l -0.03125,1.953614 c -0.01563,0.650879 -0.01563,1.240234 -0.01563,1.813965 0,1.256347 0.37207,1.689941 0.945313,1.689941 0.450195,0 0.837892,-0.155273 1.147462,-0.40332 l 0.15527,0.0625 c -0.0625,0.914062 -0.60449,1.379882 -1.674803,1.379882 -1.240234,0 -1.844726,-0.651367 -1.844726,-2.155761 0,-0.744141 0.03125,-1.56543 0.04687,-2.278809 z"
         id="path32"
         style="fill:#000000" /><path
         d="m 104.60938,57.270996 c 1.6748,0 2.68164,1.116211 2.68164,2.898926 0,0.294433 0,0.604492 -0.0147,0.992187 h -4.57324 c 0,1.736328 1.00683,2.744141 2.29394,2.744141 0.75977,0 1.59668,-0.263672 2.18555,-0.666016 0.0312,0.07715 0.0625,0.248047 0.0625,0.402344 0,0.698242 -1.02344,1.348633 -2.66699,1.348633 -1.76661,0 -3.20899,-1.378906 -3.20899,-3.550293 0,-2.697266 1.62793,-4.169922 3.24024,-4.169922 z m 1.4414,3.084961 c 0,-1.519531 -0.65039,-2.248047 -1.56543,-2.248047 -0.85254,0 -1.75195,1.023438 -1.75195,2.248047 h 3.31738 z"
         id="path34"
         style="fill:#000000" /><path
         d="m 108.5459,64.495117 c 0.40332,-0.154297 0.82129,-0.464844 0.82129,-0.836914 v -5.240234 l -1.00684,-0.418457 v -0.340821 c 0.71289,-0.20166 1.41016,-0.279296 1.86035,-0.279296 h 0.37207 v 1.08496 h 0.0147 l 0.43457,-0.480468 c 0.41895,-0.449219 0.83692,-0.682129 1.36426,-0.682129 0.54297,0 0.80664,0.23291 0.80664,0.666504 0,0.294922 -0.0937,0.635742 -0.24805,0.930664 -0.29492,-0.23291 -0.63574,-0.356934 -0.96191,-0.356934 -0.48047,0 -0.92969,0.217285 -1.36426,0.635742 v 4.930664 l 1.07031,0.232422 v 0.293946 c -0.52734,0.186523 -1.03906,0.263672 -1.92285,0.263672 -0.44922,0 -0.88379,-0.03125 -1.24023,-0.139649 v -0.263672 z"
         id="path36"
         style="fill:#000000" /><path
         d="m 113.76855,64.495117 c 0.41895,-0.154297 0.82129,-0.464844 0.82129,-0.836914 v -5.240234 l -0.99218,-0.418457 v -0.325684 c 0.69824,-0.20166 1.41113,-0.294433 1.8457,-0.294433 h 0.49609 l -0.0781,0.836914 v 5.892089 l 0.86816,0.232422 v 0.293946 c -0.52636,0.186523 -1.00781,0.263672 -1.79785,0.263672 -0.35644,0 -0.80664,-0.03125 -1.16309,-0.139649 v -0.263672 z m 0.65137,-9.425781 c 0,-0.480469 0.34082,-0.914551 0.88379,-0.914551 0.43359,0 0.80567,0.325684 0.80567,0.836914 0,0.542969 -0.37208,0.961426 -0.86817,0.961426 -0.46484,0 -0.82129,-0.37207 -0.82129,-0.883789 z"
         id="path38"
         style="fill:#000000" /><path
         d="m 121.10059,57.270996 c 1.6748,0 2.68261,1.116211 2.68261,2.898926 0,0.294433 0,0.604492 -0.0156,0.992187 h -4.57422 c 0,1.736328 1.00781,2.744141 2.29492,2.744141 0.75977,0 1.59668,-0.263672 2.18555,-0.666016 0.0312,0.07715 0.0625,0.248047 0.0625,0.402344 0,0.698242 -1.02344,1.348633 -2.66699,1.348633 -1.76661,0 -3.20899,-1.378906 -3.20899,-3.550293 0,-2.697266 1.62793,-4.169922 3.24024,-4.169922 z m 1.44238,3.084961 c 0,-1.519531 -0.65137,-2.248047 -1.56641,-2.248047 -0.85254,0 -1.75195,1.023438 -1.75195,2.248047 h 3.31836 z"
         id="path40"
         style="fill:#000000" /><path
         d="m 127.6875,58.201172 -0.63477,-0.449707 v -0.37207 h 2.96094 v 0.37207 l -0.88379,0.37207 1.67383,4.914551 h 0.0156 l 1.7207,-4.868164 -0.88379,-0.418457 v -0.37207 h 2.3877 v 0.37207 l -0.4336,0.356445 -2.75976,6.837402 -0.52735,0.03125 -2.63574,-6.77539 z"
         id="path42"
         style="fill:#000000" /><path
         d="m 138.33594,60.743652 v -0.418945 c 0,-1.673828 -0.40235,-2.030762 -1.37891,-2.030762 -0.85351,0 -1.6748,0.356934 -2.32617,1.007813 -0.0312,-0.154785 -0.0459,-0.294434 -0.0459,-0.465332 0,-0.992188 0.72852,-1.56543 2.54199,-1.56543 1.56641,0 2.4961,0.790527 2.4961,2.077148 0,0.341309 -0.0469,1.116211 -0.0625,1.565918 l -0.0459,2.511719 c 0.1084,0.279297 0.34082,0.573242 0.62012,0.791016 -0.23243,0.27832 -0.65137,0.588867 -1.05469,0.790039 -0.29395,-0.185547 -0.52637,-0.433594 -0.71289,-0.759766 -0.4336,0.418946 -1.27149,0.744141 -2.09278,0.744141 -1.16308,0 -1.96875,-0.728516 -1.96875,-1.720703 0,-1.364258 1.48829,-2.526856 4.03028,-2.526856 z m -1.48828,3.317871 c 0.48046,0 1.10156,-0.186523 1.48828,-0.418945 v -2.17041 c -1.75196,0 -2.69727,0.728516 -2.69727,1.565918 0,0.620117 0.41895,1.023437 1.20899,1.023437 z"
         id="path44"
         style="fill:#000000" /><path
         d="m 141.48242,64.495117 c 0.40332,-0.154297 0.82227,-0.464844 0.82227,-0.836914 v -5.240234 l -1.00782,-0.418457 v -0.340821 c 0.7129,-0.20166 1.41016,-0.279296 1.86036,-0.279296 h 0.37207 v 0.836914 c 0.52636,-0.526856 1.39453,-0.868164 2.29394,-0.868164 1.28711,0 2.1709,0.821777 2.1709,2.418945 v 4.341308 l 0.80566,0.232422 v 0.293946 c -0.41894,0.170898 -0.96093,0.263672 -1.62793,0.263672 -0.32519,0 -0.69726,-0.03125 -1.00781,-0.139649 v -0.263672 c 0.3877,-0.169922 0.5586,-0.464844 0.5586,-1.022461 v -2.961425 c 0,-1.519532 -0.63575,-2.093262 -1.55078,-2.093262 -0.63477,0 -1.25586,0.217285 -1.59668,0.480957 v 5.209473 l 0.86816,0.232421 v 0.293946 c -0.52734,0.186523 -1.02344,0.263672 -1.79785,0.263672 -0.37207,0 -0.80664,-0.03125 -1.16309,-0.139649 v -0.263672 z"
         id="path46"
         style="fill:#000000" /><path
         d="m 153.0918,64.464844 c 0.52734,-0.124024 0.89941,-0.450196 0.89941,-1.147461 v -7.62793 l -0.97656,-0.325683 v -0.340821 c 0.97656,-0.186035 1.62793,-0.216797 3.10058,-0.216797 2.24805,0 3.33301,0.82129 3.33301,2.293946 0,1.178711 -1.05469,2.263672 -2.26367,2.496093 v 0.01563 c 1.62793,0 2.69727,0.899415 2.69727,2.340821 0,1.689941 -1.58106,3.008301 -3.98438,3.008301 -1.10059,0 -1.96875,-0.03125 -2.80566,-0.202149 v -0.293945 z m 4.94531,-7.225098 c 0,-0.992187 -0.68164,-1.59668 -2.03125,-1.59668 -0.2168,0 -0.43359,0.01563 -0.69727,0.04639 v 3.689941 c 1.68946,0 2.72852,-0.791015 2.72852,-2.139648 z m -1.90625,6.868652 c 1.25488,0 2.27832,-0.83789 2.27832,-2.016113 0,-1.302246 -0.89941,-1.96875 -2.60449,-1.96875 h -0.4961 v 3.922363 c 0.31055,0.04687 0.52735,0.0625 0.82227,0.0625 z"
         id="path48"
         style="fill:#000000" /><path
         d="m 161.36816,64.495117 c 0.41895,-0.154297 0.82129,-0.464844 0.82129,-0.836914 v -5.240234 l -0.99218,-0.418457 v -0.325684 c 0.69824,-0.20166 1.41113,-0.294433 1.8457,-0.294433 h 0.49609 l -0.0781,0.836914 v 5.892089 l 0.86816,0.232422 v 0.293946 c -0.52637,0.186523 -1.00781,0.263672 -1.79785,0.263672 -0.35645,0 -0.80664,-0.03125 -1.16309,-0.139649 v -0.263672 z m 0.65137,-9.425781 c 0,-0.480469 0.34082,-0.914551 0.88379,-0.914551 0.43359,0 0.80566,0.325684 0.80566,0.836914 0,0.542969 -0.37207,0.961426 -0.86816,0.961426 -0.46484,0 -0.82129,-0.37207 -0.82129,-0.883789 z"
         id="path50"
         style="fill:#000000" /><path
         d="m 165.59961,64.495117 c 0.40332,-0.154297 0.82226,-0.464844 0.82226,-0.836914 v -5.240234 l -1.00781,-0.418457 v -0.340821 c 0.71289,-0.20166 1.41016,-0.279296 1.86035,-0.279296 h 0.37207 v 0.836914 c 0.52637,-0.526856 1.39454,-0.868164 2.29395,-0.868164 1.28711,0 2.1709,0.821777 2.1709,2.418945 v 4.341308 l 0.80566,0.232422 v 0.293946 c -0.41894,0.170898 -0.96094,0.263672 -1.62793,0.263672 -0.32519,0 -0.69726,-0.03125 -1.00781,-0.139649 v -0.263672 c 0.3877,-0.169922 0.55859,-0.464844 0.55859,-1.022461 v -2.961425 c 0,-1.519532 -0.63574,-2.093262 -1.55078,-2.093262 -0.63476,0 -1.25586,0.217285 -1.59668,0.480957 v 5.209473 l 0.86817,0.232421 v 0.293946 c -0.52735,0.186523 -1.02344,0.263672 -1.79785,0.263672 -0.37207,0 -0.80665,-0.03125 -1.16309,-0.139649 v -0.263672 z"
         id="path52"
         style="fill:#000000" /><path
         d="m 174.13965,64.495117 c 0.40332,-0.154297 0.82129,-0.464844 0.82129,-0.836914 v -5.240234 l -1.00684,-0.418457 v -0.340821 c 0.71289,-0.20166 1.41016,-0.279296 1.86035,-0.279296 h 0.37207 v 0.836914 c 0.52637,-0.526856 1.39453,-0.868164 2.29395,-0.868164 1.28711,0 2.1709,0.821777 2.1709,2.418945 v 4.341308 l 0.80566,0.232422 v 0.293946 c -0.41797,0.170898 -0.96094,0.263672 -1.62793,0.263672 -0.32519,0 -0.69726,-0.03125 -1.00781,-0.139649 v -0.263672 c 0.38769,-0.169922 0.55859,-0.464844 0.55859,-1.022461 v -2.961425 c 0,-1.519532 -0.63574,-2.093262 -1.55078,-2.093262 -0.63574,0 -1.25488,0.217285 -1.59668,0.480957 v 5.209473 l 0.86817,0.232421 v 0.293946 c -0.52637,0.186523 -1.02246,0.263672 -1.79786,0.263672 -0.37207,0 -0.80664,-0.03125 -1.16308,-0.139649 v -0.263672 z"
         id="path54"
         style="fill:#000000" /><path
         d="m 185.78125,57.270996 c 1.6748,0 2.68164,1.116211 2.68164,2.898926 0,0.294433 0,0.604492 -0.0146,0.992187 H 183.875 c 0,1.736328 1.00684,2.744141 2.29395,2.744141 0.75976,0 1.59667,-0.263672 2.18554,-0.666016 0.0312,0.07715 0.0625,0.248047 0.0625,0.402344 0,0.698242 -1.02344,1.348633 -2.66699,1.348633 -1.7666,0 -3.20898,-1.378906 -3.20898,-3.550293 0,-2.697266 1.62793,-4.169922 3.24023,-4.169922 z m 1.44141,3.084961 c 0,-1.519531 -0.65039,-2.248047 -1.56543,-2.248047 -0.85254,0 -1.75196,1.023438 -1.75196,2.248047 h 3.31739 z"
         id="path56"
         style="fill:#000000" /><path
         d="m 189.7168,64.495117 c 0.40332,-0.154297 0.82226,-0.464844 0.82226,-0.836914 v -5.240234 l -1.00781,-0.418457 v -0.340821 c 0.71289,-0.20166 1.41016,-0.279296 1.86035,-0.279296 h 0.37207 v 0.836914 c 0.52637,-0.526856 1.39453,-0.868164 2.29395,-0.868164 1.28711,0 2.1709,0.821777 2.1709,2.418945 v 4.341308 l 0.80566,0.232422 v 0.293946 c -0.41895,0.170898 -0.96094,0.263672 -1.62793,0.263672 -0.3252,0 -0.69727,-0.03125 -1.00781,-0.139649 v -0.263672 c 0.38769,-0.169922 0.55859,-0.464844 0.55859,-1.022461 v -2.961425 c 0,-1.519532 -0.63574,-2.093262 -1.55078,-2.093262 -0.63477,0 -1.25586,0.217285 -1.59668,0.480957 v 5.209473 l 0.86816,0.232421 v 0.293946 c -0.52734,0.186523 -1.02343,0.263672 -1.79785,0.263672 -0.37207,0 -0.80664,-0.03125 -1.16308,-0.139649 v -0.263672 z"
         id="path58"
         style="fill:#000000" /><path
         d="m 198.25781,64.495117 c 0.40332,-0.154297 0.82227,-0.464844 0.82227,-0.836914 v -8.991699 l -1.00781,-0.418945 v -0.340821 c 0.69726,-0.20166 1.42578,-0.279297 1.86035,-0.279297 h 0.49609 l -0.0781,0.868165 v 9.612793 l 0.86816,0.232421 v 0.293946 c -0.52734,0.186523 -1.02344,0.263672 -1.79785,0.263672 -0.37207,0 -0.80664,-0.03125 -1.16309,-0.139649 v -0.263672 z"
         id="path60"
         style="fill:#000000" /><path
         d="m 206.24023,60.743652 v -0.418945 c 0,-1.673828 -0.40234,-2.030762 -1.3789,-2.030762 -0.85352,0 -1.67481,0.356934 -2.32617,1.007813 -0.0312,-0.154785 -0.0459,-0.294434 -0.0459,-0.465332 0,-0.992188 0.72851,-1.56543 2.54199,-1.56543 1.56641,0 2.49609,0.790527 2.49609,2.077148 0,0.341309 -0.0469,1.116211 -0.0625,1.565918 l -0.0459,2.511719 c 0.10839,0.279297 0.34082,0.573242 0.62011,0.791016 -0.23242,0.27832 -0.65136,0.588867 -1.05468,0.790039 -0.29395,-0.185547 -0.52637,-0.433594 -0.7129,-0.759766 -0.43359,0.418946 -1.27148,0.744141 -2.09277,0.744141 -1.16308,0 -1.96875,-0.728516 -1.96875,-1.720703 0,-1.364258 1.48828,-2.526856 4.03027,-2.526856 z m -1.48828,3.317871 c 0.48047,0 1.10157,-0.186523 1.48828,-0.418945 v -2.17041 c -1.75195,0 -2.69726,0.728516 -2.69726,1.565918 0,0.620117 0.41894,1.023437 1.20898,1.023437 z"
         id="path62"
         style="fill:#000000" /><path
         d="m 209.38672,64.495117 c 0.40332,-0.154297 0.82226,-0.464844 0.82226,-0.836914 v -5.240234 l -1.00781,-0.418457 v -0.340821 c 0.71289,-0.20166 1.41016,-0.279296 1.86035,-0.279296 h 0.37207 v 0.836914 c 0.52637,-0.526856 1.39453,-0.868164 2.29395,-0.868164 1.28711,0 2.1709,0.821777 2.1709,2.418945 v 4.341308 l 0.80566,0.232422 v 0.293946 c -0.41894,0.170898 -0.96094,0.263672 -1.62793,0.263672 -0.32519,0 -0.69726,-0.03125 -1.00781,-0.139649 v -0.263672 c 0.38769,-0.169922 0.55859,-0.464844 0.55859,-1.022461 v -2.961425 c 0,-1.519532 -0.63574,-2.093262 -1.55078,-2.093262 -0.63476,0 -1.25586,0.217285 -1.59668,0.480957 v 5.209473 l 0.86817,0.232421 v 0.293946 c -0.52735,0.186523 -1.02344,0.263672 -1.79786,0.263672 -0.37207,0 -0.80664,-0.03125 -1.16308,-0.139649 v -0.263672 z"
         id="path64"
         style="fill:#000000" /><path
         d="m 221.49219,57.286621 c 0.37207,0 0.82226,0.04639 1.07031,0.108398 v -2.728515 l -1.05469,-0.418945 v -0.340821 c 0.71289,-0.20166 1.47266,-0.279297 1.92285,-0.279297 h 0.4961 l -0.0928,0.868165 v 8.8833 c 0.1084,0.310547 0.29395,0.635743 0.58887,0.899414 -0.31055,0.279297 -0.65137,0.496094 -1.08496,0.728516 -0.31055,-0.248047 -0.58984,-0.604492 -0.74414,-0.929688 -0.49609,0.511719 -1.34961,0.88379 -1.98437,0.88379 -1.56641,0 -2.82227,-1.302735 -2.82227,-3.364747 0,-2.790527 1.69043,-4.30957 3.70508,-4.30957 z m 1.08593,6.17041 v -5.131836 c -0.26367,-0.09326 -0.71386,-0.17041 -1.13183,-0.17041 -1.31836,0 -2.31055,1.038574 -2.31055,3.19336 0,1.689941 0.88379,2.60498 1.86035,2.60498 0.58985,0 1.22461,-0.202148 1.58203,-0.496094 z"
         id="path66"
         style="fill:#000000" /><path
         d="m 225.75391,63.084961 c 0.69726,0.651367 1.36425,0.976562 2.18554,0.976562 0.86817,0 1.31836,-0.418945 1.31836,-0.960937 0,-0.543457 -0.31054,-0.884277 -1.33398,-1.31836 l -0.77442,-0.325683 c -0.89941,-0.387695 -1.3955,-1.038574 -1.3955,-1.922363 0,-1.22461 1.08496,-2.278809 2.69726,-2.278809 1.24024,0 1.73633,0.37207 1.73633,0.960938 0,0.23291 -0.0312,0.43457 -0.0771,0.651367 -0.49609,-0.340821 -1.17871,-0.588867 -1.76758,-0.588867 -0.99218,0 -1.45703,0.433593 -1.45703,0.960937 0,0.558106 0.27832,0.868164 1.20899,1.224609 l 0.83691,0.325684 c 1.11621,0.434082 1.53516,1.007812 1.53516,1.922363 0,1.193848 -1.14746,2.278809 -2.88379,2.278809 -1.36426,0 -1.96875,-0.433594 -1.96875,-1.270508 0,-0.217773 0.0469,-0.46582 0.13965,-0.635742 z"
         id="path68"
         style="fill:#000000" /><path
         d="m 234.69824,57.270996 c 1.67481,0 2.68262,1.116211 2.68262,2.898926 0,0.294433 0,0.604492 -0.0156,0.992187 h -4.57421 c 0,1.736328 1.00781,2.744141 2.29492,2.744141 0.75976,0 1.59668,-0.263672 2.18554,-0.666016 0.0312,0.07715 0.0625,0.248047 0.0625,0.402344 0,0.698242 -1.02343,1.348633 -2.66699,1.348633 -1.7666,0 -3.20898,-1.378906 -3.20898,-3.550293 0,-2.697266 1.62793,-4.169922 3.24023,-4.169922 z m 1.44238,3.084961 c 0,-1.519531 -0.65136,-2.248047 -1.5664,-2.248047 -0.85254,0 -1.75195,1.023438 -1.75195,2.248047 h 3.31835 z"
         id="path70"
         style="fill:#000000" /><path
         d="m 241.25391,64.371094 4.89843,-8.557617 h -2.71289 c -0.62011,0 -1.03906,0.341308 -1.27148,1.054199 l -0.1084,0.341308 h -0.49609 L 241.75,54.898926 h 6.03027 l 0.13965,0.34082 -4.86816,8.604981 h 2.74414 c 0.99219,0 1.31738,-0.294922 1.6123,-1.101075 l 0.0928,-0.294921 h 0.49609 l -0.24805,2.310058 h -6.35644 l -0.13867,-0.387695 z"
         id="path72"
         style="fill:#000000" /><path
         d="m 252.69336,60.743652 v -0.418945 c 0,-1.673828 -0.40234,-2.030762 -1.37891,-2.030762 -0.85351,0 -1.6748,0.356934 -2.32617,1.007813 -0.0312,-0.154785 -0.0459,-0.294434 -0.0459,-0.465332 0,-0.992188 0.72852,-1.56543 2.542,-1.56543 1.5664,0 2.49609,0.790527 2.49609,2.077148 0,0.341309 -0.0469,1.116211 -0.0625,1.565918 l -0.0459,2.511719 c 0.1084,0.279297 0.34082,0.573242 0.62012,0.791016 -0.23242,0.27832 -0.65137,0.588867 -1.05469,0.790039 -0.29395,-0.185547 -0.52637,-0.433594 -0.71289,-0.759766 -0.43359,0.418946 -1.27148,0.744141 -2.09277,0.744141 -1.16309,0 -1.96875,-0.728516 -1.96875,-1.720703 0,-1.364258 1.48828,-2.526856 4.03027,-2.526856 z m -1.48828,3.317871 c 0.48047,0 1.10156,-0.186523 1.48828,-0.418945 v -2.17041 c -1.75195,0 -2.69727,0.728516 -2.69727,1.565918 0,0.620117 0.41895,1.023437 1.20899,1.023437 z"
         id="path74"
         style="fill:#000000" /><path
         d="m 255.82324,64.495117 c 0.41895,-0.154297 0.83692,-0.464844 0.83692,-0.836914 v -8.991699 l -1.02246,-0.418945 v -0.340821 c 0.71289,-0.20166 1.42578,-0.279297 1.86035,-0.279297 h 0.52734 l -0.0937,0.868165 v 6.201171 l 0.85254,-0.74414 c 0.83789,-0.712891 1.59668,-1.782715 1.59668,-2.480469 0.2793,-0.09277 0.51172,-0.124023 0.82227,-0.124023 0.23242,0 0.41796,0.04687 0.62011,0.139648 -0.0312,0.666992 -0.69824,1.720703 -2.1084,2.728516 l -0.54296,0.387695 2.38769,2.898926 c 0.43457,0.527344 0.82129,0.74414 1.14746,0.74414 v 0.326172 c -0.3418,0.232422 -0.69824,0.325196 -1.14746,0.325196 -0.43457,0 -0.80566,-0.185547 -1.10059,-0.588868 l -2.52734,-3.333496 v 3.132324 l 0.80664,0.248047 v 0.293946 c -0.57422,0.186523 -1.02344,0.248047 -1.75195,0.248047 -0.35645,0 -0.80664,-0.03125 -1.16309,-0.139649 v -0.263672 z"
         id="path76"
         style="fill:#000000" /><path
         d="m 266.25586,57.270996 c 1.6748,0 2.68164,1.116211 2.68164,2.898926 0,0.294433 0,0.604492 -0.0147,0.992187 h -4.57324 c 0,1.736328 1.00684,2.744141 2.29394,2.744141 0.75977,0 1.59668,-0.263672 2.18555,-0.666016 0.0312,0.07715 0.0625,0.248047 0.0625,0.402344 0,0.698242 -1.02344,1.348633 -2.66699,1.348633 -1.7666,0 -3.20898,-1.378906 -3.20898,-3.550293 -10e-6,-2.697266 1.62792,-4.169922 3.24023,-4.169922 z m 1.44141,3.084961 c 0,-1.519531 -0.6504,-2.248047 -1.56543,-2.248047 -0.85254,0 -1.75196,1.023438 -1.75196,2.248047 h 3.31739 z"
         id="path78"
         style="fill:#000000" /><path
         d="m 270.19141,64.495117 c 0.40332,-0.154297 0.82226,-0.464844 0.82226,-0.836914 v -5.240234 l -1.00781,-0.418457 v -0.340821 c 0.71289,-0.20166 1.41016,-0.279296 1.86035,-0.279296 h 0.37207 v 0.836914 c 0.52637,-0.526856 1.39453,-0.868164 2.29395,-0.868164 1.28711,0 2.17089,0.821777 2.17089,2.418945 v 4.341308 l 0.80567,0.232422 v 0.293946 c -0.41895,0.170898 -0.96094,0.263672 -1.62793,0.263672 -0.3252,0 -0.69727,-0.03125 -1.00781,-0.139649 v -0.263672 c 0.38769,-0.169922 0.55859,-0.464844 0.55859,-1.022461 v -2.961425 c 0,-1.519532 -0.63574,-2.093262 -1.55078,-2.093262 -0.63477,0 -1.25586,0.217285 -1.59668,0.480957 v 5.209473 l 0.86816,0.232421 v 0.293946 c -0.52734,0.186523 -1.02343,0.263672 -1.79785,0.263672 -0.37207,0 -0.80664,-0.03125 -1.16308,-0.139649 v -0.263672 z"
         id="path80"
         style="fill:#000000" /><path
         d="m 284.88672,57.270996 c 1.6748,0 2.68164,1.116211 2.68164,2.898926 0,0.294433 0,0.604492 -0.0146,0.992187 h -4.57324 c 0,1.736328 1.00683,2.744141 2.29394,2.744141 0.75977,0 1.59668,-0.263672 2.18555,-0.666016 0.0312,0.07715 0.0625,0.248047 0.0625,0.402344 0,0.698242 -1.02344,1.348633 -2.66699,1.348633 -1.7666,0 -3.20899,-1.378906 -3.20899,-3.550293 0,-2.697266 1.62793,-4.169922 3.24024,-4.169922 z m 1.4414,3.084961 c 0,-1.519531 -0.65039,-2.248047 -1.56542,-2.248047 -0.85254,0 -1.75196,1.023438 -1.75196,2.248047 h 3.31738 z"
         id="path82"
         style="fill:#000000" /><path
         d="m 288.82227,64.495117 c 0.40332,-0.154297 0.82226,-0.464844 0.82226,-0.836914 v -5.240234 l -1.00781,-0.418457 v -0.340821 c 0.71289,-0.20166 1.41015,-0.279296 1.86035,-0.279296 h 0.37207 v 0.836914 c 0.52637,-0.526856 1.39453,-0.868164 2.29395,-0.868164 1.28711,0 2.17089,0.821777 2.17089,2.418945 v 4.341308 l 0.80567,0.232422 v 0.293946 c -0.41895,0.170898 -0.96094,0.263672 -1.62793,0.263672 -0.3252,0 -0.69727,-0.03125 -1.00781,-0.139649 v -0.263672 c 0.38769,-0.169922 0.55859,-0.464844 0.55859,-1.022461 v -2.961425 c 0,-1.519532 -0.63574,-2.093262 -1.55078,-2.093262 -0.63477,0 -1.25586,0.217285 -1.59668,0.480957 v 5.209473 l 0.86816,0.232421 v 0.293946 c -0.52734,0.186523 -1.02343,0.263672 -1.79785,0.263672 -0.37207,0 -0.80664,-0.03125 -1.16308,-0.139649 v -0.263672 z"
         id="path84"
         style="fill:#000000" /><path
         d="m 61.875977,82.064453 c 0.666504,-0.201172 0.899414,-0.526367 0.899414,-1.193359 v -7.62793 L 61.79834,72.995117 v -0.34082 c 0.57373,-0.169922 1.209473,-0.248047 1.767578,-0.248047 0.558105,0 1.007324,0.04687 1.457031,0.155273 v 0.294922 c -0.650879,0.185547 -0.898926,0.464844 -0.898926,1.146485 v 7.659179 l 0.976563,0.248047 v 0.34082 c -0.588867,0.169922 -1.054199,0.263672 -1.844727,0.263672 -0.57373,0 -1.007812,-0.04687 -1.379883,-0.155273 v -0.294922 z m 2.294433,-4.712891 3.674317,-4.169921 v -0.01563 l -0.837403,-0.185547 v -0.326172 c 0.682129,-0.201172 1.08545,-0.248047 1.689942,-0.248047 0.387695,0 0.728515,0.03125 1.069824,0.139648 v 0.294922 c -0.434082,0.201172 -0.759766,0.417969 -1.131836,0.821289 l -3.100586,3.457031 2.759277,3.503907 c 0.527344,0.666992 0.930664,0.960937 1.721192,1.317382 v 0.310547 c -0.325684,0.216797 -0.620117,0.340821 -1.101074,0.340821 -0.744141,0 -1.19336,-0.248047 -1.9375,-1.286133 L 64.17041,77.414062 v -0.0625 z"
         id="path86"
         style="fill:#000000" /><path
         d="m 73.733887,74.856445 c 1.906738,0 3.379394,1.425782 3.379394,3.581055 0,2.557617 -1.782226,4.169922 -3.627441,4.169922 -1.875488,0 -3.39502,-1.317383 -3.39502,-3.581055 0,-2.542969 1.736328,-4.169922 3.643067,-4.169922 z m -0.154785,6.851563 c 1.038085,0 2.124023,-1.007813 2.124023,-3.13086 0,-1.814453 -0.976563,-2.822265 -2.077637,-2.822265 -1.069824,0 -2.124023,1.070312 -2.124023,3.116211 0,1.875976 0.977051,2.836914 2.077637,2.836914 z"
         id="path88"
         style="fill:#000000" /><path
         d="m 78.088867,82.095703 c 0.40332,-0.155273 0.821289,-0.464844 0.821289,-0.836914 V 76.018555 L 77.90332,75.600586 v -0.341797 c 0.712891,-0.201172 1.410157,-0.279297 1.860352,-0.279297 h 0.37207 v 0.837891 c 0.526367,-0.527344 1.394532,-0.868165 2.293946,-0.868165 1.287109,0 2.170898,0.82129 2.170898,2.417969 v 4.340821 l 0.805664,0.232421 v 0.294922 c -0.417969,0.170899 -0.960937,0.263672 -1.62793,0.263672 -0.325195,0 -0.697265,-0.03125 -1.007812,-0.139648 v -0.263672 c 0.387695,-0.170898 0.558594,-0.464844 0.558594,-1.023438 v -2.960937 c 0,-1.518555 -0.635742,-2.092773 -1.550781,-2.092773 -0.635743,0 -1.254883,0.216796 -1.59668,0.480468 v 5.208985 l 0.868164,0.232422 v 0.294922 c -0.526367,0.185547 -1.022461,0.263672 -1.797852,0.263672 -0.37207,0 -0.80664,-0.03125 -1.163086,-0.139649 v -0.263672 z"
         id="path90"
         style="fill:#000000" /><path
         d="m 86.628906,82.095703 c 0.418946,-0.155273 0.822266,-0.464844 0.822266,-0.836914 v -5.240234 l -0.992188,-0.417969 v -0.326172 c 0.697266,-0.201172 1.410156,-0.294922 1.844727,-0.294922 h 0.496094 l -0.07813,0.837891 v 5.890625 l 0.868164,0.232421 v 0.294922 c -0.527344,0.185547 -1.007813,0.263672 -1.797852,0.263672 -0.356445,0 -0.80664,-0.03125 -1.163086,-0.139648 v -0.263672 z m 0.651367,-9.425781 c 0,-0.480469 0.340821,-0.915039 0.883789,-0.915039 0.433594,0 0.805665,0.326172 0.805665,0.83789 0,0.541993 -0.372071,0.960938 -0.868165,0.960938 -0.464843,0 -0.821289,-0.37207 -0.821289,-0.883789 z"
         id="path92"
         style="fill:#000000" /><path
         d="m 90.860352,82.095703 c 0.40332,-0.155273 0.821289,-0.464844 0.821289,-0.836914 v -5.240234 l -1.006836,-0.417969 v -0.341797 c 0.71289,-0.201172 1.410156,-0.279297 1.860351,-0.279297 h 0.372071 v 0.837891 c 0.526367,-0.527344 1.394531,-0.868165 2.293945,-0.868165 1.287109,0 2.170898,0.82129 2.170898,2.417969 v 4.340821 l 0.805665,0.232421 v 0.294922 c -0.417969,0.170899 -0.960938,0.263672 -1.62793,0.263672 -0.325195,0 -0.697266,-0.03125 -1.007813,-0.139648 v -0.263672 c 0.387696,-0.170898 0.558594,-0.464844 0.558594,-1.023438 v -2.960937 c 0,-1.518555 -0.635742,-2.092773 -1.550781,-2.092773 -0.635742,0 -1.254883,0.216796 -1.59668,0.480468 v 5.208985 l 0.868164,0.232422 v 0.294922 c -0.526367,0.185547 -1.022461,0.263672 -1.797851,0.263672 -0.372071,0 -0.806641,-0.03125 -1.163086,-0.139649 v -0.263672 z"
         id="path94"
         style="fill:#000000" /><path
         d="m 99.384766,82.095703 c 0.418945,-0.155273 0.837894,-0.464844 0.837894,-0.836914 v -8.992188 l -1.023441,-0.417968 v -0.341797 c 0.71289,-0.201172 1.425781,-0.278321 1.860351,-0.278321 h 0.52637 l -0.0928,0.868165 v 6.201171 l 0.85254,-0.74414 c 0.83789,-0.712891 1.59766,-1.783203 1.59766,-2.480469 0.27832,-0.09375 0.51074,-0.124023 0.82129,-0.124023 0.23242,0 0.41894,0.0459 0.62012,0.139648 -0.0312,0.666016 -0.69727,1.720703 -2.1084,2.728516 l -0.54297,0.386718 2.38769,2.899415 c 0.4336,0.527343 0.82129,0.74414 1.14746,0.74414 v 0.325195 c -0.34082,0.233399 -0.69824,0.326172 -1.14746,0.326172 -0.43359,0 -0.80664,-0.186523 -1.10058,-0.588867 l -2.52735,-3.333008 v 3.13086 l 0.80664,0.248047 v 0.294922 c -0.57421,0.185547 -1.02343,0.248047 -1.75195,0.248047 -0.35644,0 -0.806639,-0.03125 -1.163084,-0.139649 v -0.263672 z"
         id="path96"
         style="fill:#000000" /><path
         d="m 106.7168,82.095703 c 0.40332,-0.155273 0.82226,-0.464844 0.82226,-0.836914 v -5.240234 l -1.00781,-0.417969 v -0.341797 c 0.71289,-0.201172 1.41016,-0.279297 1.86035,-0.279297 h 0.37207 v 1.085937 h 0.0156 l 0.43359,-0.480468 c 0.41895,-0.450196 0.83691,-0.682618 1.36426,-0.682618 0.54297,0 0.80566,0.232422 0.80566,0.666993 0,0.293945 -0.0928,0.635742 -0.24804,0.929687 -0.29395,-0.232422 -0.63477,-0.356445 -0.96094,-0.356445 -0.48047,0 -0.92969,0.216797 -1.36426,0.635742 v 4.929688 l 1.07031,0.232421 v 0.294922 c -0.52734,0.185547 -1.03906,0.263672 -1.92285,0.263672 -0.44922,0 -0.88379,-0.03125 -1.24023,-0.139648 v -0.263672 z"
         id="path98"
         style="fill:#000000" /><path
         d="m 112.32715,82.095703 c 0.41894,-0.155273 0.82129,-0.464844 0.82129,-0.836914 v -5.240234 l -0.99219,-0.417969 v -0.326172 c 0.69824,-0.201172 1.41113,-0.294922 1.8457,-0.294922 h 0.4961 l -0.0781,0.837891 v 5.890625 l 0.86817,0.232421 v 0.294922 c -0.52637,0.185547 -1.00782,0.263672 -1.79786,0.263672 -0.35644,0 -0.80664,-0.03125 -1.16308,-0.139648 v -0.263672 z m 0.65137,-9.425781 c 0,-0.480469 0.34082,-0.915039 0.88378,-0.915039 0.4336,0 0.80567,0.326172 0.80567,0.83789 0,0.541993 -0.37207,0.960938 -0.86817,0.960938 -0.46484,0 -0.82128,-0.37207 -0.82128,-0.883789 z"
         id="path100"
         style="fill:#000000" /><path
         d="m 117.31836,76.018555 -0.99219,-0.417969 v -0.326172 c 0.71289,-0.201172 1.41113,-0.294922 1.86035,-0.294922 h 0.4961 l -0.0928,0.869141 v 6.959961 c 0,2.542968 -0.75976,3.333007 -1.75195,3.333007 -0.34082,0 -0.68262,-0.123047 -0.86816,-0.371093 v -0.248047 c 0.68164,0 1.34863,-0.775391 1.34863,-2.357422 v -7.146484 z m -0.1709,-3.348633 c 0,-0.480469 0.3418,-0.915039 0.88379,-0.915039 0.43457,0 0.80664,0.326172 0.80664,0.83789 0,0.541993 -0.37207,0.960938 -0.86816,0.960938 -0.46582,0 -0.82227,-0.37207 -0.82227,-0.883789 z"
         id="path102"
         style="fill:#000000" /><path
         d="m 120.24707,82.095703 c 0.41895,-0.155273 0.83691,-0.464844 0.83691,-0.836914 v -8.992188 l -1.02246,-0.417968 v -0.341797 c 0.71289,-0.201172 1.42578,-0.278321 1.86036,-0.278321 h 0.52734 l -0.0937,0.868165 v 6.201171 l 0.85254,-0.74414 c 0.83789,-0.712891 1.59668,-1.783203 1.59668,-2.480469 0.27929,-0.09375 0.51172,-0.124023 0.82226,-0.124023 0.23243,0 0.41797,0.0459 0.62012,0.139648 -0.0312,0.666016 -0.69824,1.720703 -2.1084,2.728516 l -0.54297,0.386718 2.3877,2.899415 c 0.43457,0.527343 0.82129,0.74414 1.14746,0.74414 v 0.325195 c -0.3418,0.233399 -0.69824,0.326172 -1.14746,0.326172 -0.43457,0 -0.80567,-0.186523 -1.10059,-0.588867 l -2.52734,-3.333008 v 3.13086 l 0.80664,0.248047 v 0.294922 c -0.57422,0.185547 -1.02344,0.248047 -1.75195,0.248047 -0.35645,0 -0.80664,-0.03125 -1.16309,-0.139649 v -0.263672 z"
         id="path104"
         style="fill:#000000" /><path
         d="m 127.48633,80.68457 c 0.69726,0.651367 1.36426,0.977539 2.18554,0.977539 0.86817,0 1.31836,-0.418945 1.31836,-0.961914 0,-0.541992 -0.31054,-0.882812 -1.33398,-1.317383 l -0.77441,-0.325195 c -0.89942,-0.387695 -1.39551,-1.039062 -1.39551,-1.922851 0,-1.22461 1.08496,-2.278321 2.69726,-2.278321 1.24024,0 1.73633,0.371094 1.73633,0.960938 0,0.232422 -0.0312,0.433594 -0.0771,0.65039 -0.49609,-0.34082 -1.17871,-0.588867 -1.76757,-0.588867 -0.99219,0 -1.45704,0.43457 -1.45704,0.961914 0,0.557617 0.27832,0.867188 1.20899,1.22461 l 0.83691,0.325195 c 1.11621,0.43457 1.53516,1.007812 1.53516,1.922852 0,1.193359 -1.14746,2.27832 -2.88379,2.27832 -1.36426,0 -1.96875,-0.433594 -1.96875,-1.271485 0,-0.216796 0.0469,-0.464843 0.13965,-0.635742 z"
         id="path106"
         style="fill:#000000" /><path
         d="m 133.3291,82.095703 c 0.40332,-0.155273 0.82129,-0.464844 0.82129,-0.836914 v -5.240234 l -1.00684,-0.417969 v -0.341797 c 0.7129,-0.201172 1.41016,-0.279297 1.86036,-0.279297 h 0.37207 v 1.085937 h 0.0146 l 0.43457,-0.480468 c 0.41894,-0.450196 0.83691,-0.682618 1.36425,-0.682618 0.54297,0 0.80664,0.232422 0.80664,0.666993 0,0.293945 -0.0937,0.635742 -0.24804,0.929687 -0.29493,-0.232422 -0.63575,-0.356445 -0.96192,-0.356445 -0.48047,0 -0.92968,0.216797 -1.36426,0.635742 v 4.929688 l 1.07032,0.232421 v 0.294922 c -0.52735,0.185547 -1.03907,0.263672 -1.92285,0.263672 -0.44922,0 -0.88379,-0.03125 -1.24024,-0.139648 v -0.263672 z"
         id="path108"
         style="fill:#000000" /><path
         d="m 141.65332,74.871094 c 1.6748,0 2.68262,1.116211 2.68262,2.899414 0,0.294922 0,0.604492 -0.0156,0.992187 h -4.57422 c 0,1.736328 1.00782,2.744141 2.29493,2.744141 0.75976,0 1.59668,-0.263672 2.18554,-0.666992 0.0312,0.07813 0.0625,0.248047 0.0625,0.40332 0,0.697266 -1.02344,1.348633 -2.66699,1.348633 -1.7666,0 -3.20898,-1.379883 -3.20898,-3.549805 0,-2.697265 1.62793,-4.170898 3.24023,-4.170898 z m 1.44238,3.084961 c 0,-1.518555 -0.65136,-2.247071 -1.5664,-2.247071 -0.85254,0 -1.75196,1.022461 -1.75196,2.247071 h 3.31836 z"
         id="path110"
         style="fill:#000000" /><path
         d="m 145.58984,82.095703 c 0.40332,-0.155273 0.82227,-0.464844 0.82227,-0.836914 v -8.992188 l -1.00781,-0.417968 v -0.341797 c 0.69726,-0.201172 1.42578,-0.278321 1.86035,-0.278321 h 0.49609 l -0.0781,0.868165 v 9.611328 l 0.86816,0.232422 v 0.294921 c -0.52734,0.185547 -1.02344,0.263672 -1.79785,0.263672 -0.37207,0 -0.80664,-0.03125 -1.16309,-0.139648 v -0.263672 z"
         id="path112"
         style="fill:#000000" /><path
         d="m 153.57227,78.34375 v -0.417969 c 0,-1.674804 -0.40235,-2.03125 -1.37891,-2.03125 -0.85352,0 -1.67481,0.356446 -2.32617,1.007813 -0.0312,-0.155274 -0.0459,-0.294922 -0.0459,-0.464844 0,-0.992188 0.72851,-1.566406 2.54199,-1.566406 1.56641,0 2.4961,0.791015 2.4961,2.078125 0,0.34082 -0.0469,1.116211 -0.0625,1.565429 l -0.0459,2.511719 c 0.1084,0.279297 0.34082,0.573242 0.62011,0.790039 -0.23242,0.279297 -0.65136,0.589844 -1.05468,0.791016 -0.29395,-0.186524 -0.52637,-0.43457 -0.71289,-0.759766 -0.4336,0.418946 -1.27149,0.744141 -2.09278,0.744141 -1.16308,0 -1.96875,-0.728516 -1.96875,-1.720703 0,-1.364258 1.48828,-2.527344 4.03028,-2.527344 z m -1.48829,3.318359 c 0.48047,0 1.10157,-0.186523 1.48829,-0.418945 v -2.169922 c -1.75196,0 -2.69727,0.728516 -2.69727,1.56543 0,0.620117 0.41895,1.023437 1.20898,1.023437 z"
         id="path114"
         style="fill:#000000" /><path
         d="m 157.38574,78.126953 0.0459,-2.061523 h -0.85254 v -0.511719 l 1.67481,-1.65918 0.51172,-0.06152 -0.0625,1.394531 H 160.75 l -0.10938,0.837891 h -1.98437 l -0.0303,1.953125 c -0.0156,0.651367 -0.0156,1.240234 -0.0156,1.813476 0,1.25586 0.37207,1.69043 0.94531,1.69043 0.4502,0 0.83692,-0.155274 1.14746,-0.40332 l 0.15528,0.06152 c -0.0625,0.915039 -0.60449,1.379883 -1.67481,1.379883 -1.24023,0 -1.84472,-0.650391 -1.84472,-2.154297 0,-0.744141 0.0312,-1.566406 0.0469,-2.279297 z"
         id="path116"
         style="fill:#000000" /><path
         d="m 161.53906,82.095703 c 0.41895,-0.155273 0.82227,-0.464844 0.82227,-0.836914 v -5.240234 l -0.99219,-0.417969 v -0.326172 c 0.69727,-0.201172 1.41016,-0.294922 1.84473,-0.294922 h 0.49609 l -0.0781,0.837891 v 5.890625 L 164.5,81.94043 v 0.294922 c -0.52734,0.185547 -1.00781,0.263672 -1.79785,0.263672 -0.35645,0 -0.80664,-0.03125 -1.16309,-0.139649 v -0.263672 z m 0.65137,-9.425781 c 0,-0.480469 0.34082,-0.915039 0.88379,-0.915039 0.43359,0 0.80566,0.326172 0.80566,0.83789 0,0.541993 -0.37207,0.960938 -0.86816,0.960938 -0.46485,0 -0.82129,-0.37207 -0.82129,-0.883789 z"
         id="path118"
         style="fill:#000000" /><path
         d="m 168.87109,74.871094 c 1.67481,0 2.68164,1.116211 2.68164,2.899414 0,0.294922 0,0.604492 -0.0146,0.992187 h -4.57325 c 0,1.736328 1.00684,2.744141 2.29395,2.744141 0.75976,0 1.59668,-0.263672 2.18555,-0.666992 0.0312,0.07813 0.0625,0.248047 0.0625,0.40332 0,0.697266 -1.02344,1.348633 -2.667,1.348633 -1.7666,0 -3.20898,-1.379883 -3.20898,-3.549805 0,-2.697265 1.62793,-4.170898 3.24023,-4.170898 z m 1.44141,3.084961 c 0,-1.518555 -0.65039,-2.247071 -1.56543,-2.247071 -0.85254,0 -1.75195,1.022461 -1.75195,2.247071 h 3.31738 z"
         id="path120"
         style="fill:#000000" /><path
         d="m 172.71387,80.68457 c 0.69726,0.651367 1.36425,0.977539 2.18554,0.977539 0.86817,0 1.31836,-0.418945 1.31836,-0.961914 0,-0.541992 -0.31054,-0.882812 -1.33398,-1.317383 l -0.77442,-0.325195 c -0.89941,-0.387695 -1.3955,-1.039062 -1.3955,-1.922851 0,-1.22461 1.08496,-2.278321 2.69726,-2.278321 1.24024,0 1.73633,0.371094 1.73633,0.960938 0,0.232422 -0.0312,0.433594 -0.0771,0.65039 -0.49609,-0.34082 -1.17871,-0.588867 -1.76758,-0.588867 -0.99218,0 -1.45703,0.43457 -1.45703,0.961914 0,0.557617 0.2793,0.867188 1.20899,1.22461 l 0.83691,0.325195 c 1.11621,0.43457 1.53516,1.007812 1.53516,1.922852 0,1.193359 -1.14746,2.27832 -2.88379,2.27832 -1.36426,0 -1.96875,-0.433594 -1.96875,-1.271485 0,-0.216796 0.0469,-0.464843 0.13965,-0.635742 z"
         id="path122"
         style="fill:#000000" /></g></g></svg>