<?xml version="1.0" encoding="UTF-8" standalone="no"?>
<svg
   xmlns:dc="http://purl.org/dc/elements/1.1/"
   xmlns:cc="http://creativecommons.org/ns#"
   xmlns:rdf="http://www.w3.org/1999/02/22-rdf-syntax-ns#"
   xmlns:svg="http://www.w3.org/2000/svg"
   xmlns="http://www.w3.org/2000/svg"
   xmlns:sodipodi="http://sodipodi.sourceforge.net/DTD/sodipodi-0.dtd"
   xmlns:inkscape="http://www.inkscape.org/namespaces/inkscape"
   viewBox="0 0 660 200"
   id="svg2"
   version="1.1"
   inkscape:version="0.48.4 r9939"
   width="100%"
   height="100%"
   sodipodi:docname="wimsl logo-object-to-path.svg">
  <metadata
     id="metadata53">
    <rdf:RDF>
      <cc:Work
         rdf:about="">
        <dc:format>image/svg+xml</dc:format>
        <dc:type
           rdf:resource="http://purl.org/dc/dcmitype/StillImage" />
        <dc:title>wimsl logo</dc:title>
      </cc:Work>
    </rdf:RDF>
  </metadata>
  <sodipodi:namedview
     pagecolor="#ffffff"
     bordercolor="#666666"
     borderopacity="1"
     objecttolerance="10"
     gridtolerance="10"
     guidetolerance="10"
     inkscape:pageopacity="0"
     inkscape:pageshadow="2"
     inkscape:window-width="2560"
     inkscape:window-height="1056"
     id="namedview51"
     showgrid="false"
     inkscape:zoom="1.769697"
     inkscape:cx="481.29686"
     inkscape:cy="29.976676"
     inkscape:window-x="1920"
     inkscape:window-y="24"
     inkscape:window-maximized="1"
     inkscape:current-layer="svg2" />
  <defs
     id="defs4">
    <style
       id="style6">.cls-1{isolation:isolate;}.cls-2{font-size:72px;fill:#3d4a4c;font-family:Montserrat-Bold, Montserrat;font-weight:700;letter-spacing:-0.04em;}.cls-3{letter-spacing:-0.01em;}.cls-4{letter-spacing:-0.01em;}.cls-5{letter-spacing:-0.01em;}.cls-6{letter-spacing:-0.02em;}.cls-7{letter-spacing:-0.01em;}.cls-8{fill:#e6e6e6;}.cls-10,.cls-11,.cls-9{fill:none;stroke-linejoin:bevel;stroke-width:16px;mix-blend-mode:multiply;}.cls-9{stroke:#ec117e;}.cls-10,.cls-9{opacity:0.9;}.cls-10{stroke:#31a8df;}.cls-11{stroke:#751c58;opacity:0.75;}</style>
  </defs>
  <title
     id="title8">wimsl logo</title>
  <g
     class="cls-1"
     id="g10">
    <g
       id="Layer_1"
       data-name="Layer 1">
      <g
         transform="translate(216.09 92.65)"
         style="font-size:72px;font-weight:700;letter-spacing:-0.04em;fill:#3d4a4c;font-family:'Montserrat-Bold, Montserrat'"
         id="text13">
        <path
           d="m 21.888,-21.384 8.928,-28.944 11.736,0 8.856,28.944 10.008,-28.944 12.168,0 L 56.016,0 47.664,0 36.648,-34.992 25.704,0 17.352,0 -0.216,-50.328 l 12.168,0 9.936,28.944"
           style="font-size:72px;font-weight:700;letter-spacing:-0.04em;fill:#3d4a4c;font-family:'Montserrat-Bold, Montserrat'"
           id="path3050" />
        <path
           d="m 108.216,0 -10.152003,0 0,-4.68 c -2.784025,3.5040012 -6.240022,5.25599942 -10.368,5.256 -4.080013,-5.8e-7 -7.51201,-1.1759994 -10.296,-3.528 -2.784004,-2.3999946 -4.176003,-5.5679915 -4.176,-9.504 -3e-6,-3.983984 1.439995,-6.959981 4.32,-8.928 2.87999,-1.967977 6.815986,-2.951976 11.808,-2.952 l 8.064,0 0,-0.216 c -2.7e-5,-4.127971 -2.184025,-6.191969 -6.552,-6.192 -1.872019,3.1e-5 -3.864017,0.38403 -5.976,1.152 -2.064013,0.720029 -3.816011,1.632028 -5.256,2.736 l -4.824,-6.984 c 5.08799,-3.695962 10.895984,-5.543961 17.424,-5.544 4.703973,3.9e-5 8.543973,1.176038 11.520003,3.528 2.97596,2.352034 4.46396,6.07203 4.464,11.16 l 0,24.696 m -10.872003,-14.76 0,-1.872 -6.768,0 c -4.320016,1.7e-5 -6.480014,1.344015 -6.48,4.032 -1.4e-5,1.392011 0.503986,2.47201 1.512,3.24 1.055983,0.7200086 2.543982,1.0800083 4.464,1.08 1.919978,8.3e-6 3.599976,-0.5759911 5.04,-1.728 1.487974,-1.199989 2.231973,-2.783987 2.232,-4.752"
           style="letter-spacing:-0.01em"
           id="path3052" />
        <path
           d="m 150.966,0 -10.152,0 0,-4.68 c -2.78403,3.5040012 -6.24002,5.25599942 -10.368,5.256 -4.08002,-5.8e-7 -7.51201,-1.1759994 -10.296,-3.528 -2.78401,-2.3999946 -4.17601,-5.5679915 -4.176,-9.504 -1e-5,-3.983984 1.43999,-6.959981 4.32,-8.928 2.87999,-1.967977 6.81598,-2.951976 11.808,-2.952 l 8.064,0 0,-0.216 c -3e-5,-4.127971 -2.18403,-6.191969 -6.552,-6.192 -1.87202,3.1e-5 -3.86402,0.38403 -5.976,1.152 -2.06402,0.720029 -3.81601,1.632028 -5.256,2.736 l -4.824,-6.984 c 5.08799,-3.695962 10.89598,-5.543961 17.424,-5.544 4.70397,3.9e-5 8.54397,1.176038 11.52,3.528 2.97596,2.352034 4.46396,6.07203 4.464,11.16 l 0,24.696 m -10.872,-14.76 0,-1.872 -6.768,0 c -4.32002,1.7e-5 -6.48002,1.344015 -6.48,4.032 -2e-5,1.392011 0.50398,2.47201 1.512,3.24 1.05598,0.7200086 2.54398,1.0800083 4.464,1.08 1.91998,8.3e-6 3.59997,-0.5759911 5.04,-1.728 1.48797,-1.199989 2.23197,-2.783987 2.232,-4.752"
           style="letter-spacing:-0.01em"
           id="path3054" />
        <path
           d="m 181.188,-29.232 c -3.21603,2.9e-5 -5.61602,1.152028 -7.2,3.456 -1.58402,2.256024 -2.37602,5.256021 -2.376,9 l 0,16.776 -10.8,0 0,-38.736 10.8,0 0,5.112 c 1.39198,-1.583965 3.11998,-2.927963 5.184,-4.032 2.11197,-1.103961 4.24797,-1.679961 6.408,-1.728 l 0.072,10.152 -2.088,0"
           style="letter-spacing:-0.01em"
           id="path3056" />
        <path
           d="m 220.12762,0 -10.8,0 0,-38.736 10.8,0 0,38.736 m -9.936,-43.632 c -1.2,-1.247955 -1.8,-2.759954 -1.8,-4.536 0,-1.77595 0.6,-3.263949 1.8,-4.464 1.24799,-1.247946 2.75999,-1.871945 4.536,-1.872 1.77599,5.5e-5 3.26399,0.624054 4.464,1.872 1.24799,1.200051 1.87199,2.68805 1.872,4.464 -10e-6,1.776046 -0.62401,3.288045 -1.872,4.536 -1.20001,1.200042 -2.68801,1.800042 -4.464,1.8 -1.77601,4.2e-5 -3.28801,-0.599958 -4.536,-1.8"
           style="letter-spacing:-0.01em"
           id="path3058" />
        <path
           d="m 259.58137,-12.024 c -3e-5,3.7920082 -1.41603,6.8400052 -4.248,9.144 -2.78403,2.30400058 -6.33602,3.45599942 -10.656,3.456 -2.88001,-5.8e-7 -5.88001,-0.50400007 -9,-1.512 -3.12001,-1.055998 -5.928,-2.5919965 -8.424,-4.608 l 4.752,-6.768 c 4.03199,3.1200092 8.32799,4.6800076 12.888,4.68 1.39198,7.6e-6 2.49598,-0.2639921 3.312,-0.792 0.81598,-0.575991 1.22398,-1.3199903 1.224,-2.232 -2e-5,-0.911988 -0.57602,-1.751988 -1.728,-2.52 -1.10402,-0.767986 -2.73602,-1.487985 -4.896,-2.16 -2.11201,-0.671984 -3.74401,-1.247983 -4.896,-1.728 -1.10401,-0.479982 -2.37601,-1.175982 -3.816,-2.088 -2.928,-1.823979 -4.392,-4.511976 -4.392,-8.064 0,-3.599969 1.44,-6.527966 4.32,-8.784 2.87999,-2.255962 6.59999,-3.383961 11.16,-3.384 4.55998,3.9e-5 9.11997,1.536038 13.68,4.608 l -4.032,7.2 c -3.36002,-2.30397 -6.72002,-3.455969 -10.08,-3.456 -3.31201,3.1e-5 -4.96801,0.91203 -4.968,2.736 -1e-5,1.008027 0.52799,1.800026 1.584,2.376 1.05598,0.576025 2.80798,1.248025 5.256,2.016 2.44798,0.768023 4.17598,1.368023 5.184,1.8 1.05597,0.384022 2.30397,1.008021 3.744,1.872 2.68797,1.632019 4.03197,4.368016 4.032,8.208"
           style="letter-spacing:-0.01em"
           id="path3060" />
        <path
           d="m 322.38,-20.88 0,20.88 -10.872,0 0,-21.168 c -3e-5,-3.071976 -0.48003,-5.327974 -1.44,-6.768 -0.91203,-1.439971 -2.42403,-2.15997 -4.536,-2.16 -2.06402,3e-5 -3.91202,0.792029 -5.544,2.376 -1.58402,1.536026 -2.37602,3.816024 -2.376,6.84 l 0,20.88 -10.8,0 0,-38.736 10.8,0 0,4.392 c 2.97598,-3.359962 6.38397,-5.039961 10.224,-5.04 2.44797,3.9e-5 4.65597,0.720039 6.624,2.16 2.01596,1.440036 3.52796,3.192034 4.536,5.256 1.48796,-2.351966 3.47996,-4.175964 5.976,-5.472 2.54395,-1.295961 5.08795,-1.943961 7.632,-1.944 4.55994,3.9e-5 8.23194,1.368038 11.016,4.104 2.78393,2.688033 4.17593,6.600029 4.176,11.736 l 0,23.544 -10.872,0 0,-21.168 c -6e-5,-5.951973 -2.18406,-8.92797 -6.552,-8.928 -2.16005,3e-5 -4.03205,0.792029 -5.616,2.376 -1.58404,1.536026 -2.37604,3.816024 -2.376,6.84"
           style="letter-spacing:-0.01em"
           id="path3062" />
        <path
           d="m 368.34637,0 -10.8,0 0,-38.736 10.8,0 0,38.736 m -9.936,-43.632 c -1.2,-1.247955 -1.8,-2.759954 -1.8,-4.536 0,-1.77595 0.6,-3.263949 1.8,-4.464 1.24799,-1.247946 2.75999,-1.871945 4.536,-1.872 1.77599,5.5e-5 3.26399,0.624054 4.464,1.872 1.24799,1.200051 1.87199,2.68805 1.872,4.464 -1e-5,1.776046 -0.62401,3.288045 -1.872,4.536 -1.20001,1.200042 -2.68801,1.800042 -4.464,1.8 -1.77601,4.2e-5 -3.28801,-0.599958 -4.536,-1.8"
           style="letter-spacing:-0.01em"
           id="path3064" />
        <path
           d="m 382.31212,0.72 0,-39.528 10.8,0 0,40.392 c -2e-5,4.2239942 -1.29602,7.5599909 -3.888,10.008 -2.54401,2.447986 -5.68801,3.671985 -9.432,3.672 -3.696,-1.5e-5 -7.224,-1.536014 -10.584,-4.608 l 4.968,-7.992 c 1.44,1.6799957 3.048,2.5199948 4.824,2.52 0.96,-5.2e-6 1.75199,-0.3840048 2.376,-1.152 0.62399,-0.7200033 0.93599,-1.8240022 0.936,-3.312 m 0.864,-44.352 c -1.20001,-1.247955 -1.80001,-2.759954 -1.8,-4.536 -1e-5,-1.77595 0.59999,-3.263949 1.8,-4.464 1.24799,-1.247946 2.75999,-1.871945 4.536,-1.872 1.77599,5.5e-5 3.26398,0.624054 4.464,1.872 1.24798,1.200051 1.87198,2.68805 1.872,4.464 -2e-5,1.776046 -0.62402,3.288045 -1.872,4.536 -1.20002,1.200042 -2.68801,1.800042 -4.464,1.8 -1.77601,4.2e-5 -3.28801,-0.599958 -4.536,-1.8"
           style="letter-spacing:-0.01em"
           id="path3066" />
        <path
           d="m 414.19012,-21.6 0,21.6 -10.8,0 0,-38.736 10.8,0 0,4.32 c 3.26398,-3.311962 6.93598,-4.967961 11.016,-4.968 4.07997,3.9e-5 7.48797,1.440038 10.224,4.32 2.78396,2.880032 4.17596,6.720028 4.176,11.52 l 0,23.544 -10.8,0 0,-21.888 c -3e-5,-5.951972 -2.18403,-8.927969 -6.552,-8.928 -2.16002,3.1e-5 -4.05602,0.79203 -5.688,2.376 -1.58401,1.536027 -2.37601,3.816025 -2.376,6.84"
           style="letter-spacing:-0.01em"
           id="path3068" />
        <path
           d="m 34.272,59.976 c -3.4e-5,3.792008 -1.416033,6.840005 -4.248,9.144 -2.784027,2.304001 -6.336024,3.455999 -10.656,3.456 -2.880016,-10e-7 -5.880013,-0.504 -9,-1.512 C 7.2479928,70.008002 4.4399956,68.472004 1.944,66.456 l 4.752,-6.768 c 4.031989,3.120009 8.327985,4.680008 12.888,4.68 1.391979,8e-6 2.495978,-0.263992 3.312,-0.792 0.815976,-0.575991 1.223976,-1.31999 1.224,-2.232 -2.4e-5,-0.911988 -0.576024,-1.751988 -1.728,-2.52 -1.104021,-0.767986 -2.73602,-1.487985 -4.896,-2.16 C 15.383985,55.992016 13.751986,55.416017 12.6,54.936 11.495989,54.456018 10.22399,53.760018 8.784,52.848 5.8559941,51.024021 4.3919956,48.336024 4.392,44.784 4.3919956,41.184031 5.8319942,38.256034 8.712,36 c 2.879988,-2.255962 6.599985,-3.383961 11.16,-3.384 4.559976,3.9e-5 9.119971,1.536038 13.68,4.608 l -4.032,7.2 c -3.360026,-2.30397 -6.720023,-3.455969 -10.08,-3.456 -3.312016,3.1e-5 -4.968014,0.91203 -4.968,2.736 -1.4e-5,1.008027 0.527985,1.800026 1.584,2.376 1.055983,0.576025 2.807981,1.248025 5.256,2.016 2.447976,0.768023 4.175975,1.368023 5.184,1.8 1.055972,0.384022 2.303971,1.008021 3.744,1.872 2.687967,1.632019 4.031966,4.368016 4.032,8.208"
           style=""
           id="path3070" />
        <path
           d="m 54.43,41.04 0,17.352 c -1.8e-5,1.488012 0.383982,2.664011 1.152,3.528 0.76798,0.816009 1.679979,1.224009 2.736,1.224 2.015976,9e-6 3.719975,-0.91199 5.112,-2.736 l 4.032,7.56 c -3.360027,3.072001 -6.912024,4.607999 -10.656,4.608 -3.696016,-10e-7 -6.840013,-1.223999 -9.432,-3.672 -2.544008,-2.447994 -3.816007,-5.783991 -3.816,-10.008 l 0,-17.856 -4.536,0 0,-7.776 4.536,0 0,-11.592 10.872,0 0,11.592 9.36,0 0,7.776 -9.36,0"
           style="letter-spacing:-0.01em"
           id="path3072" />
        <path
           d="m 106.73463,66.384 c -4.36804,4.128001 -9.504034,6.191999 -15.408005,6.192 -5.856017,-10e-7 -10.704012,-1.799999 -14.544,-5.4 -3.840005,-3.647992 -5.760003,-8.519987 -5.76,-14.616 -3e-6,-6.095974 1.943995,-10.94397 5.832,-14.544 3.935988,-3.599962 8.567983,-5.399961 13.896,-5.4 5.327972,3.9e-5 9.839965,1.608038 13.536005,4.824 3.74396,3.216031 5.61595,7.632027 5.616,13.248 l 0,5.76 -28.224005,0 c 0.335986,2.112013 1.439985,3.840012 3.312,5.184 1.871982,1.344009 3.983979,2.016008 6.336,2.016 3.791973,8e-6 6.91197,-1.27199 9.360005,-3.816 l 6.048,6.552 m -7.776005,-17.64 c -0.24003,-2.303974 -1.104029,-4.079973 -2.592,-5.328 -1.488027,-1.24797 -3.312025,-1.87197 -5.472,-1.872 -2.11202,3e-5 -4.056018,0.64803 -5.832,1.944 -1.776015,1.296027 -2.808014,3.048025 -3.096,5.256 l 16.992,0"
           style="letter-spacing:-0.01em"
           id="path3074" />
        <path
           d="m 153.18813,51.12 0,20.88 -10.872,0 0,-21.168 c -3e-5,-3.071976 -0.48003,-5.327974 -1.44,-6.768 -0.91203,-1.439971 -2.42403,-2.15997 -4.536,-2.16 -2.06403,3e-5 -3.91202,0.792029 -5.544,2.376 -1.58402,1.536026 -2.37602,3.816024 -2.376,6.84 l 0,20.88 -10.8,0 0,-38.736 10.8,0 0,4.392 c 2.97598,-3.359962 6.38397,-5.039961 10.224,-5.04 2.44797,3.9e-5 4.65596,0.720039 6.624,2.16 2.01596,1.440036 3.52796,3.192034 4.536,5.256 1.48796,-2.351966 3.47995,-4.175964 5.976,-5.472 2.54395,-1.295961 5.08795,-1.943961 7.632,-1.944 4.55994,3.9e-5 8.23194,1.368038 11.016,4.104 2.78393,2.688033 4.17593,6.600029 4.176,11.736 l 0,23.544 -10.872,0 0,-21.168 c -6e-5,-5.951973 -2.18406,-8.92797 -6.552,-8.928 -2.16005,3e-5 -4.03205,0.792029 -5.616,2.376 -1.58405,1.536026 -2.37605,3.816024 -2.376,6.84"
           style="letter-spacing:-0.01em"
           id="path3076" />
        <path
           d="m 199.1545,72 -10.8,0 0,-53.424 10.8,0 0,53.424"
           style="letter-spacing:-0.01em"
           id="path3078" />
        <path
           d="m 218.08825,52.632 c -10e-6,3.168016 0.88799,5.760014 2.664,7.776 1.82398,1.96801 4.12798,2.952009 6.912,2.952 2.83197,9e-6 5.13597,-0.98399 6.912,-2.952 1.82397,-2.015986 2.73597,-4.607984 2.736,-7.776 -3e-5,-3.167977 -0.91203,-5.759975 -2.736,-7.776 -1.77603,-2.015971 -4.08003,-3.02397 -6.912,-3.024 -2.78402,3e-5 -5.08802,1.008029 -6.912,3.024 -1.77601,2.016025 -2.66401,4.608023 -2.664,7.776 m 30.096,0 c -4e-5,5.616014 -1.94404,10.344009 -5.832,14.184 -3.88803,3.840001 -8.78403,5.759999 -14.688,5.76 -5.85602,-10e-7 -10.72801,-1.919999 -14.616,-5.76 -3.888,-3.839991 -5.832,-8.567986 -5.832,-14.184 0,-5.615975 1.944,-10.34397 5.832,-14.184 3.88799,-3.887963 8.75998,-5.831961 14.616,-5.832 5.90397,3.9e-5 10.79997,1.944037 14.688,5.832 3.88796,3.84003 5.83196,8.568025 5.832,14.184"
           style="letter-spacing:-0.01em"
           id="path3080" />
        <path
           d="m 263.442,72 -10.8,0 0,-53.424 10.8,0 0,27.432 12.024,-12.816 13.608,0 -14.76,15.696 15.336,23.112 -12.816,0 -9.864,-14.832 -3.528,3.672 0,11.16"
           style="letter-spacing:-0.02em"
           id="path3082" />
        <path
           d="m 326.65601,72 -10.152,0 0,-4.68 c -2.78402,3.504001 -6.24002,5.255999 -10.368,5.256 -4.08001,-10e-7 -7.51201,-1.175999 -10.296,-3.528 -2.784,-2.399995 -4.176,-5.567991 -4.176,-9.504 0,-3.983984 1.44,-6.959981 4.32,-8.928 2.87999,-1.967977 6.81599,-2.951976 11.808,-2.952 l 8.064,0 0,-0.216 c -2e-5,-4.127971 -2.18402,-6.191969 -6.552,-6.192 -1.87201,3.1e-5 -3.86401,0.38403 -5.976,1.152 -2.06401,0.720029 -3.81601,1.632028 -5.256,2.736 l -4.824,-6.984 c 5.08799,-3.695962 10.89599,-5.543961 17.424,-5.544 4.70398,3.9e-5 8.54397,1.176038 11.52,3.528 2.97597,2.352034 4.46397,6.07203 4.464,11.16 l 0,24.696 m -10.872,-14.76 0,-1.872 -6.768,0 c -4.32001,1.7e-5 -6.48001,1.344015 -6.48,4.032 -10e-6,1.392011 0.50399,2.47201 1.512,3.24 1.05599,0.720009 2.54399,1.080008 4.464,1.08 1.91998,8e-6 3.59998,-0.575991 5.04,-1.728 1.48798,-1.199989 2.23198,-2.783987 2.232,-4.752"
           style="letter-spacing:-0.01em"
           id="path3084" />
        <path
           d="m 369.40601,72 -10.152,0 0,-4.68 c -2.78402,3.504001 -6.24002,5.255999 -10.368,5.256 -4.08001,-10e-7 -7.51201,-1.175999 -10.296,-3.528 -2.784,-2.399995 -4.176,-5.567991 -4.176,-9.504 0,-3.983984 1.44,-6.959981 4.32,-8.928 2.87999,-1.967977 6.81599,-2.951976 11.808,-2.952 l 8.064,0 0,-0.216 c -2e-5,-4.127971 -2.18402,-6.191969 -6.552,-6.192 -1.87201,3.1e-5 -3.86401,0.38403 -5.976,1.152 -2.06401,0.720029 -3.81601,1.632028 -5.256,2.736 l -4.824,-6.984 c 5.08799,-3.695962 10.89599,-5.543961 17.424,-5.544 4.70398,3.9e-5 8.54397,1.176038 11.52,3.528 2.97597,2.352034 4.46397,6.07203 4.464,11.16 l 0,24.696 m -10.872,-14.76 0,-1.872 -6.768,0 c -4.32001,1.7e-5 -6.48001,1.344015 -6.48,4.032 -10e-6,1.392011 0.50399,2.47201 1.512,3.24 1.05599,0.720009 2.54399,1.080008 4.464,1.08 1.91998,8e-6 3.59998,-0.575991 5.04,-1.728 1.48798,-1.199989 2.23198,-2.783987 2.232,-4.752"
           style="letter-spacing:-0.01em"
           id="path3086" />
        <path
           d="m 390.05201,72 -10.8,0 0,-53.424 10.8,0 0,53.424"
           style="letter-spacing:-0.01em"
           id="path3088" />
        <path
           d="m 419.06576,57.024 -10.944,0 0,-5.4 c -10e-6,-1.967978 0.23999,-3.431976 0.72,-4.392 0.52799,-1.007974 1.60799,-2.351973 3.24,-4.032 l 4.896,-5.04 c 0.71998,-0.863965 1.07998,-1.967964 1.08,-3.312 -2e-5,-1.391961 -0.38402,-2.54396 -1.152,-3.456 -0.76802,-0.911958 -1.77602,-1.367958 -3.024,-1.368 -1.24801,4.2e-5 -2.30401,0.552041 -3.168,1.656 -0.81601,1.056039 -1.32001,2.472038 -1.512,4.248 l -11.448,0 c 0.528,-4.799959 2.28,-8.567955 5.256,-11.304 2.97599,-2.73595 6.69599,-4.103949 11.16,-4.104 4.51198,5.1e-5 8.15998,1.22405 10.944,3.672 2.83197,2.448045 4.24797,5.832042 4.248,10.152 -3e-5,1.920036 -0.24003,3.360034 -0.72,4.32 -0.48003,0.912032 -0.81603,1.584032 -1.008,2.016 -0.19203,0.384031 -0.64803,0.98403 -1.368,1.8 -0.67203,0.816029 -1.12803,1.344028 -1.368,1.584 -1.15202,1.152027 -2.25602,2.232026 -3.312,3.24 -1.00802,1.008024 -1.68002,1.848023 -2.016,2.52 -0.33602,0.624022 -0.50402,1.584021 -0.504,2.88 l 0,4.32 m -9.864,13.752 c -1.20001,-1.247998 -1.80001,-2.759996 -1.8,-4.536 -1e-5,-1.775992 0.59999,-3.263991 1.8,-4.464 1.24799,-1.247989 2.75999,-1.871988 4.536,-1.872 1.77598,1.2e-5 3.26398,0.624011 4.464,1.872 1.24798,1.200009 1.87198,2.688008 1.872,4.464 -2e-5,1.776004 -0.62402,3.288002 -1.872,4.536 -1.20002,1.2 -2.68802,1.799999 -4.464,1.8 -1.77601,-10e-7 -3.28801,-0.6 -4.536,-1.8"
           style="letter-spacing:-0.01em"
           id="path3090" />
      </g>
      <path
         style="fill:#e6e6e6"
         d="m 37.360001,20 c 0,4.418278 -3.581722,8 -8,8 -4.418278,0 -8,-3.581722 -8,-8 0,-4.418278 3.581722,-8 8,-8 4.418278,0 8,3.581722 8,8 z"
         id="circle27" />
      <path
         style="fill:#e6e6e6"
         d="m 37.360001,100 c 0,4.41828 -3.581722,8 -8,8 -4.418278,0 -8,-3.58172 -8,-8 0,-4.418278 3.581722,-8 8,-8 4.418278,0 8,3.581722 8,8 z"
         id="circle29" />
      <path
         style="fill:#e6e6e6"
         d="m 37.360001,180 c 0,4.41828 -3.581722,8 -8,8 -4.418278,0 -8,-3.58172 -8,-8 0,-4.41828 3.581722,-8 8,-8 4.418278,0 8,3.58172 8,8 z"
         id="circle31" />
      <path
         style="fill:#e6e6e6"
         d="m 117.36,20 c 0,4.418278 -3.58172,8 -8,8 -4.41828,0 -8,-3.581722 -8,-8 0,-4.418278 3.58172,-8 8,-8 4.41828,0 8,3.581722 8,8 z"
         id="circle33" />
      <path
         style="fill:#e6e6e6"
         d="m 117.36,100 c 0,4.41828 -3.58172,8 -8,8 -4.41828,0 -8,-3.58172 -8,-8 0,-4.418278 3.58172,-8 8,-8 4.41828,0 8,3.581722 8,8 z"
         id="circle35" />
      <path
         style="fill:#e6e6e6"
         d="m 117.36,180 c 0,4.41828 -3.58172,8 -8,8 -4.41828,0 -8,-3.58172 -8,-8 0,-4.41828 3.58172,-8 8,-8 4.41828,0 8,3.58172 8,8 z"
         id="circle37" />
      <path
         style="fill:#e6e6e6"
         d="m 197.36,20 c 0,4.418278 -3.58172,8 -8,8 -4.41828,0 -8,-3.581722 -8,-8 0,-4.418278 3.58172,-8 8,-8 4.41828,0 8,3.581722 8,8 z"
         id="circle39" />
      <path
         style="fill:#e6e6e6"
         d="m 197.36,100 c 0,4.41828 -3.58172,8 -8,8 -4.41828,0 -8,-3.58172 -8,-8 0,-4.418278 3.58172,-8 8,-8 4.41828,0 8,3.581722 8,8 z"
         id="circle41" />
      <path
         style="fill:#e6e6e6"
         d="m 197.36,180 c 0,4.41828 -3.58172,8 -8,8 -4.41828,0 -8,-3.58172 -8,-8 0,-4.41828 3.58172,-8 8,-8 4.41828,0 8,3.58172 8,8 z"
         id="circle43" />
      <path
         style="opacity:0.9;fill:none;stroke:#ec117e;stroke-width:16px;stroke-linejoin:bevel"
         d="m 75.88,69.96 113.78,0 0,70.49 -113.78,-0.22 0,-70.27 z"
         id="polygon45" />
      <path
         style="opacity:0.9;fill:none;stroke:#31a8df;stroke-width:16px;stroke-linejoin:bevel"
         d="m 29.88,33.96 107.5,146.99 0,-146.99 -107.5,0 z"
         id="polygon47" />
      <path
         style="opacity:0.75;fill:none;stroke:#751c58;stroke-width:16px;stroke-linejoin:bevel"
         d="m 132.84,116.27 c 0,25.58183 -23.12002,46.32 -51.640003,46.32 -28.519984,0 -51.639999,-20.73817 -51.639999,-46.32 0,-25.581833 23.120015,-46.320003 51.639999,-46.320003 28.519983,0 51.640003,20.73817 51.640003,46.320003 z"
         id="ellipse49" />
    </g>
  </g>
</svg>
